<?xml version="1.0" encoding="UTF-8"?>
<svg width="651px" height="521px" viewBox="0 0 651 521" version="1.1" xmlns="http://www.w3.org/2000/svg" xmlns:xlink="http://www.w3.org/1999/xlink">
    <!-- Generator: Sketch 48.2 (47327) - http://www.bohemiancoding.com/sketch -->
    <title>Group 12</title>
    <desc>Created with Sketch.</desc>
    <defs>
        <path d="M104.508,124.42 L2.098,124.42 C2.098,124.42 -2.052,73.56 4.178,46.51 C6.696,35.641 10.039,24.98 14.178,14.62 C15.983,9.978 18.019,5.429 20.278,0.99 L96.098,5.11 C96.858,8.17 97.548,11.35 98.188,14.62 C107.098,60.68 104.508,124.42 104.508,124.42 Z" id="path-1"></path>
    </defs>
    <g id="Landing-page-CampusHires" stroke="none" stroke-width="1" fill="none" fill-rule="evenodd" transform="translate(-124.000000, -853.000000)">
        <g id="Group-52-Copy" transform="translate(-1.000000, 750.000000)">
            <g id="Group-12" transform="translate(125.000000, 104.000000)">
                <polygon id="Shape" stroke="#DDDDDD" stroke-linecap="round" stroke-linejoin="round" points="449.398 23.4270861 277.688 23.4270861 277.688 396.124188 449.398 396.124188"></polygon>
                <polygon id="Shape" stroke="#DDDDDD" stroke-linecap="round" stroke-linejoin="round" points="254.898692 23.4270861 92.1143747 23.4270861 92.1143747 396.124188 254.898692 396.124188"></polygon>
                <g id="Group-61" transform="translate(114.000000, 136.000000)">
                    <path d="M130.098,0.159205568 L10.988,0.159205568 C5.4651525,0.159205568 0.988,4.63635807 0.988,10.1592056 L0.988,55.68 C0.988,61.2028475 5.4651525,65.68 10.988,65.68 L130.098,65.68 C135.620847,65.68 140.098,61.2028475 140.098,55.68 L140.098,10.1592056 C140.098,4.63635807 135.620847,0.159205568 130.098,0.159205568 Z" id="Shape" stroke="#DDDDDD" fill="#3E50F6" stroke-linecap="round" stroke-linejoin="round"></path>
                    <path d="M25.408,17.7 C25.41,18.2661 25.244,18.82 24.931,19.2916 C24.618,19.7633 24.172,20.1314 23.65,20.3494 C23.127,20.5674 22.552,20.6255 21.997,20.5162 C21.441,20.407 20.931,20.1354 20.53,19.7358 C20.129,19.3363 19.855,18.8267 19.744,18.2716 C19.633,17.7166 19.689,17.141 19.905,16.6178 C20.121,16.0946 20.488,15.6474 20.958,15.3327 C21.429,15.018 21.982,14.85 22.548,14.85 C23.305,14.85 24.031,15.1499 24.567,15.6841 C25.103,16.2183 25.406,16.9432 25.408,17.7 Z" id="Shape" fill="#DDDDDD" fill-rule="nonzero"></path>
                    <path d="M38.668,17.7 L112.638,17.7" id="Shape" stroke="#DDDDDD" stroke-width="2" stroke-linecap="round" stroke-linejoin="round"></path>
                    <path d="M22.548,33.79 C24.128,33.79 25.408,32.5095 25.408,30.93 C25.408,29.3505 24.128,28.07 22.548,28.07 C20.969,28.07 19.688,29.3505 19.688,30.93 C19.688,32.5095 20.969,33.79 22.548,33.79 Z" id="Shape" fill="#DDDDDD" fill-rule="nonzero"></path>
                    <path d="M38.668,30.93 L74.478,30.93" id="Shape" stroke="#DDDDDD" stroke-width="2" stroke-linecap="round" stroke-linejoin="round"></path>
                    <path d="M25.408,44.4 C25.41,44.966 25.244,45.52 24.931,45.992 C24.618,46.463 24.172,46.831 23.65,47.049 C23.127,47.267 22.552,47.325 21.997,47.216 C21.441,47.107 20.931,46.835 20.53,46.436 C20.129,46.036 19.855,45.527 19.744,44.972 C19.633,44.417 19.689,43.841 19.905,43.318 C20.121,42.7946 20.488,42.3474 20.958,42.0327 C21.429,41.718 21.982,41.55 22.548,41.55 C23.305,41.55 24.031,41.8499 24.567,42.3841 C25.103,42.9183 25.406,43.643 25.408,44.4 Z" id="Shape" fill="#DDDDDD" fill-rule="nonzero"></path>
                    <path d="M38.668,44.4 L85.288,44.4" id="Shape" stroke="#DDDDDD" stroke-width="2" stroke-linecap="round" stroke-linejoin="round"></path>
                </g>
                <g id="Group-61" transform="translate(114.000000, 56.000000)">
                    <path d="M130.098,0.159205568 L10.988,0.159205568 C5.4651525,0.159205568 0.988,4.63635807 0.988,10.1592056 L0.988,55.68 C0.988,61.2028475 5.4651525,65.68 10.988,65.68 L130.098,65.68 C135.620847,65.68 140.098,61.2028475 140.098,55.68 L140.098,10.1592056 C140.098,4.63635807 135.620847,0.159205568 130.098,0.159205568 Z" id="Shape" stroke="#DDDDDD" fill="#3E50F6" stroke-linecap="round" stroke-linejoin="round"></path>
                    <path d="M25.408,17.7 C25.41,18.2661 25.244,18.82 24.931,19.2916 C24.618,19.7633 24.172,20.1314 23.65,20.3494 C23.127,20.5674 22.552,20.6255 21.997,20.5162 C21.441,20.407 20.931,20.1354 20.53,19.7358 C20.129,19.3363 19.855,18.8267 19.744,18.2716 C19.633,17.7166 19.689,17.141 19.905,16.6178 C20.121,16.0946 20.488,15.6474 20.958,15.3327 C21.429,15.018 21.982,14.85 22.548,14.85 C23.305,14.85 24.031,15.1499 24.567,15.6841 C25.103,16.2183 25.406,16.9432 25.408,17.7 Z" id="Shape" fill="#DDDDDD" fill-rule="nonzero"></path>
                    <path d="M38.668,17.7 L112.638,17.7" id="Shape" stroke="#DDDDDD" stroke-width="2" stroke-linecap="round" stroke-linejoin="round"></path>
                    <path d="M22.548,33.79 C24.128,33.79 25.408,32.5095 25.408,30.93 C25.408,29.3505 24.128,28.07 22.548,28.07 C20.969,28.07 19.688,29.3505 19.688,30.93 C19.688,32.5095 20.969,33.79 22.548,33.79 Z" id="Shape" fill="#DDDDDD" fill-rule="nonzero"></path>
                    <path d="M38.668,30.93 L74.478,30.93" id="Shape" stroke="#DDDDDD" stroke-width="2" stroke-linecap="round" stroke-linejoin="round"></path>
                    <path d="M25.408,44.4 C25.41,44.966 25.244,45.52 24.931,45.992 C24.618,46.463 24.172,46.831 23.65,47.049 C23.127,47.267 22.552,47.325 21.997,47.216 C21.441,47.107 20.931,46.835 20.53,46.436 C20.129,46.036 19.855,45.527 19.744,44.972 C19.633,44.417 19.689,43.841 19.905,43.318 C20.121,42.7946 20.488,42.3474 20.958,42.0327 C21.429,41.718 21.982,41.55 22.548,41.55 C23.305,41.55 24.031,41.8499 24.567,42.3841 C25.103,42.9183 25.406,43.643 25.408,44.4 Z" id="Shape" fill="#DDDDDD" fill-rule="nonzero"></path>
                    <path d="M38.668,44.4 L85.288,44.4" id="Shape" stroke="#DDDDDD" stroke-width="2" stroke-linecap="round" stroke-linejoin="round"></path>
                </g>
                <g id="Group-61" transform="translate(356.344303, 114.211718) rotate(20.000000) translate(-356.344303, -114.211718) translate(271.844303, 81.211718)">
                    <path d="M158.098,0.159205568 L38.988,0.159205568 C33.4651525,0.159205568 28.988,4.63635807 28.988,10.1592056 L28.988,55.68 C28.988,61.2028475 33.4651525,65.68 38.988,65.68 L158.098,65.68 C163.620847,65.68 168.098,61.2028475 168.098,55.68 L168.098,10.1592056 C168.098,4.63635807 163.620847,0.159205568 158.098,0.159205568 Z" id="Shape" stroke="#DDDDDD" fill="#3F8CFF" stroke-linecap="round" stroke-linejoin="round"></path>
                    <path d="M53.408,17.7 C53.41,18.2661 53.244,18.82 52.931,19.2916 C52.618,19.7633 52.172,20.1314 51.65,20.3494 C51.127,20.5674 50.552,20.6255 49.997,20.5162 C49.441,20.407 48.931,20.1354 48.53,19.7358 C48.129,19.3363 47.855,18.8267 47.744,18.2716 C47.633,17.7166 47.689,17.141 47.905,16.6178 C48.121,16.0946 48.488,15.6474 48.958,15.3327 C49.429,15.018 49.982,14.85 50.548,14.85 C51.305,14.85 52.031,15.1499 52.567,15.6841 C53.103,16.2183 53.406,16.9432 53.408,17.7 Z" id="Shape" fill="#DDDDDD" fill-rule="nonzero"></path>
                    <path d="M66.668,17.7 L140.638,17.7" id="Shape" stroke="#DDDDDD" stroke-width="2" stroke-linecap="round" stroke-linejoin="round"></path>
                    <path d="M50.548,33.79 C52.128,33.79 53.408,32.5095 53.408,30.93 C53.408,29.3505 52.128,28.07 50.548,28.07 C48.969,28.07 47.688,29.3505 47.688,30.93 C47.688,32.5095 48.969,33.79 50.548,33.79 Z" id="Shape" fill="#DDDDDD" fill-rule="nonzero"></path>
                    <path d="M66.668,30.93 L102.478,30.93" id="Shape" stroke="#DDDDDD" stroke-width="2" stroke-linecap="round" stroke-linejoin="round"></path>
                    <path d="M7.38437195,36.9969216 L20.6161349,36.9969216" id="Shape" stroke="#3F8CFF" stroke-width="5" stroke-linecap="round" stroke-linejoin="round"></path>
                    <path d="M1.3972939,14.699951 L21.9113615,14.699951" id="Shape" stroke="#3F8CFF" stroke-width="5" stroke-linecap="round" stroke-linejoin="round"></path>
                    <path d="M53.408,44.4 C53.41,44.966 53.244,45.52 52.931,45.992 C52.618,46.463 52.172,46.831 51.65,47.049 C51.127,47.267 50.552,47.325 49.997,47.216 C49.441,47.107 48.931,46.835 48.53,46.436 C48.129,46.036 47.855,45.527 47.744,44.972 C47.633,44.417 47.689,43.841 47.905,43.318 C48.121,42.7946 48.488,42.3474 48.958,42.0327 C49.429,41.718 49.982,41.55 50.548,41.55 C51.305,41.55 52.031,41.8499 52.567,42.3841 C53.103,42.9183 53.406,43.643 53.408,44.4 Z" id="Shape" fill="#DDDDDD" fill-rule="nonzero"></path>
                    <path d="M66.668,44.4 L113.288,44.4" id="Shape" stroke="#DDDDDD" stroke-width="2" stroke-linecap="round" stroke-linejoin="round"></path>
                </g>
                <polygon id="Shape" stroke="#DDDDDD" stroke-width="2" stroke-linecap="round" stroke-linejoin="round" points="562.268 14.86 65.0984 14.86 65.0984 410.86 562.268 410.86"></polygon>
                <polygon id="Shape" stroke="#DDDDDD" stroke-width="2" stroke-linecap="round" stroke-linejoin="round" points="570.538 411.26 56.8184 411.26 56.8184 425.12 570.538 425.12"></polygon>
                <polygon id="Shape" stroke="#DDDDDD" stroke-width="2" stroke-linecap="round" stroke-linejoin="round" points="570.538 0 56.8184 0 56.8184 13.86 570.538 13.86"></polygon>
                <path d="M490.488,139.52 C467.258,130.02 455.738,156.65 464.488,173.38 C466.548,177.3 466.248,180.49 464.298,185.25 C462.348,190.01 462.298,193.41 467.568,195.55 C472.838,197.69 475.168,195.25 477.118,190.49 C479.068,185.73 481.118,183.25 485.298,181.89 C503.278,176.09 513.728,149.02 490.488,139.52 Z" id="Shape" stroke="#DDDDDD" fill="#F9F9F9" fill-rule="nonzero" stroke-linecap="round" stroke-linejoin="round"></path>
                <path d="M470.178,190.42 C468.828,184.75 469.278,180.81 473.338,179.85 C477.398,178.89 480.658,176.59 478.878,173.62 C477.098,170.65 469.718,169.96 471.738,173.56 C473.758,177.16 484.388,175.87 481.898,172.35 C479.408,168.83 473.468,165.91 475.898,165.35 C478.328,164.79 485.758,168.15 483.358,165.53 C478.538,160.28 484.168,159.17 485.718,153.53" id="Shape" stroke="#DDDDDD" stroke-linecap="round" stroke-linejoin="round"></path>
                <path d="M480.098,188.76 C479.277,190.148 478.569,191.599 477.978,193.1 C477.534,194.237 476.999,195.338 476.379,196.39 C474.159,200.12 471.189,201.61 465.939,199.47 C460.689,197.33 459.638,194.18 460.668,189.97 C460.958,188.78 461.346,187.616 461.828,186.49 C462.45,185.006 462.962,183.479 463.358,181.92 C468.471,185.21 474.145,187.529 480.098,188.76 Z" id="Shape" stroke="#DDDDDD" fill="#F9F9F9" fill-rule="nonzero" stroke-linecap="round" stroke-linejoin="round"></path>
                <path d="M480.098,188.76 C479.361,190.001 478.722,191.299 478.188,192.64 C478.108,192.79 478.048,192.95 477.978,193.1 C477.534,194.238 476.999,195.338 476.378,196.39 C474.228,196.87 471.468,196.47 467.788,194.96 C464.108,193.45 461.858,191.81 460.668,189.96 C460.958,188.77 461.346,187.606 461.828,186.48 L462.008,186.01 C462.555,184.677 463.006,183.307 463.358,181.91 C468.47,185.203 474.145,187.526 480.098,188.76 Z" id="Shape" stroke="#DDDDDD" fill="#F9F9F9" fill-rule="nonzero" stroke-linecap="round" stroke-linejoin="round"></path>
                <path d="M480.098,188.76 C479.361,190.001 478.722,191.299 478.188,192.64 C472.402,191.551 466.898,189.299 462.008,186.02 C462.555,184.687 463.006,183.317 463.358,181.92 C468.47,185.21 474.145,187.529 480.098,188.76 Z" id="Shape" stroke="#DDDDDD" fill="#F9F9F9" fill-rule="nonzero" stroke-linecap="round" stroke-linejoin="round"></path>
                <path d="M494.438,133.29 L498.828,122.54" id="Shape" stroke="#DDDDDD" stroke-width="2" stroke-linecap="round" stroke-linejoin="round"></path>
                <path d="M511.498,149.79 L522.068,148.27" id="Shape" stroke="#DDDDDD" stroke-width="2" stroke-linecap="round" stroke-linejoin="round"></path>
                <path d="M464.458,135.14 L455.008,125.01" id="Shape" stroke="#DDDDDD" stroke-width="2" stroke-linecap="round" stroke-linejoin="round"></path>
                <path d="M479.568,130.89 L479.568,123.75" id="Shape" stroke="#DDDDDD" stroke-linecap="round" stroke-linejoin="round"></path>
                <path d="M454.978,152.17 L447.048,153.31" id="Shape" stroke="#DDDDDD" stroke-linecap="round" stroke-linejoin="round"></path>
                <path d="M507.418,171.94 L510.338,176.95" id="Shape" stroke="#DDDDDD" stroke-linecap="round" stroke-linejoin="round"></path>
                <path d="M505.358,141.44 L511.068,138.73" id="Shape" stroke="#DDDDDD" stroke-linecap="round" stroke-linejoin="round"></path>
                <path d="M396.188,164.6 L392.498,164.6" id="Shape" stroke="#DDDDDD" stroke-linecap="round" stroke-linejoin="round"></path>
                <path d="M376.788,179.24 C371.318,163.0401 368.908,157.2401 365.788,153.7301 C362.668,150.2201 353.838,146.4901 353.838,146.4901 C353.838,146.4901 350.158,132.2301 345.448,132.6901 C340.738,133.1501 348.548,152.1201 348.548,152.1201 L344.408,170.7401 C345.75,172.9253 346.796,175.2792 347.518,177.7401 C350.738,188.32 359.568,189.32 361.998,198.2 C361.848,197.69 376.738,188.77 376.788,179.24 Z" id="Shape" fill="#FEBD9D" fill-rule="nonzero"></path>
                <path d="M376.788,179.24 C371.318,163.0401 368.908,157.2401 365.788,153.7301 C362.668,150.2201 353.838,146.4901 353.838,146.4901 C353.838,146.4901 350.158,132.2301 345.448,132.6901 C340.738,133.1501 348.548,152.1201 348.548,152.1201 L344.408,170.7401 C345.75,172.9253 346.796,175.2792 347.518,177.7401 C350.738,188.32 359.568,189.32 361.998,198.2 C361.848,197.69 376.738,188.77 376.788,179.24 Z" id="Shape" fill="#FEBD9D" fill-rule="nonzero"></path>
                <path d="M365.798,153.7301 C362.698,150.1601 353.848,146.4901 353.848,146.4901 C353.848,146.4901 350.168,132.2301 345.458,132.6901 C340.748,133.1501 348.558,152.1201 348.558,152.1201 L344.418,170.7401" id="Shape" stroke="#F4A789" stroke-width="0.75" stroke-linecap="round" stroke-linejoin="round"></path>
                <path d="M339.738,163.4501 C343.628,160.3701 350.298,171.6501 346.268,174.7301 C343.378,176.9401 336.038,166.3401 339.738,163.4501 Z" id="Shape" stroke="#F4A789" fill="#FEBD9D" fill-rule="nonzero"></path>
                <path d="M353.848,146.4901 C350.748,145.2701 350.358,150.4901 353.068,152.4901 C355.778,154.4901 357.508,154.9101 357.898,156.1701 C358.288,157.4301 359.058,161.3801 359.058,161.3801 C358.189,163.8758 357.857,166.5268 358.082,169.1599 C358.308,171.7929 359.087,174.3487 360.368,176.6601" id="Shape" stroke="#F4A789" stroke-width="0.75" stroke-linecap="round" stroke-linejoin="round"></path>
                <path d="M342.648,157.0001 C346.538,153.9201 354.778,168.0001 350.748,171.0601 C347.868,173.2601 338.948,159.9201 342.648,157.0001 Z" id="Shape" stroke="#F4A789" fill="#FEBD9D" fill-rule="nonzero"></path>
                <path d="M346.028,152.4401 C349.918,149.3601 358.168,163.4401 354.138,166.5001 C351.258,168.7001 342.338,155.3401 346.028,152.4401 Z" id="Shape" stroke="#F4A789" fill="#FEBD9D" fill-rule="nonzero"></path>
                <path d="M362.548,208.46 L357.298,198.21 C357.298,198.21 370.138,189.42 376.788,179.21 L381.198,186.6 C381.198,186.6 375.928,209.77 362.548,208.46 Z" id="Shape" fill="#FFFFFF" fill-rule="nonzero"></path>
                <path d="M439.298,257.86 C421.388,232.05 398.448,206.65 395.188,203.1 C393.462,201.062 391.037,199.742 388.388,199.4 L380.388,185.19 C380.388,185.19 371.658,198.19 357.298,205.19 L364.558,219.11 C364.558,219.11 362.338,220.8 367.218,231.05 C372.098,241.3 390.988,280.45 400.538,288.22 C423.378,306.8 462.838,291.79 439.298,257.86 Z" id="Shape" fill="#67A8EF" fill-rule="nonzero"></path>
                <path d="M376.188,211.17 L368.108,198.21" id="Shape" stroke="#4B84C8" stroke-width="0.75" stroke-linecap="round" stroke-linejoin="round"></path>
                <path d="M371.368,214.39 L363.428,201.66" id="Shape" stroke="#4B84C8" stroke-width="0.75" stroke-linecap="round" stroke-linejoin="round"></path>
                <path d="M376.788,189.78 L385.308,203.45" id="Shape" stroke="#4B84C8" stroke-width="0.75" stroke-linecap="round" stroke-linejoin="round"></path>
                <path d="M372.518,194.09 L381.048,207.76" id="Shape" stroke="#4B84C8" stroke-width="0.75" stroke-linecap="round" stroke-linejoin="round"></path>
                <path d="M439.298,257.86 C421.388,232.05 398.448,206.65 395.188,203.1 C393.462,201.062 391.037,199.742 388.388,199.4 L380.388,185.19" id="Shape" stroke="#4B84C8" stroke-width="0.75" stroke-linecap="round" stroke-linejoin="round"></path>
                <path d="M606.288,502.42 L507.408,502.42 L507.408,424.51 L595.838,423.28 C602.648,452.01 606.288,502.42 606.288,502.42 Z" id="Shape" fill="#683F1D" fill-rule="nonzero"></path>
                <path d="M555.548,502.42 C555.548,502.42 552.308,471.04 551.978,468.05 C551.882,467.259 551.528,466.521 550.972,465.95 C550.415,465.379 549.687,465.007 548.898,464.89 C547.001,464.5 545.045,464.5 543.148,464.89" id="Shape" stroke="#7F542D" stroke-width="0.75" stroke-linecap="round" stroke-linejoin="round"></path>
                <path d="M613.408,313.17 C611.828,339.26 606.408,379.82 602.658,405.66 C600.548,420.21 598.998,430.1 598.998,430.1 C598.998,430.1 535.728,432.56 518.538,432.1 C501.348,431.64 499.468,430.37 499.468,423.44 C499.468,416.51 499.758,329.97 499.758,329.97 C499.758,329.97 414.878,299.97 402.658,289.78 C390.438,279.59 405.068,246.1 436.488,252.97 C444.388,254.7 452.238,256.46 460.258,258.23 C484.098,263.52 509.388,268.84 541.098,273.34 C575.538,278.26 597.098,278.54 611.818,288.22 C613.998,289.65 614.248,299.4 613.408,313.17 Z" id="Shape" fill="#67A8EF" fill-rule="nonzero"></path>
                <path d="M590.558,339.4 C577.188,347.88 577.158,359.81 582.388,369.05 C594.448,390.32 559.388,376.5 557.878,402.88 L608.638,390.82 L590.558,339.4 Z" id="Shape" fill="#4B84C8" fill-rule="nonzero"></path>
                <path d="M631.968,321.34 C626.17,317.818 619.928,315.084 613.408,313.21 C602.618,310.21 592.208,310.84 585.298,317.96 C584.063,319.229 582.985,320.643 582.088,322.17 C564.778,351.17 516.378,345.88 507.408,315.3 C499.778,289.3 488.008,273.14 460.258,258.3 C484.098,263.52 509.388,268.84 541.098,273.34 C575.538,278.26 597.098,278.54 611.818,288.22 C618.638,291.1 625.748,304.28 631.968,321.34 Z" id="Shape" fill="#67A8EF" fill-rule="nonzero"></path>
                <path d="M544.328,271.45 C533.048,271.45 523.898,278.66 523.898,287.54 C523.898,292.54 526.798,297.02 531.358,299.97 C533.564,301.391 536.006,302.407 538.568,302.97 C540.457,303.408 542.39,303.627 544.328,303.62 C544.758,303.62 545.178,303.62 545.598,303.62 C548.317,303.502 550.997,302.93 553.528,301.93 C555.924,301.018 558.126,299.661 560.018,297.93 C561.483,296.631 562.662,295.042 563.481,293.264 C564.3,291.486 564.742,289.557 564.778,287.6 C564.778,278.66 555.628,271.45 544.328,271.45 Z M551.098,295.34 C549.101,295.957 547.028,296.294 544.938,296.34 L544.328,296.34 C542.692,296.346 541.059,296.179 539.458,295.84 C537.399,295.438 535.424,294.687 533.618,293.62 C530.718,291.87 528.918,289.41 528.918,286.69 C528.918,281.35 535.818,277.03 544.328,277.03 C552.838,277.03 559.748,281.35 559.748,286.69 C559.748,289.04 558.408,291.19 556.168,292.87 C554.636,293.983 552.92,294.819 551.098,295.34 Z" id="Shape" stroke="#4B84C8" stroke-width="0.75" stroke-linecap="round" stroke-linejoin="round"></path>
                <path d="M534.168,267.34 C530.348,268.07 526.098,269.34 523.968,273 C521.838,276.66 521.738,291.91 523.688,293.58 C525.638,295.25 528.238,287.27 539.868,283.38 L534.168,267.34 Z" id="Shape" fill="#FFFFFF" fill-rule="nonzero"></path>
                <path d="M549.648,284.1 L561.518,265.34 C561.518,265.34 567.818,268.68 568.838,274.71 C569.858,280.74 567.098,300.51 562.098,295.5 C558.548,292 559.348,289.11 549.648,284.1 Z" id="Shape" fill="#FFFFFF" fill-rule="nonzero"></path>
                <path d="M531.358,299.97 L533.618,293.59" id="Shape" stroke="#4B84C8" stroke-width="0.75" stroke-linecap="round" stroke-linejoin="round"></path>
                <path d="M538.568,302.98 L539.458,295.81" id="Shape" stroke="#4B84C8" stroke-width="0.75" stroke-linecap="round" stroke-linejoin="round"></path>
                <path d="M545.598,303.6 L544.938,296.3" id="Shape" stroke="#4B84C8" stroke-width="0.75" stroke-linecap="round" stroke-linejoin="round"></path>
                <path d="M553.528,301.91 L551.098,295.32" id="Shape" stroke="#4B84C8" stroke-width="0.75" stroke-linecap="round" stroke-linejoin="round"></path>
                <path d="M560.018,297.87 L556.168,292.84" id="Shape" stroke="#4B84C8" stroke-width="0.75" stroke-linecap="round" stroke-linejoin="round"></path>
                <path d="M563.318,267.88 C563.408,270.22 558.638,285.6 545.398,286.88 C532.158,288.16 530.218,273.74 530.298,269.95 C530.298,268.42 530.468,265.72 530.658,262.34 C530.918,257.7 531.268,251.79 531.528,245.93 L531.588,244.65 C533.048,210.65 562.238,217.44 560.418,235.46 C559.308,246.57 563.208,265.55 563.318,267.88 Z" id="Shape" fill="#FEBD9D" fill-rule="nonzero"></path>
                <path d="M530.658,262.34 C530.918,257.7 531.268,251.79 531.528,245.93 L547.698,243.43 C548.288,253.74 543.308,262.61 530.658,262.34 Z" id="Shape" fill="#F4A789" fill-rule="nonzero"></path>
                <path d="M596.098,388.1 C596.098,387.9 595.988,387.7 595.938,387.49 C591.408,369.28 587.648,350.23 586.068,333.6" id="Shape" stroke="#4B84C8" stroke-width="0.75" stroke-linecap="round" stroke-linejoin="round"></path>
                <path d="M522.098,365.24 C520.638,358.9 524.458,357.04 527.788,355.9 C527.478,354.11 528.138,351.21 532.108,350.59 C535.868,350 537.218,353.7 537.218,353.7 C537.218,353.7 545.128,351.02 547.128,359.07 L522.098,365.24 Z" id="Shape" fill="#DDDDDD" fill-rule="nonzero"></path>
                <polygon id="Shape" stroke="#DDDDDD" fill="#F9F9F9" fill-rule="nonzero" stroke-linecap="round" stroke-linejoin="round" points="502.888 367.01 562.638 353.2 585.298 449.21 525.028 461.34"></polygon>
                <path d="M530.098,355.46 C530.096,355.993 530.252,356.514 530.547,356.957 C530.841,357.401 531.26,357.747 531.752,357.952 C532.243,358.158 532.784,358.212 533.307,358.11 C533.829,358.007 534.31,357.752 534.687,357.376 C535.064,357 535.321,356.521 535.426,355.999 C535.53,355.476 535.478,354.935 535.274,354.443 C535.071,353.951 534.726,353.53 534.284,353.234 C533.841,352.938 533.321,352.78 532.788,352.78 C532.076,352.78 531.394,353.062 530.89,353.564 C530.385,354.067 530.101,354.748 530.098,355.46 Z" id="Shape" stroke="#DDDDDD" fill="#F9F9F9" fill-rule="nonzero" stroke-linecap="round" stroke-linejoin="round"></path>
                <path d="M650.098,407.67 C650.117,409.573 650.031,411.476 649.838,413.37 L649.838,413.65 C649.776,414.035 649.689,414.416 649.578,414.79 C647.138,422.79 631.698,430.34 617.358,422.04 C616.101,421.311 614.898,420.492 613.758,419.59 C609.113,415.755 605.328,410.985 602.648,405.59 C599.793,400.034 597.595,394.165 596.098,388.1 C596.098,387.9 595.988,387.7 595.938,387.49 C589.938,363.21 585.218,337.43 585.258,317.92 C585.258,294.4 592.188,279.98 611.818,288.24 C618.598,291.1 625.708,304.24 631.928,321.3 C637.192,336.083 641.439,351.208 644.638,366.57 C648.098,382.54 650.098,397.52 650.098,407.67 Z" id="Shape" fill="#67A8EF" fill-rule="nonzero"></path>
                <path d="M649.878,413.4 L649.878,413.68 C649.816,414.065 649.729,414.446 649.618,414.82 C647.178,422.82 631.738,430.37 617.398,422.07 C616.141,421.341 614.938,420.522 613.798,419.62 C618.172,417.362 623.093,416.381 627.998,416.79 C654.388,419.17 626.388,390.02 644.708,366.57 C648.078,382.57 650.138,397.52 650.168,407.67 C650.294,409.585 650.197,411.508 649.878,413.4 Z" id="Shape" fill="#4B84C8" fill-rule="nonzero"></path>
                <path d="M631.968,321.34 C626.17,317.818 619.928,315.084 613.408,313.21 C602.618,310.21 592.208,310.84 585.298,317.96 C585.298,294.44 592.228,280.02 611.858,288.28 C618.638,291.1 625.748,304.28 631.968,321.34 Z" id="Shape" fill="#67A8EF" fill-rule="nonzero"></path>
                <path d="M532.168,408.1 C530.538,407.1 520.888,401.52 518.088,401.34 C515.288,401.16 509.318,405.29 509.318,405.29 C509.318,405.29 497.468,405.99 496.158,408.1 C494.848,410.21 497.508,413.18 499.548,414.24 C501.588,415.3 499.668,417.48 499.928,419.24 C500.188,421 502.388,422.24 502.648,423.45 C502.908,424.66 501.768,427.96 504.488,428.77 C507.208,429.58 505.488,431.25 506.858,433.62 C508.228,435.99 516.598,435.55 537.858,431.34 L532.168,408.1 Z" id="Shape" fill="#FEBD9D" fill-rule="nonzero"></path>
                <path d="M518.098,401.34 C515.288,401.17 509.328,405.29 509.328,405.29 C509.328,405.29 497.478,405.99 496.168,408.1 C494.858,410.21 497.518,413.18 499.558,414.24 C501.598,415.3 499.678,417.48 499.938,419.24 C500.198,421 502.398,422.24 502.658,423.45 C502.918,424.66 501.778,427.96 504.498,428.77 C507.218,429.58 505.498,431.25 506.868,433.62 C507.418,434.55 509.048,435.05 512.108,435.05" id="Shape" stroke="#F4A789" stroke-width="0.75" stroke-linecap="round" stroke-linejoin="round"></path>
                <polygon id="Shape" fill="#FFFFFF" fill-rule="nonzero" points="530.678 406.18 534.948 433.5 543.958 432.17 541.158 405.51"></polygon>
                <path d="M649.848,413.68 C649.768,414.06 649.688,414.45 649.588,414.82 C647.208,424.19 637.168,430.25 609.648,432.17 C607.248,432.343 604.872,432.497 602.518,432.63 C569.878,434.57 541.648,434.01 541.648,434.01 L537.398,404.82 C552.198,400.43 576.788,392.11 596.138,388.1 C604.138,386.45 611.188,385.52 616.338,385.9 C622.205,386.218 628.019,387.174 633.678,388.75 C635.184,389.184 636.661,389.716 638.098,390.34 C644.718,393.34 649.168,398.06 650.008,405.76 C650.078,406.4 650.128,407.04 650.178,407.65 C650.309,409.666 650.198,411.69 649.848,413.68 Z" id="Shape" fill="#67A8EF" fill-rule="nonzero"></path>
                <path d="M616.338,385.9 C611.188,385.52 604.108,386.45 596.138,388.1 C576.788,392.1 552.198,400.43 537.398,404.82 L541.648,434.01" id="Shape" stroke="#4B84C8" stroke-width="0.75" stroke-linecap="round" stroke-linejoin="round"></path>
                <path d="M537.908,408.28 L555.228,405.51" id="Shape" stroke="#4B84C8" stroke-width="0.75" stroke-linecap="round" stroke-linejoin="round"></path>
                <path d="M538.728,413.89 L555.558,411.79" id="Shape" stroke="#4B84C8" stroke-width="0.75" stroke-linecap="round" stroke-linejoin="round"></path>
                <path d="M539.348,418.2 L555.968,416.79" id="Shape" stroke="#4B84C8" stroke-width="0.75" stroke-linecap="round" stroke-linejoin="round"></path>
                <path d="M540.268,424.52 L556.308,423.28" id="Shape" stroke="#4B84C8" stroke-width="0.75" stroke-linecap="round" stroke-linejoin="round"></path>
                <path d="M541.158,429.67 L556.888,428.09" id="Shape" stroke="#4B84C8" stroke-width="0.75" stroke-linecap="round" stroke-linejoin="round"></path>
                <path d="M509.318,405.34 C513.608,404.9 517.468,404.72 517.468,404.72" id="Shape" stroke="#F4A789" stroke-width="0.75" stroke-linecap="round" stroke-linejoin="round"></path>
                <path d="M649.848,413.68 C649.786,414.065 649.699,414.446 649.588,414.82 C647.208,424.19 637.168,430.25 609.648,432.17 C607.248,432.343 604.872,432.497 602.518,432.63 C608.638,417.49 622.228,416.27 627.968,416.79 C645.638,418.39 638.968,405.86 638.058,390.36 C644.678,393.36 649.128,398.08 649.968,405.78 C650.038,406.42 650.088,407.06 650.138,407.67 C650.28,409.678 650.183,411.695 649.848,413.68 Z" id="Shape" fill="#4B84C8" fill-rule="nonzero"></path>
                <path d="M558.508,212.9 C557.852,217.75 556.682,222.517 555.018,227.12 C552.428,233.86 548.238,239.75 541.408,239.7 C540.687,239.691 539.968,239.624 539.258,239.5 L521.098,232.05 C521.098,232.05 521.178,231.7 521.358,231.05 C522.634,226.636 524.501,222.414 526.908,218.5 C527.118,218.17 527.348,217.84 527.568,217.5 C531.888,210.95 536.208,205.71 536.208,205.71 C536.208,205.71 536.458,199.44 541.578,198.52 C546.698,197.6 559.928,203.34 558.508,212.9 Z" id="Shape" fill="#FEBD9D" fill-rule="nonzero"></path>
                <path d="M555.018,227.12 C552.428,233.86 548.238,239.75 541.408,239.7 C540.173,238.912 539.136,237.85 538.375,236.598 C537.615,235.346 537.152,233.936 537.022,232.476 C536.892,231.017 537.098,229.547 537.625,228.18 C538.152,226.813 538.985,225.585 540.061,224.591 C541.137,223.596 542.427,222.862 543.831,222.444 C545.235,222.026 546.717,221.936 548.161,222.18 C549.606,222.424 550.975,222.997 552.164,223.853 C553.353,224.709 554.329,225.827 555.018,227.12 Z" id="Shape" fill="#F4A789" fill-rule="nonzero"></path>
                <path d="M528.238,222.97 C528.238,224.914 527.55,226.795 526.296,228.281 C525.043,229.767 523.304,230.762 521.388,231.09 C522.664,226.676 524.531,222.454 526.938,218.54 C527.789,219.861 528.24,221.399 528.238,222.97 Z" id="Shape" fill="#F4A789" fill-rule="nonzero"></path>
                <path d="M570.248,214.19 C569.428,216.53 566.638,223.74 565.098,227.71 C564.468,229.32 564.038,230.4 564.038,230.4 L559.618,228.79 L556.448,227.64 L555.328,227.24 C555.328,227.24 555.328,227.71 555.208,228.53 C554.889,231.575 554.303,234.587 553.458,237.53 C552.458,241.193 550.823,244.652 548.628,247.75 C542.628,255.75 527.048,254.93 519.858,248.75 C514.858,244.41 515.858,236.47 520.208,228.21 C522.271,224.395 524.749,220.82 527.598,217.55 C527.598,217.55 524.088,225.78 523.518,227.55 C522.828,229.76 525.418,229.55 526.418,227.67 C527.418,225.79 529.348,224.49 534.948,225.99 C540.548,227.49 542.828,230.39 541.788,234.44 C541.178,236.83 545.618,237.66 548.888,234.51 C549.168,234.242 549.429,233.955 549.668,233.65 C550.117,233.095 550.503,232.491 550.818,231.85 C553.818,225.74 555.568,216.39 555.738,212.71 C552.388,212.92 549.498,210.37 551.398,207.2 C547.468,208.85 544.548,206.03 545.218,202.27 C543.518,204.94 539.698,204.77 539.218,201.61 L536.218,205.71 C535.64,204.157 535.368,202.507 535.418,200.85 C535.638,195.85 539.888,194.03 543.248,195.18 C543.768,191.57 552.248,190.85 552.868,196.01 C554.688,192.65 560.718,193.34 560.868,198.53 C561.652,198.104 562.552,197.94 563.435,198.062 C564.319,198.185 565.14,198.586 565.78,199.208 C566.419,199.831 566.842,200.641 566.987,201.521 C567.133,202.402 566.993,203.305 566.588,204.1 C569.338,203.5 571.098,207.1 568.728,209.68 C568.758,209.73 571.418,210.9 570.248,214.19 Z" id="Shape" fill="#BF8228" fill-rule="nonzero"></path>
                <path d="M541.098,218.34 C541.098,218.605 541.177,218.864 541.324,219.085 C541.471,219.305 541.681,219.477 541.925,219.578 C542.17,219.68 542.44,219.706 542.7,219.654 C542.96,219.603 543.198,219.475 543.386,219.288 C543.573,219.1 543.701,218.861 543.752,218.602 C543.804,218.342 543.778,218.072 543.676,217.827 C543.575,217.582 543.403,217.373 543.183,217.226 C542.962,217.079 542.703,217 542.438,217 C542.083,217 541.742,217.141 541.491,217.393 C541.239,217.644 541.098,217.985 541.098,218.34 Z" id="Shape" fill="#683F1D" fill-rule="nonzero"></path>
                <path d="M532.528,215.47 C532.526,215.736 532.603,215.996 532.75,216.218 C532.896,216.44 533.105,216.614 533.351,216.716 C533.596,216.819 533.866,216.846 534.127,216.795 C534.388,216.743 534.628,216.616 534.816,216.428 C535.004,216.24 535.131,216 535.183,215.739 C535.234,215.478 535.207,215.208 535.104,214.963 C535.002,214.717 534.828,214.508 534.606,214.362 C534.384,214.215 534.124,214.138 533.858,214.14 C533.506,214.143 533.169,214.284 532.921,214.533 C532.672,214.781 532.531,215.118 532.528,215.47 Z" id="Shape" fill="#683F1D" fill-rule="nonzero"></path>
                <path d="M543.798,211.28 C543.108,213.67 550.118,216.03 550.418,214.57 C550.638,213.52 544.818,207.74 543.798,211.28 Z" id="Shape" fill="#BF8228" fill-rule="nonzero"></path>
                <path d="M533.858,208.11 C533.448,209.39 539.338,211.6 540.028,209.45 C540.848,206.89 534.218,207.01 533.858,208.11 Z" id="Shape" fill="#BF8228" fill-rule="nonzero"></path>
                <path d="M559.618,228.79 L555.328,227.24 C555.059,230.735 554.433,234.193 553.458,237.56 C552.068,237.77 550.458,237.04 548.888,234.56 C549.681,233.792 550.334,232.892 550.818,231.9 C553.818,225.79 555.568,216.44 555.738,212.76 C552.388,212.97 549.498,210.42 551.398,207.25 C547.468,208.9 544.548,206.08 545.218,202.32 C543.518,204.99 539.698,204.82 539.218,201.66 L536.218,205.76 C535.64,204.207 535.368,202.557 535.418,200.9 C537.038,199.25 539.258,198.11 541.118,198.68 C541.118,198.68 546.008,199.86 547.728,197.52 C546.778,201.28 550.618,204.86 555.148,203.32 C555.148,203.32 556.728,210.15 562.258,210.14 C562.258,210.14 561.658,216.25 564.818,216.81 C567.208,217.22 562.378,224.11 559.618,228.79 Z" id="Shape" fill="#BF8228" fill-rule="nonzero"></path>
                <path d="M555.208,228.53 C554.889,231.575 554.303,234.587 553.458,237.53 C552.458,241.193 550.823,244.652 548.628,247.75 C542.628,255.75 527.048,254.93 519.858,248.75 C514.858,244.41 515.858,236.47 520.208,228.21 C520.828,242.5 534.408,250.69 548.888,234.56 L549.668,233.7 C551.367,231.825 553.22,230.095 555.208,228.53 Z" id="Shape" fill="#BF8228" fill-rule="nonzero"></path>
                <path d="M565.098,227.71 C564.468,229.32 564.038,230.4 564.038,230.4 L559.618,228.79 L556.448,227.64 C561.348,224.39 563.838,225.79 565.098,227.71 Z" id="Shape" fill="#BF8228" fill-rule="nonzero"></path>
                <path d="M553.638,236.89 C554.51,233.735 555.076,230.504 555.328,227.24 C558.088,224.74 562.928,224.82 565.138,227.6 C565.744,228.372 566.128,229.296 566.248,230.27 C567.098,236.34 562.028,242.73 553.638,236.89 Z" id="Shape" fill="#FEBD9D" fill-rule="nonzero"></path>
                <path d="M559.988,239.19 C557.681,239.115 555.458,238.31 553.638,236.89" id="Shape" stroke="#F4A789" stroke-width="0.75" stroke-linecap="round" stroke-linejoin="round"></path>
                <path d="M530.288,221.53 C530.728,218.99 532.138,218.99 534.798,218.53 C537.458,218.07 539.518,215.7 539.228,213.3" id="Shape" stroke="#F4A789" stroke-width="0.75" stroke-linecap="round" stroke-linejoin="round"></path>
                <path d="M557.148,231.34 C557.578,230.863 558.115,230.494 558.715,230.264 C559.314,230.034 559.96,229.949 560.599,230.016 C561.238,230.083 561.852,230.301 562.39,230.651 C562.929,231.001 563.377,231.474 563.698,232.03" id="Shape" stroke="#F4A789" stroke-width="0.75" stroke-linecap="round" stroke-linejoin="round"></path>
                <path d="M558.418,230.44 C562.958,230.01 562.268,236.83 557.878,235.57" id="Shape" stroke="#F4A789" stroke-width="0.75" stroke-linecap="round" stroke-linejoin="round"></path>
                <path d="M517.468,245.56 C521.748,242.69 527.468,244.14 532.078,248.26 C538.208,253.74 548.228,248.26 548.228,248.26" id="Shape" stroke="#7F542D" stroke-width="0.75" stroke-linecap="round" stroke-linejoin="round"></path>
                <path d="M552.768,239.7 C550.268,241.7 540.768,247.21 533.928,242.12 C527.088,237.03 516.768,243.41 516.768,243.41" id="Shape" stroke="#7F542D" stroke-width="0.75" stroke-linecap="round" stroke-linejoin="round"></path>
                <path d="M516.958,236.68 C519.168,234.68 527.218,230.41 532.458,236.11 C537.698,241.81 544.528,236.6 544.528,236.6" id="Shape" stroke="#7F542D" stroke-width="0.75" stroke-linecap="round" stroke-linejoin="round"></path>
                <path d="M526.098,228.21 C527.368,229.6 536.448,232.79 541.728,230.86" id="Shape" stroke="#7F542D" stroke-width="0.75" stroke-linecap="round" stroke-linejoin="round"></path>
                <path d="M539.198,201.66 C538.638,198.79 541.198,195.42 543.268,195.23" id="Shape" stroke="#7F542D" stroke-width="0.75" stroke-linecap="round" stroke-linejoin="round"></path>
                <path d="M545.218,202.34 C545.628,200.06 548.348,194.59 552.218,194.34" id="Shape" stroke="#7F542D" stroke-width="0.75" stroke-linecap="round" stroke-linejoin="round"></path>
                <path d="M551.398,207.25 C552.398,202.81 555.328,198.03 559.988,196.06" id="Shape" stroke="#7F542D" stroke-width="0.75" stroke-linecap="round" stroke-linejoin="round"></path>
                <path d="M555.738,212.76 C556.358,207.91 563.068,203.9 566.618,204.15" id="Shape" stroke="#7F542D" stroke-width="0.75" stroke-linecap="round" stroke-linejoin="round"></path>
                <path d="M554.678,219.9 C559.028,216.16 566.568,212.85 570.548,212.58" id="Shape" stroke="#7F542D" stroke-width="0.75" stroke-linecap="round" stroke-linejoin="round"></path>
                <path d="M530.788,229.44 C534.718,230.29 539.118,229.83 538.978,230.01 C538.838,230.19 538.158,236.01 533.858,235.4 C529.558,234.79 530.788,229.44 530.788,229.44 Z" id="Shape" stroke="#F4A789" stroke-width="0.75" fill="#FFFFFF" fill-rule="nonzero" stroke-linecap="round" stroke-linejoin="round"></path>
                <path d="M418.238,248.27 C420.938,240.74 424.498,233.1 426.158,234.11 C428.968,235.82 423.398,250.46 423.398,250.46 L418.238,248.27 Z" id="Shape" stroke="#914839" stroke-width="0.75" fill="#B25E47" fill-rule="nonzero"></path>
                <path d="M414.758,249.99 C414.758,249.52 416.418,227.99 419.558,228.48 C423.818,229.12 420.428,250.48 420.428,250.48 L414.758,249.99 Z" id="Shape" stroke="#914839" stroke-width="0.75" fill="#B25E47" fill-rule="nonzero"></path>
                <path d="M409.618,253.03 C409.498,231.46 409.918,225.91 412.538,225.9 C416.158,225.9 416.628,250.75 416.628,250.75 L409.618,253.03 Z" id="Shape" stroke="#914839" stroke-width="0.75" fill="#B25E47" fill-rule="nonzero"></path>
                <path d="M421.708,251.72 C421.078,261.91 420.778,267.32 420.778,267.32 C420.778,267.32 411.658,272.32 411.068,260.08 C410.478,247.84 421.708,251.72 421.708,251.72 Z" id="Shape" stroke="#914839" stroke-width="0.75" fill="#B25E47" fill-rule="nonzero"></path>
                <path d="M369.568,315.11 C357.518,332.98 342.798,357.82 354.688,365.79 C366.578,373.76 382.418,370.51 391.888,348.59 C401.358,326.67 413.038,288.51 415.378,284.75 C417.718,280.99 423.158,276.57 426.668,269.31 C430.178,262.05 431.858,261.65 430.668,259.58 C429.478,257.51 426.518,258.28 424.958,260.58 C423.398,262.88 419.248,267.33 416.908,266.03 C414.568,264.73 413.578,262.11 413.538,258.9 C413.498,255.69 415.408,252.24 419.078,253.36 C422.748,254.48 424.438,259.29 427.548,257.6 C430.658,255.91 424.048,249.43 421.708,247.35 C419.368,245.27 417.558,246.7 413.708,248 C409.858,249.3 408.648,249.43 406.708,254 C404.768,258.57 397.368,273.53 396.198,276.25 C395.028,278.97 380.858,298.34 369.568,315.11 Z" id="Shape" fill="#B25E47" fill-rule="nonzero"></path>
                <path d="M426.668,269.34 C430.168,262.07 431.858,261.68 430.668,259.61 C429.478,257.54 426.518,258.31 424.958,260.61 C423.398,262.91 419.248,267.36 416.908,266.06 C414.568,264.76 413.578,262.14 413.538,258.93 C413.498,255.72 415.408,252.27 419.078,253.39 C422.748,254.51 424.438,259.32 427.548,257.63 C430.658,255.94 424.048,249.46 421.708,247.38 C419.368,245.3 417.558,246.73 413.708,248.03 C409.858,249.33 408.648,249.46 406.708,254.03" id="Shape" stroke="#914839" stroke-width="0.75" stroke-linecap="round" stroke-linejoin="round"></path>
                <path d="M366.588,319.6 C364.518,322.78 362.438,326.1 360.488,329.45" id="Shape" stroke="#914839" stroke-width="0.75" stroke-linecap="round" stroke-linejoin="round"></path>
                <path d="M184.508,332.1 C181.208,337.23 188.008,341.1 194.148,345.1 C200.288,349.1 201.898,330.9 201.898,330.9 C201.898,330.9 186.328,329.27 184.508,332.1 Z" id="Shape" fill="#5EA800" fill-rule="nonzero"></path>
                <path d="M368.198,309.87 C370.278,311.43 367.198,316.62 361.288,322.39 L356.438,316.13 C356.438,316.13 363.348,308.08 368.198,309.87 Z" id="Shape" fill="#5EA800" fill-rule="nonzero"></path>
                <path d="M358.398,311.43 C372.238,326.08 388.298,345.36 379.768,360 C371.238,374.64 350.878,366.87 338.558,355.64 C338.558,355.64 328.528,336.34 358.398,311.43 Z" id="Shape" fill="#B25E47" fill-rule="nonzero"></path>
                <path d="M194.028,331.69 C188.708,343.5 173.318,369.88 189.628,380.76 C205.938,391.64 225.778,353.47 225.778,353.47 C225.778,353.47 219.718,330.65 194.028,331.69 Z" id="Shape" fill="#B25E47" fill-rule="nonzero"></path>
                <path d="M368.198,309.87 C357.036,318.137 348.289,329.241 342.868,342.03 C340.925,346.39 339.479,350.956 338.558,355.64 C335.358,353.32 327.798,347.64 327.798,347.64 C327.238,351.17 326.508,355.23 325.798,359.33 C323.608,371.1 321.088,383.1 321.088,383.1 L246.278,383.1 L245.018,378.1 L235.238,339.34 L225.778,353.45 C225.588,353.22 225.398,353 225.188,352.79 C214.188,340.9 184.508,332.08 184.508,332.08 C192.572,318.476 202.197,305.861 213.188,294.49 C216.406,291.205 219.787,288.085 223.318,285.14 C228.263,281.222 233.687,277.949 239.458,275.4 C246.02,272.419 252.821,269.994 259.788,268.15 C259.788,268.15 259.948,252.23 261.688,233.41 C262.458,224.92 279.688,223.26 283.688,237.7 C287.688,252.14 290.688,261.42 290.688,261.42 C294.99,260.785 299.343,260.554 303.688,260.73 C309.198,260.95 315.468,261.96 320.378,264.79 C323.018,266.32 328.288,270.89 334.378,276.56 C348.928,290.09 368.198,309.87 368.198,309.87 Z" id="Shape" fill="#72FE1D" fill-rule="nonzero"></path>
                <path d="M342.868,342.03 C340.925,346.39 339.479,350.956 338.558,355.64 C335.358,353.32 327.798,347.64 327.798,347.64 C330.037,336.682 331.143,325.524 331.098,314.34 C331.072,309.416 329.894,304.567 327.658,300.18 C334.598,304.09 340.358,308.35 336.988,317.63 C333.798,326.23 334.288,340.59 342.868,342.03 Z" id="Shape" fill="#5EA800" fill-rule="nonzero"></path>
                <path d="M270.298,381.06 L245.018,378.06 L235.238,339.34 C237.926,334.929 240.267,330.315 242.238,325.54 C252.338,337.54 231.058,351.54 264.168,358.84 C280.688,362.5 270.298,381.06 270.298,381.06 Z" id="Shape" fill="#5EA800" fill-rule="nonzero"></path>
                <path d="M334.408,276.58 C325.638,277.38 317.118,284.06 311.768,301.91 C302.128,334.08 266.888,330.3 254.768,308.04 C245.278,290.6 233.588,288.64 213.168,294.51 C216.386,291.225 219.767,288.105 223.298,285.16 C228.244,281.242 233.667,277.969 239.438,275.42 C246,272.439 252.801,270.014 259.768,268.17 C259.768,268.17 259.928,252.25 261.668,233.43 C262.438,224.94 279.668,223.28 283.668,237.72 C287.668,252.16 290.668,261.44 290.668,261.44 C294.971,260.805 299.323,260.574 303.668,260.75 C309.178,260.97 315.448,261.98 320.358,264.81 C323.038,266.34 328.308,270.91 334.408,276.58 Z" id="Shape" fill="#72FE1D" fill-rule="nonzero"></path>
                <path d="M303.708,260.75 C303.868,271.54 294.518,278.75 283.788,280.44 C273.058,282.13 255.258,280.87 239.458,275.44 C246.02,272.459 252.821,270.034 259.788,268.19 C259.788,268.19 259.948,252.27 261.688,233.45 C262.458,224.96 279.688,223.3 283.688,237.74 C284.598,240.99 285.458,243.98 286.228,246.66 C287.878,252.31 289.168,256.6 289.928,259.06 C290.408,260.62 290.678,261.46 290.678,261.46 C294.99,260.816 299.352,260.578 303.708,260.75 Z" id="Shape" fill="#B25E47" fill-rule="nonzero"></path>
                <path d="M289.948,259.04 C280.468,259.8 274.948,254.18 275.018,246.67 C275.018,246.67 281.658,246.67 286.248,246.67 C287.898,252.34 289.188,256.58 289.948,259.04 Z" id="Shape" fill="#914839" fill-rule="nonzero"></path>
                <path d="M329.508,502.42 L227.098,502.42 C227.098,502.42 222.948,451.56 229.178,424.51 C231.696,413.641 235.039,402.98 239.178,392.62 C240.983,387.978 243.019,383.429 245.278,378.99 L321.098,383.11 C321.858,386.17 322.548,389.35 323.188,392.62 C332.098,438.68 329.508,502.42 329.508,502.42 Z" id="Shape" fill="#67A8EF" fill-rule="nonzero"></path>
                <g id="Clipped" transform="translate(225.000000, 378.000000)">
                    <mask id="mask-2" fill="white">
                        <use xlink:href="#path-1"></use>
                    </mask>
                    <g id="Shape"></g>
                    <g id="Group" mask="url(#mask-2)" stroke="#FFFFFF">
                        <g transform="translate(-3.000000, 9.000000)" id="Shape">
                            <path d="M29.877,52.256 C33.425,48.383 33.161,42.367 29.288,38.819 C25.415,35.272 19.4,35.535 15.852,39.408 C12.304,43.281 12.568,49.297 16.441,52.845 C20.314,56.392 26.329,56.129 29.877,52.256 Z"></path>
                            <path d="M39.105,117.075 C42.819,113.361 42.819,107.339 39.105,103.626 C35.391,99.912 29.37,99.912 25.656,103.626 C21.942,107.339 21.942,113.361 25.656,117.075 C29.37,120.789 35.391,120.789 39.105,117.075 Z"></path>
                            <path d="M78.325,54.359 C82.039,50.645 82.039,44.624 78.325,40.91 C74.611,37.196 68.59,37.196 64.876,40.91 C61.162,44.624 61.162,50.645 64.876,54.359 C68.59,58.073 74.611,58.073 78.325,54.359 Z"></path>
                            <path d="M81.73,122.344 C86.843,121.142 90.013,116.023 88.811,110.91 C87.609,105.798 82.49,102.627 77.377,103.829 C72.264,105.031 69.094,110.15 70.296,115.263 C71.498,120.376 76.617,123.546 81.73,122.344 Z"></path>
                            <path d="M68.8,19.429 C73.91,18.217 77.071,13.091 75.859,7.981 C74.647,2.87 69.522,-0.29 64.411,0.922 C59.301,2.134 56.14,7.259 57.352,12.369 C58.564,17.48 63.689,20.64 68.8,19.429 Z"></path>
                            <path d="M52.988,84.21 C56.191,84.21 58.788,81.613 58.788,78.41 C58.788,75.207 56.191,72.61 52.988,72.61 C49.785,72.61 47.188,75.207 47.188,78.41 C47.188,81.613 49.785,84.21 52.988,84.21 Z"></path>
                            <path d="M106.938,69.64 C110.141,69.64 112.738,67.043 112.738,63.84 C112.738,60.637 110.141,58.04 106.938,58.04 C103.735,58.04 101.138,60.637 101.138,63.84 C101.138,67.043 103.735,69.64 106.938,69.64 Z"></path>
                            <path d="M108.398,22.86 C108.398,24.007 108.058,25.129 107.421,26.082 C106.783,27.036 105.877,27.78 104.818,28.219 C103.758,28.657 102.592,28.772 101.467,28.549 C100.341,28.325 99.308,27.772 98.497,26.961 C97.686,26.15 97.133,25.117 96.91,23.992 C96.686,22.866 96.801,21.7 97.24,20.64 C97.679,19.581 98.422,18.675 99.376,18.037 C100.33,17.4 101.451,17.06 102.598,17.06 C104.136,17.06 105.612,17.671 106.699,18.759 C107.787,19.847 108.398,21.322 108.398,22.86 Z"></path>
                            <path d="M12.098,81.45 C12.098,82.597 11.758,83.718 11.121,84.672 C10.483,85.626 9.577,86.369 8.518,86.808 C7.458,87.247 6.292,87.362 5.167,87.139 C4.041,86.915 3.008,86.362 2.197,85.551 C1.386,84.74 0.833,83.707 0.609,82.581 C0.386,81.456 0.501,80.29 0.94,79.23 C1.379,78.171 2.122,77.265 3.076,76.627 C4.03,75.99 5.151,75.65 6.298,75.65 C7.836,75.653 9.309,76.265 10.396,77.352 C11.483,78.439 12.095,79.913 12.098,81.45 Z"></path>
                            <path d="M32.378,22.86 C35.581,22.86 38.178,20.263 38.178,17.06 C38.178,13.857 35.581,11.26 32.378,11.26 C29.175,11.26 26.578,13.857 26.578,17.06 C26.578,20.263 29.175,22.86 32.378,22.86 Z"></path>
                        </g>
                    </g>
                </g>
                <path d="M258.098,268.61 C258.098,268.61 270.618,290.23 285.878,299.48 C285.878,299.48 294.358,287.08 292.968,261.14" id="Shape" stroke="#683F1D"></path>
                <path d="M281.738,300.14 C281.738,301.008 281.996,301.857 282.478,302.579 C282.96,303.301 283.646,303.864 284.448,304.196 C285.25,304.528 286.133,304.615 286.985,304.446 C287.836,304.276 288.618,303.858 289.232,303.244 C289.846,302.63 290.265,301.848 290.434,300.996 C290.603,300.145 290.516,299.262 290.184,298.46 C289.852,297.658 289.289,296.972 288.567,296.49 C287.845,296.007 286.997,295.75 286.128,295.75 C284.964,295.75 283.847,296.213 283.024,297.036 C282.201,297.859 281.738,298.976 281.738,300.14 Z" id="Shape" fill="#FFFFFF" fill-rule="nonzero"></path>
                <path d="M327.798,347.65 C330.038,336.689 331.143,325.527 331.098,314.34 C331.072,309.416 329.894,304.567 327.658,300.18 C325.798,296.18 323.788,292.51 323.368,287.58" id="Shape" stroke="#5EA800" stroke-width="0.75" stroke-linecap="round" stroke-linejoin="round"></path>
                <path d="M243.518,322.47 C243.518,322.47 243.048,323.69 242.248,325.56 C240.277,330.335 237.936,334.949 235.248,339.36" id="Shape" stroke="#5EA800" stroke-width="0.75" stroke-linecap="round" stroke-linejoin="round"></path>
                <path d="M323.098,392.62 L239.098,392.62 C240.903,387.978 242.939,383.429 245.198,378.99 L321.098,383.11 C321.808,386.17 322.498,389.34 323.098,392.62 Z" id="Shape" fill="#4B84C8" fill-rule="nonzero"></path>
                <path d="M289.728,392.62 L289.728,415.49" id="Shape" stroke="#4B84C8" stroke-width="0.75" stroke-linecap="round" stroke-linejoin="round"></path>
                <path d="M291.488,417.03 C293.868,415.72 295.238,415.1 295.488,413.66 C295.738,412.22 296.928,396.34 296.928,396.34" id="Shape" stroke="#4B84C8" stroke-width="0.75" stroke-linecap="round" stroke-linejoin="round"></path>
                <path d="M288.598,502.42 C288.598,502.42 289.198,438.65 289.698,435.75 C289.695,435.72 289.695,435.69 289.698,435.66 C290.208,434.71 291.238,433.3 296.898,429.99" id="Shape" stroke="#4B84C8" stroke-width="0.75" stroke-linecap="round" stroke-linejoin="round"></path>
                <path d="M164.598,271.19 C169.658,269.25 175.168,269.64 182.208,273 C190.448,276.94 197.588,287.07 194.108,301 C193.538,303.25 184.778,307.93 183.328,306.9 C181.878,305.87 193.358,277.34 164.598,271.19 Z" id="Shape" fill="#FFFFFF" fill-rule="nonzero"></path>
                <path d="M255.448,233.72 C250.968,233.29 248.148,235.13 246.058,238.94 C243.968,242.75 241.328,246.55 241.328,246.55 C241.328,246.55 246.768,248.77 252.078,242.74 C257.018,237.12 255.448,233.72 255.448,233.72 Z" id="Shape" fill="#72FE1D" fill-rule="nonzero"></path>
                <path d="M258.718,235.46 C253.658,236.81 251.288,238.85 250.378,244.98 C249.468,251.11 249.788,253.92 249.138,256.23 C249.138,256.23 255.618,254.73 258.718,248.91 C261.668,243.34 260.918,239.77 258.718,235.46 Z" id="Shape" fill="#72FE1D" fill-rule="nonzero"></path>
                <path d="M265.098,202.74 C265.098,202.74 260.218,213.34 260.098,222.23 C260.023,224.241 260.321,226.248 260.978,228.15 L255.568,228.78 C250.938,233.23 242.568,231.7 245.568,226.02 C240.568,229.14 234.018,224.87 237.268,220.36 C233.378,221.28 231.398,214.99 236.408,213.36 C232.238,212.91 231.408,205.47 237.058,205.04 C236.565,204.529 236.227,203.888 236.082,203.193 C235.937,202.497 235.992,201.775 236.24,201.11 C236.487,200.444 236.918,199.862 237.482,199.43 C238.046,198.998 238.721,198.735 239.428,198.67 C240.017,198.653 240.603,198.77 241.14,199.012 C241.677,199.255 242.152,199.617 242.528,200.07 C240.108,191.35 250.338,188.57 253.478,193.15 C254.028,189.46 260.948,189.08 261.978,193.84 C267.198,190.96 270.598,197.96 265.098,202.74 Z" id="Shape" fill="#683F1D" fill-rule="nonzero"></path>
                <path d="M261.018,228.15 L255.608,228.78 C250.978,233.23 242.608,231.7 245.608,226.02 C240.608,229.14 234.058,224.87 237.308,220.36 C233.418,221.28 231.438,214.99 236.448,213.36 C232.278,212.91 231.448,205.47 237.098,205.04 C236.605,204.529 236.267,203.888 236.122,203.193 C235.977,202.497 236.032,201.775 236.28,201.11 C236.527,200.444 236.958,199.862 237.522,199.43 C238.086,198.998 238.761,198.735 239.468,198.67 C239.108,201.75 240.468,206.11 243.468,206.41 C239.368,207.92 239.398,212.78 243.468,214.49 C240.918,217.32 244.738,221.3 247.928,219.06 C247.808,222.18 252.498,227.26 260.078,222.18 C260.016,224.211 260.334,226.236 261.018,228.15 Z" id="Shape" fill="#683F1D" fill-rule="nonzero"></path>
                <path d="M290.908,251.69 C276.378,253.69 263.698,237.33 263.698,237.33 C257.068,239.65 251.928,234.5 253.998,229.33 C254.372,228.37 255.006,227.532 255.828,226.91 C256.493,226.412 257.262,226.07 258.078,225.91 C258.704,225.792 259.345,225.768 259.978,225.84 C261.193,225.979 262.353,226.423 263.349,227.131 C264.346,227.839 265.147,228.789 265.678,229.89 C266.138,230.69 269.228,230.55 267.848,227.03 C266.638,223.97 265.318,224.2 265.318,224.2 C267.318,223.57 265.728,219.09 263.318,219.73 C265.318,218.87 266.018,215.08 263.778,213.73 C266.188,213.6 268.828,212.64 267.848,208.97 C268.291,209.506 268.881,209.901 269.544,210.109 C270.208,210.316 270.918,210.326 271.587,210.137 C272.257,209.949 272.857,209.57 273.315,209.047 C273.773,208.523 274.07,207.878 274.168,207.19 C274.613,207.624 275.174,207.92 275.784,208.041 C276.393,208.162 277.025,208.104 277.602,207.873 C278.179,207.642 278.677,207.249 279.035,206.741 C279.393,206.232 279.595,205.631 279.618,205.01 C279.918,206.36 281.498,206.76 282.748,206.01 C285.569,209.09 288.081,212.44 290.248,216.01 L290.328,216.14 C291.548,218.04 292.698,219.96 293.738,221.87 C301.628,236.34 303.698,249.92 290.908,251.69 Z" id="Shape" fill="#B25E47" fill-rule="nonzero"></path>
                <path d="M273.348,224.39 C272.818,226.18 269.568,226.79 266.098,225.76 C262.628,224.73 260.228,222.44 260.758,220.65 C261.288,218.86 264.538,218.26 268.008,219.29 C271.478,220.32 273.878,222.61 273.348,224.39 Z" id="Shape" fill="#914839" fill-rule="nonzero"></path>
                <path d="M293.798,221.94 C292.368,222.94 290.958,223.26 290.038,222.62 C288.648,221.68 288.848,218.94 290.388,216.21 C291.608,218.11 292.758,220.03 293.798,221.94 Z" id="Shape" fill="#914839" fill-rule="nonzero"></path>
                <path d="M259.988,225.9 C259.355,225.828 258.714,225.852 258.088,225.97 C257.272,226.13 256.503,226.472 255.838,226.97 C251.218,213.39 263.398,206.48 263.398,206.48 C258.758,213.23 259.478,222.34 259.988,225.9 Z" id="Shape" fill="#FFFFFF" fill-rule="nonzero"></path>
                <path d="M283.738,215.87 C283.736,216.135 283.813,216.394 283.958,216.615 C284.103,216.836 284.31,217.01 284.554,217.113 C284.797,217.217 285.066,217.246 285.326,217.197 C285.586,217.148 285.826,217.023 286.015,216.838 C286.204,216.653 286.334,216.416 286.389,216.157 C286.444,215.898 286.421,215.629 286.323,215.383 C286.225,215.138 286.056,214.926 285.838,214.776 C285.62,214.626 285.363,214.544 285.098,214.54 C284.921,214.536 284.745,214.567 284.58,214.633 C284.415,214.698 284.265,214.795 284.138,214.919 C284.011,215.043 283.911,215.191 283.842,215.354 C283.773,215.517 283.738,215.693 283.738,215.87 Z" id="Shape" fill="#683F1D" fill-rule="nonzero"></path>
                <path d="M275.018,218.7 C275.018,218.965 275.097,219.224 275.244,219.444 C275.391,219.665 275.6,219.837 275.845,219.938 C276.09,220.039 276.36,220.066 276.619,220.014 C276.879,219.963 277.118,219.835 277.306,219.648 C277.493,219.46 277.621,219.221 277.672,218.961 C277.724,218.701 277.697,218.432 277.596,218.187 C277.495,217.942 277.323,217.733 277.103,217.586 C276.882,217.439 276.623,217.36 276.358,217.36 C276.182,217.36 276.008,217.395 275.845,217.462 C275.683,217.529 275.535,217.628 275.411,217.752 C275.286,217.877 275.187,218.025 275.12,218.187 C275.053,218.35 275.018,218.524 275.018,218.7 Z" id="Shape" fill="#683F1D" fill-rule="nonzero"></path>
                <path d="M283.938,204.74 C283.692,205.274 283.3,205.728 282.808,206.05 C281.558,206.84 279.978,206.44 279.678,205.05 C279.655,205.671 279.453,206.272 279.095,206.781 C278.737,207.289 278.24,207.682 277.662,207.913 C277.085,208.144 276.454,208.202 275.844,208.081 C275.234,207.96 274.673,207.664 274.228,207.23 C274.13,207.918 273.833,208.563 273.375,209.087 C272.917,209.61 272.317,209.989 271.648,210.177 C270.978,210.366 270.268,210.356 269.605,210.149 C268.941,209.941 268.351,209.546 267.908,209.01 C268.908,212.68 266.248,213.64 263.838,213.77 C266.078,215.1 265.328,218.89 263.378,219.77 C265.738,219.13 267.378,223.61 265.378,224.24 C265.378,224.24 266.698,224.01 267.908,227.07 C269.288,230.59 266.198,230.73 265.738,229.93 C265.077,228.529 263.978,227.381 262.607,226.66 C261.236,225.938 259.667,225.682 258.138,225.93 C257.479,223.173 257.347,220.316 257.748,217.51 C258.373,213.288 260.373,209.39 263.438,206.42 C261.278,203 265.348,198.53 268.748,201.11 C268.308,198 273.668,196.03 275.698,199.75 C276.868,196.41 281.838,198.45 281.278,200.92 C282.898,200.04 285.098,202.34 283.938,204.74 Z" id="Shape" fill="#683F1D" fill-rule="nonzero"></path>
                <path d="M278.968,214.54 C282.258,221.59 287.248,217.73 288.508,223.05" id="Shape" stroke="#914839" stroke-width="0.75" stroke-linecap="round" stroke-linejoin="round"></path>
                <path d="M276.188,226.34 C281.888,227.95 285.868,226.9 286.808,226.34 C286.808,226.34 287.368,231.4 282.268,230.99 C280.893,230.958 279.563,230.49 278.471,229.655 C277.378,228.819 276.579,227.659 276.188,226.34 Z" id="Shape" stroke="#914839" stroke-width="0.75" fill="#FFFFFF" fill-rule="nonzero" stroke-linecap="round" stroke-linejoin="round"></path>
                <path d="M256.988,232.13 C257.698,228.54 263.298,228.58 264.338,233.72" id="Shape" stroke="#914839" stroke-width="0.75" stroke-linecap="round" stroke-linejoin="round"></path>
                <path d="M261.498,235.46 C258.368,234.65 259.848,229.91 263.268,231.27" id="Shape" stroke="#914839" stroke-width="0.75" stroke-linecap="round" stroke-linejoin="round"></path>
                <path d="M270.338,215.52 C270.088,217.19 276.338,213.58 275.048,211.52 C273.758,209.46 270.568,213.9 270.338,215.52 Z" id="Shape" fill="#683F1D" fill-rule="nonzero"></path>
                <path d="M286.248,209.39 C287.548,210.47 280.478,211.98 280.098,209.61 C279.718,207.24 284.988,208.34 286.248,209.39 Z" id="Shape" fill="#683F1D" fill-rule="nonzero"></path>
                <path d="M225.278,354.47 C220.188,353.458 215.047,352.724 209.878,352.27" id="Shape" stroke="#914839" stroke-width="0.75" stroke-linecap="round" stroke-linejoin="round"></path>
                <path d="M209.878,352.27 C191.518,350.65 178.018,365.99 186.208,377.75 C196.568,392.62 262.888,388.82 269.698,388.65 C274.018,388.55 273.698,391.73 280.308,392.35 C284.308,392.74 290.428,392.76 291.718,392.11 C292.687,391.459 293.47,390.566 293.988,389.52 C293.988,389.52 297.768,391.03 299.278,386.71 C299.278,386.71 303.128,387.58 303.758,382.17 C303.758,382.17 306.088,385.07 308.238,384.01 C310.698,382.8 311.048,381.01 309.318,378.72 C307.588,376.43 300.468,368.34 298.098,367.49 C295.728,366.64 277.928,369.79 274.888,369.11 C259.618,365.7 238.718,354.81 209.878,352.27 Z" id="Shape" fill="#B25E47" fill-rule="nonzero"></path>
                <path d="M287.568,392.61 C288.969,392.661 290.369,392.493 291.718,392.11 C292.688,391.459 293.47,390.566 293.988,389.52 C293.988,389.52 297.768,391.03 299.278,386.71 C299.278,386.71 303.128,387.58 303.758,382.17 C303.758,382.17 306.088,385.07 308.238,384.01 C310.698,382.8 311.048,381.01 309.318,378.72 C307.588,376.43 300.468,368.34 298.098,367.49" id="Shape" stroke="#914839" stroke-width="0.75" stroke-linecap="round" stroke-linejoin="round"></path>
                <path d="M304.248,382.71 L298.828,376.77" id="Shape" stroke="#914839" stroke-width="0.75" stroke-linecap="round" stroke-linejoin="round"></path>
                <path d="M299.278,386.71 L293.598,383.11" id="Shape" stroke="#914839" stroke-width="0.75" stroke-linecap="round" stroke-linejoin="round"></path>
                <path d="M293.988,389.52 L290.108,388.33" id="Shape" stroke="#914839" stroke-width="0.75" stroke-linecap="round" stroke-linejoin="round"></path>
                <polygon id="Shape" fill="#FFFFFF" fill-rule="nonzero" points="193.188 177.7402 189.108 178.1602 184.288 178.6802 187.558 175.2602 190.578 172.1102"></polygon>
                <path d="M177.238,299.48 C189.898,307.48 201.428,298.64 204.608,282.54 C209.298,258.77 213.328,198.72 213.328,198.72 C213.328,198.72 219.758,184.8 221.808,179.77 C223.858,174.7402 223.528,170.2702 220.548,168.9802 C220.548,168.9802 217.548,159.6802 212.928,159.3902 C212.04,158.9159 211.113,158.5178 210.158,158.2002 C207.848,157.7302 203.598,159.8602 202.478,161.0402 C201.358,162.2202 205.078,163.4602 207.198,163.1102 C209.318,162.7602 210.868,168.1102 209.918,170.3702 C208.968,172.6302 204.918,177.1702 203.478,175.9902 C202.038,174.8102 201.588,170.7302 202.178,167.5402 C202.768,164.3502 202.358,162.7502 200.228,163.9902 C198.098,165.2302 193.968,175.5702 194.438,177.4602 C194.908,179.35 197.628,187.15 197.808,188.46 C197.988,189.77 177.208,258.16 173.108,270.03 C169.008,281.9 168.288,293.83 177.238,299.48 Z" id="Shape" fill="#FEBD9D" fill-rule="nonzero"></path>
                <path d="M220.548,168.9802 C220.791,170.5729 220.931,172.1795 220.968,173.7902" id="Shape" stroke="#F4A789" stroke-width="0.75" stroke-linecap="round" stroke-linejoin="round"></path>
                <path d="M215.098,166.3402 C215.697,168.5394 216.033,170.8019 216.098,173.0802" id="Shape" stroke="#F4A789" stroke-width="0.75" stroke-linecap="round" stroke-linejoin="round"></path>
                <path d="M190.578,172.1102 L197.368,168.2502 C195.808,171.4502 194.368,175.5202 194.368,177.1002 L193.158,177.7402 C192.618,177.5409 192.123,177.237 191.701,176.8459 C191.279,176.4548 190.938,175.9842 190.699,175.4611 C190.459,174.938 190.325,174.3727 190.304,173.7977 C190.283,173.2226 190.377,172.6492 190.578,172.1102 Z" id="Shape" fill="#683F1D" fill-rule="nonzero"></path>
                <polygon id="Shape" fill="#683F1D" fill-rule="nonzero" points="189.108 178.1602 184.288 178.6802 187.558 175.2602"></polygon>
                <path d="M194.438,177.4702 C193.968,175.5802 198.108,165.2302 200.228,164.0002 C201.798,163.0802 202.438,163.7002 202.428,165.3802 C202.41,166.1063 202.327,166.8293 202.178,167.5402 C201.98,168.6556 201.893,169.7877 201.918,170.9202 C201.918,171.0702 201.918,171.2202 201.918,171.3602 L201.918,171.7902 C201.918,172.0002 201.918,172.2102 201.988,172.4102 L202.078,173.0102 C202.172,174.1351 202.648,175.1938 203.428,176.0102 C204.908,177.2002 208.928,172.7002 209.868,170.4102 C210.065,169.8896 210.163,169.3368 210.158,168.7802" id="Shape" stroke="#F4A789" stroke-width="0.75" stroke-linecap="round" stroke-linejoin="round"></path>
                <path d="M206.298,163.1702 C204.178,163.1702 201.498,162.0702 202.468,161.0402 C203.598,159.8602 207.848,157.7302 210.158,158.2002 C211.113,158.5154 212.039,158.9102 212.928,159.3802" id="Shape" stroke="#F4A789" stroke-width="0.75" stroke-linecap="round" stroke-linejoin="round"></path>
                <path d="M218.508,164.3402 C219.3,165.8227 219.969,167.3679 220.508,168.9602 C222.448,169.8002 223.268,171.9602 223.028,174.8102" id="Shape" stroke="#F4A789" stroke-width="0.75" stroke-linecap="round" stroke-linejoin="round"></path>
                <path d="M222.808,162.1002 L218.508,164.3602 L210.208,168.7502 L202.098,173.0102 C201.8,171.1975 201.817,169.3471 202.148,167.5402 C202.296,166.8292 202.38,166.1063 202.398,165.3802 L206.268,163.1702 L212.928,159.3802 L219.458,155.6802 L222.808,162.1002 Z" id="Shape" fill="#683F1D" fill-rule="nonzero"></path>
                <path d="M218.248,155.6802 C217.878,157.3702 219.078,162.3102 222.188,163.3002 L224.188,162.0602 L220.338,154.5502 L218.248,155.6802 Z" id="Shape" fill="#FFFFFF" fill-rule="nonzero"></path>
                <path d="M223.838,157.3402 C224.998,159.4602 225.248,161.5402 224.408,162.0002 C223.568,162.4602 221.948,161.1202 220.798,159.0002 C219.648,156.8802 219.388,154.8002 220.228,154.3402 C221.068,153.8802 222.678,155.2202 223.838,157.3402 Z" id="Shape" fill="#683F1D" fill-rule="nonzero"></path>
                <path d="M194.438,177.4702 C193.968,175.5802 198.108,165.2302 200.228,164.0002 C201.798,163.0802 202.438,163.7002 202.428,165.3802 C202.41,166.1063 202.327,166.8293 202.178,167.5402 C201.98,168.6556 201.893,169.7877 201.918,170.9202 C201.918,171.0702 201.918,171.2202 201.918,171.3602 L201.918,171.7902 C201.918,172.0002 201.918,172.2102 201.988,172.4102 L202.078,173.0102 C202.172,174.1351 202.648,175.1938 203.428,176.0102 C204.908,177.2002 208.928,172.7002 209.868,170.4102 C210.065,169.8896 210.163,169.3368 210.158,168.7802" id="Shape" stroke="#F4A789" stroke-width="0.75" stroke-linecap="round" stroke-linejoin="round"></path>
                <path d="M81.518,280.97 C78.588,293.97 58.318,289.81 57.178,283.15 C56.038,276.49 57.878,274.84 59.438,262.64 C60.718,252.64 77.698,252.45 80.708,259.16 C81.1929,260.243 81.3054,261.456 81.028,262.61 C80.3956,266.016 80.3787,269.508 80.978,272.92 C81.408,276.12 81.988,278.84 81.518,280.97 Z" id="Shape" fill="#FEBD9D" fill-rule="nonzero"></path>
                <path d="M81.0278,262.61 C80.3955,266.016 80.3786,269.508 80.9779,272.92 C72.3179,270.42 70.8079,260.7 70.8079,260.7 L80.7079,259.16 C81.1928,260.243 81.3053,261.456 81.0278,262.61 Z" id="Shape" fill="#F4A789" fill-rule="nonzero"></path>
                <path d="M29.4978,372.99 L48.9978,380.47 C48.9978,380.47 46.2878,403.01 46.0778,402.68 C45.8678,402.35 13.2578,398.95 13.2578,398.95 L29.4978,372.99 Z" id="Shape" fill="#FEBD9D" fill-rule="nonzero"></path>
                <path d="M1.0979,386.11 C3.8179,395.94 10.6379,399.52 17.1679,399.3 C23.6979,399.08 32.7379,395.65 36.0979,385.34 C38.6679,377.45 33.0979,367.99 33.0979,367.99 L1.0979,386.11 Z" id="Shape" fill="#FFFFFF" fill-rule="nonzero"></path>
                <path d="M38.2179,502.42 C38.2179,502.42 40.7179,488.78 35.4279,466.21 C33.1664,457.395 32.1565,448.306 32.4279,439.21 C33.0379,425.29 37.3479,409.74 47.9579,388.59 L115.958,385.8 C118.998,395.26 121.758,403.954 124.238,411.88 C131.768,435.88 136.898,453.18 140.488,464.88 C145.268,480.44 153.348,502.43 153.348,502.43 L38.2179,502.42 Z" id="Shape" fill="#72FE1D" fill-rule="nonzero"></path>
                <path d="M124.278,411.89 C117.108,432.73 106.908,442.17 80.528,432.46 C56.808,423.74 48.108,417.46 32.468,439.22 C33.078,425.3 37.388,409.75 47.998,388.6 L115.998,385.81 C119.038,395.27 121.798,403.964 124.278,411.89 Z" id="Shape" fill="#72FE1D" fill-rule="nonzero"></path>
                <path d="M117.948,350.63 C114.198,365.18 117.668,380.98 119.188,384.44 C120.708,387.9 119.468,390.27 117.258,390.68 C115.048,391.09 49.8979,393.04 46.9779,392.62 C44.0579,392.2 43.1079,389.99 43.1079,387.5 C43.1079,385.01 37.9779,367.5 35.4779,360.5 C35.4779,360.5 35.2079,380.04 29.7979,385.86 C24.3879,391.68 11.7979,394.04 3.88793,389.75 C2.41286,388.817 1.36407,387.34 0.967931,385.64 C-2.03207,376.3 2.60793,354.97 5.82793,339.72 C7.10793,333.6 8.95793,325.95 11.3179,318.31 C16.0679,302.92 22.8979,287.54 31.3179,284.79 C50.0979,278.66 63.7679,281.05 73.7279,280.12 C76.8279,279.82 79.8279,279.46 82.7279,279.12 L82.8379,279.12 C98.6279,277.12 110.718,275.29 116.718,285.44 C117.646,287.05 118.378,288.766 118.898,290.55 C122.608,302.79 121.068,310.86 120.258,322.16 C120.258,322.61 120.208,323.06 120.178,323.52 C120.95,332.618 120.197,341.781 117.948,350.63 Z" id="Shape" fill="#67A8EF" fill-rule="nonzero"></path>
                <path d="M35.478,360.46 C35.478,360.46 35.208,380 29.798,385.82 C24.388,391.64 11.798,394 3.88802,389.71 C2.41295,388.777 1.36416,387.3 0.968018,385.6 C26.438,393.17 34.918,366.07 28.128,361.07 C21.518,356.2 21.618,343.14 25.658,336.35 C28.348,344.14 33.408,354.06 35.478,360.46 Z" id="Shape" fill="#67A8EF" fill-rule="nonzero"></path>
                <path d="M116.708,285.34 C109.498,290.84 103.458,297.88 101.028,307.01 C99.3879,313.15 96.7279,317.94 93.1379,321.34 C83.4079,330.6 66.8279,329.62 45.3779,317.55 C30.5279,309.21 20.3779,310.98 11.3179,318.24 C16.0679,302.85 22.8979,287.47 31.3179,284.72 C50.0979,278.59 63.7679,280.98 73.7279,280.05 C76.8279,279.75 79.8279,279.39 82.7279,279.05 L82.8379,279.05 C98.6179,277.09 110.708,275.23 116.708,285.34 Z" id="Shape" fill="#67A8EF" fill-rule="nonzero"></path>
                <path d="M23.938,329.41 C24.2328,331.787 24.8102,334.12 25.658,336.36 C28.348,344.14 33.408,354.06 35.478,360.46" id="Shape" stroke="#4B84C8" stroke-width="0.75" stroke-linecap="round" stroke-linejoin="round"></path>
                <path d="M188.638,303.04 C184.508,305.79 161.158,312.31 142.768,317.59 C135.404,319.736 127.87,321.245 120.248,322.1 C113.523,322.879 106.737,323.003 99.988,322.47 C97.665,322.277 95.3611,321.899 93.098,321.34 C64.408,314.4 68.978,281.53 82.678,279.03 L82.788,279.03 C102.335,275.586 122.048,273.166 141.848,271.78 C150.428,271.25 159.188,271.01 167.638,271.23 C200.498,272.12 192.768,300.34 188.638,303.04 Z" id="Shape" fill="#67A8EF" fill-rule="nonzero"></path>
                <path d="M188.638,303.04 C184.508,305.79 161.158,312.31 142.768,317.59 C135.405,319.736 127.87,321.245 120.248,322.1 C113.523,322.879 106.737,323.003 99.988,322.47" id="Shape" stroke="#4B84C8" stroke-width="0.75" stroke-linecap="round" stroke-linejoin="round"></path>
                <path d="M141.888,271.81 C134.338,274.94 124.788,279.2 116.708,285.38 C109.498,290.88 103.458,297.92 101.028,307.05 C99.388,313.19 96.728,317.98 93.138,321.38 C64.448,314.44 69.018,281.57 82.718,279.07 L82.828,279.07 C102.375,275.623 122.088,273.199 141.888,271.81 Z" id="Shape" fill="#67A8EF" fill-rule="nonzero"></path>
                <path d="M164.598,271.19 C169.658,269.25 175.168,269.64 182.208,273 C190.448,276.94 197.588,287.07 194.108,301 C193.538,303.25 184.778,307.93 183.328,306.9 C181.878,305.87 193.358,277.34 164.598,271.19 Z" id="Shape" fill="#FFFFFF" fill-rule="nonzero"></path>
                <path d="M62.0979,263.78 C79.4679,267.89 88.2379,266.12 90.4779,256.97 C92.7179,247.82 83.3879,233.91 83.3879,233.91 L84.1279,228.91 C82.0563,227.955 80.0337,226.897 78.0679,225.74 C77.1279,224.99 74.0679,217.24 71.2479,216.49 C68.4279,215.74 48.6579,225.92 54.5379,242.72 C60.4179,259.52 62.0979,263.78 62.0979,263.78 Z" id="Shape" fill="#FEBD9D" fill-rule="nonzero"></path>
                <path d="M78.9579,238.68 C78.3579,240.58 75.2279,241.3 71.9579,240.28 C68.6879,239.26 66.5379,236.88 67.1279,234.97 C67.7179,233.06 70.8579,232.34 74.1279,233.37 C77.3979,234.4 79.5579,236.77 78.9579,238.68 Z" id="Shape" fill="#F4A789" fill-rule="nonzero"></path>
                <path d="M83.3581,233.91 L84.0981,228.91 C82.0264,227.955 80.0039,226.897 78.0381,225.74" id="Shape" stroke="#F4A789" stroke-width="0.75" stroke-linecap="round" stroke-linejoin="round"></path>
                <path d="M69.148,298.92 C60.978,300.92 58.958,292.65 58.958,292.65 C52.368,299.48 44.578,297.52 42.778,293.91 C42.778,293.91 36.068,296.68 30.698,292.65 C23.318,287.12 28.128,278.89 28.128,278.89 C20.388,276.89 21.808,269.16 26.248,265.89 L26.908,265.43 C31.528,262.43 39.828,260.43 36.778,254.43 C33.598,248.04 30.988,239.24 39.198,234.32 C39.198,234.32 39.618,224.83 45.518,221.72 C51.418,218.61 51.808,217.38 51.938,215.62 C52.388,209.14 58.508,203.02 65.448,207.79 C65.668,207.94 65.898,208.1 66.118,208.27 C73.548,207.53 75.508,214.52 74.258,217.89 C76.918,226.61 70.578,233.15 72.378,236.2 C74.438,239.68 72.868,243.84 72.868,243.84 C69.798,238.97 66.018,237.43 63.418,241.6 C61.308,245 63.028,249.45 69.858,253.69 C77.168,258.23 73.708,264.06 72.108,268.45 C71.1744,271.02 70.8608,273.775 71.1927,276.489 C71.5246,279.203 72.4926,281.801 74.018,284.07 C77.548,289.1 77.318,296.96 69.148,298.92 Z" id="Shape" fill="#7F542D" fill-rule="nonzero"></path>
                <path d="M69.148,298.92 C60.978,300.92 58.958,292.65 58.958,292.65 C52.368,299.48 44.578,297.52 42.778,293.91 C42.778,293.91 36.068,296.68 30.698,292.65 C23.318,287.12 28.128,278.89 28.128,278.89 C20.388,276.89 21.808,269.16 26.248,265.89 L26.908,265.43 C30.018,274.16 35.678,278.88 41.448,277.52 C49.118,275.74 53.448,271.52 60.628,275.94 C67.808,280.36 69.958,259.74 59.438,256.63 C48.918,253.52 46.898,235.83 55.998,233.63 C62.808,232.03 68.928,218.26 65.448,207.7 C65.668,207.85 65.898,208.01 66.118,208.18 C73.548,207.44 75.508,214.43 74.258,217.8 C76.918,226.52 70.578,233.06 72.378,236.11 C74.438,239.59 72.868,243.75 72.868,243.75 C69.798,238.88 66.018,237.34 63.418,241.51 C61.308,244.91 63.028,249.36 69.858,253.6 C77.168,258.14 73.708,263.97 72.108,268.36 C71.1744,270.93 70.8608,273.685 71.1927,276.399 C71.5246,279.113 72.4926,281.711 74.018,283.98 C77.548,289.1 77.318,296.96 69.148,298.92 Z" id="Shape" fill="#683F1D" fill-rule="nonzero"></path>
                <path d="M75.7881,230.61 C75.7881,230.873 75.8661,231.13 76.0123,231.349 C76.1584,231.568 76.3661,231.738 76.6092,231.839 C76.8522,231.94 77.1196,231.966 77.3776,231.915 C77.6356,231.863 77.8726,231.737 78.0586,231.551 C78.2446,231.365 78.3713,231.128 78.4226,230.87 C78.4739,230.612 78.4476,230.344 78.3469,230.101 C78.2462,229.858 78.0758,229.65 77.857,229.504 C77.6383,229.358 77.3812,229.28 77.1181,229.28 C76.9431,229.279 76.7695,229.312 76.6076,229.379 C76.4456,229.445 76.2985,229.543 76.1747,229.667 C76.0509,229.79 75.953,229.938 75.8867,230.1 C75.8203,230.262 75.7868,230.435 75.7881,230.61 Z" id="Shape" fill="#683F1D" fill-rule="nonzero"></path>
                <path d="M28.0981,278.9 C31.8881,271.39 35.3381,271.61 38.5581,269.13 C41.7781,266.65 43.1881,261.49 42.5581,259.13" id="Shape" stroke="#BF8228" stroke-width="0.75" stroke-linecap="round" stroke-linejoin="round"></path>
                <path d="M42.7781,293.91 C41.755,292.249 41.2994,290.301 41.4797,288.358 C41.6601,286.416 42.4667,284.584 43.7781,283.14" id="Shape" stroke="#BF8228" stroke-width="0.75" stroke-linecap="round" stroke-linejoin="round"></path>
                <path d="M58.9581,292.65 C58.469,291.38 58.2527,290.021 58.3234,288.661 C58.394,287.302 58.75,285.973 59.3681,284.76" id="Shape" stroke="#BF8228" stroke-width="0.75" stroke-linecap="round" stroke-linejoin="round"></path>
                <path d="M52.7681,222.18 C57.2081,221.18 57.6381,218.01 58.9681,215.4 C60.2981,212.79 62.3581,208.75 66.1181,208.2" id="Shape" stroke="#BF8228" stroke-width="0.75" stroke-linecap="round" stroke-linejoin="round"></path>
                <path d="M74.258,217.82 C72.908,214.82 68.628,211.23 64.658,214.82" id="Shape" stroke="#BF8228" stroke-width="0.75" stroke-linecap="round" stroke-linejoin="round"></path>
                <path d="M66.548,247.16 C66.458,243.4 70.168,242.52 73.048,245.39" id="Shape" stroke="#F4A789" stroke-width="0.75" stroke-linecap="round" stroke-linejoin="round"></path>
                <path d="M71.538,248.79 C68.638,248.79 68.538,244.44 72.228,244.69" id="Shape" stroke="#F4A789" stroke-width="0.75" stroke-linecap="round" stroke-linejoin="round"></path>
                <path d="M80.5281,239.53 C81.0624,240.208 81.779,240.72 82.5937,241.005 C83.4085,241.29 84.2876,241.337 85.1281,241.14" id="Shape" stroke="#F4A789" stroke-width="0.75" stroke-linecap="round" stroke-linejoin="round"></path>
                <path d="M66.0981,250.79 C68.2981,252.56 72.2681,252.31 72.2681,252.31" id="Shape" stroke="#F4A789" stroke-width="0.75" stroke-linecap="round" stroke-linejoin="round"></path>
                <path d="M74.6381,254.43 C76.1956,254.43 77.4581,253.168 77.4581,251.61 C77.4581,250.053 76.1956,248.79 74.6381,248.79 C73.0807,248.79 71.8181,250.053 71.8181,251.61 C71.8181,253.168 73.0807,254.43 74.6381,254.43 Z" id="Shape" fill="#FFFFFF" fill-rule="nonzero"></path>
                <path d="M72.498,229.34 C73.878,230.24 77.198,223.86 74.598,222.11 C71.998,220.36 70.638,228.13 72.498,229.34 Z" id="Shape" fill="#7F542D" fill-rule="nonzero"></path>
                <path d="M632.508,497.35 L12.3382,497.35 C6.87615,497.35 2.44824,501.778 2.44824,507.24 L2.44824,508.79 C2.44824,514.252 6.87615,518.68 12.3382,518.68 L632.508,518.68 C637.97,518.68 642.398,514.252 642.398,508.79 L642.398,507.24 C642.398,501.778 637.97,497.35 632.508,497.35 Z" id="Shape" fill="#DDDDDD" fill-rule="nonzero"></path>
                <path d="M21.6282,518.68 C38.0282,510.84 62.3582,509.11 80.8982,518.68" id="Shape" stroke="#DDDDDD" stroke-width="0.75" stroke-linecap="round" stroke-linejoin="round"></path>
                <path d="M15.9683,497.34 C32.1383,506.34 42.8883,505.61 62.8383,505.34 C77.6983,505.15 95.5883,512.72 107.498,518.67" id="Shape" stroke="#DDDDDD" stroke-width="0.75" stroke-linecap="round" stroke-linejoin="round"></path>
                <path d="M92.7183,497.34 C104.448,510.53 112.588,512.18 116.528,508.78 C120.708,505.17 125.008,504.19 129.448,508 C134.588,512.42 141.738,503.47 145.758,497.34" id="Shape" stroke="#DDDDDD" stroke-width="0.75" stroke-linecap="round" stroke-linejoin="round"></path>
                <path d="M138.458,518.68 C143.198,514.31 151.648,508.91 164.808,508.01 C180.408,507.01 200.228,514.19 210.808,518.68" id="Shape" stroke="#DDDDDD" stroke-width="0.75" stroke-linecap="round" stroke-linejoin="round"></path>
                <path d="M190.328,497.34 C208.628,506.94 228.628,512.56 244.788,508 C260.558,503.57 298.218,509.09 311.918,497.34" id="Shape" stroke="#DDDDDD" stroke-width="0.75" stroke-linecap="round" stroke-linejoin="round"></path>
                <path d="M259.738,518.68 C271.458,512.01 289.738,507.93 303.958,518.68" id="Shape" stroke="#DDDDDD" stroke-width="0.75" stroke-linecap="round" stroke-linejoin="round"></path>
                <path d="M324.098,518.68 C345.888,501.74 389.388,498.68 425.718,507.92 C468.718,518.87 487.998,506.23 495.808,497.35" id="Shape" stroke="#DDDDDD" stroke-width="0.75" stroke-linecap="round" stroke-linejoin="round"></path>
                <path d="M363.278,518.68 C379.058,511.59 400.278,510.13 422.688,518.68" id="Shape" stroke="#DDDDDD" stroke-width="0.75" stroke-linecap="round" stroke-linejoin="round"></path>
                <path d="M500.828,518.68 C527.248,506.38 548.388,507.81 567.988,518.68" id="Shape" stroke="#DDDDDD" stroke-width="0.75" stroke-linecap="round" stroke-linejoin="round"></path>
                <path d="M538.098,497.34 C581.628,511.96 617.648,523.28 641.378,503.44" id="Shape" stroke="#DDDDDD" stroke-width="0.75" stroke-linecap="round" stroke-linejoin="round"></path>
                <path d="M572.818,497.34 C594.908,510.34 620.708,509.34 636.588,498.51" id="Shape" stroke="#DDDDDD" stroke-width="0.75" stroke-linecap="round" stroke-linejoin="round"></path>
            </g>
        </g>
    </g>
</svg>