<?xml version="1.0" encoding="UTF-8"?>
<svg width="435px" height="370px" viewBox="0 0 435 370" version="1.1" xmlns="http://www.w3.org/2000/svg" xmlns:xlink="http://www.w3.org/1999/xlink">
    <!-- Generator: Sketch 48.2 (47327) - http://www.bohemiancoding.com/sketch -->
    <title>Group 60</title>
    <desc>Created with Sketch.</desc>
    <defs>
        <circle id="path-1" cx="185" cy="185" r="185"></circle>
    </defs>
    <g id="Landing-page-CampusHires" stroke="none" stroke-width="1" fill="none" fill-rule="evenodd" transform="translate(-783.000000, -1618.000000)">
        <g id="Group-52" transform="translate(-1.000000, 1410.000000)">
            <g id="Group-60" transform="translate(788.000000, 208.000000)">
                <g id="Girl" transform="translate(61.000000, 0.000000)">
                    <mask id="mask-2" fill="white">
                        <use xlink:href="#path-1"></use>
                    </mask>
                    <use id="Mask" fill="#FFF300" xlink:href="#path-1"></use>
                    <g mask="url(#mask-2)" id="Shape">
                        <g transform="translate(-96.000000, 112.000000)">
                            <path d="M281.444534,170.396949 C277.589036,176.801842 273.416596,183.225644 268.999767,189.491875 C257.657298,205.637097 244.843402,220.741098 232.888687,231.539034 C192.325137,268.150669 178.809893,230.270914 182.614476,214.803872 C185.646432,202.408809 218.724284,156.543421 237.7612,131.092763 C242.52934,124.721905 246.40393,119.653203 248.717992,116.68459 C260.32267,101.859172 274.713642,94.1168276 294.048408,99.9494276 C311.578257,105.209734 301.218437,137.377904 281.444534,170.396949 Z" stroke="none" fill="#67A8EF" fill-rule="nonzero"></path>
                            <path d="M282.595476,171 C279.418565,168.218926 276.49996,165.155676 273.876381,161.844571 C263.7442,149.170854 257.344794,135.201929 239,131.368419 C243.743208,124.944493 247.597539,119.83357 249.899502,116.840229 C261.442237,101.891318 275.759229,94.0844817 294.9929,99.9656659 C312.570373,105.26979 302.264721,137.705913 282.595476,171 Z" stroke="none" fill="#67A8EF" fill-rule="nonzero"></path>
                            <path d="M475.891975,164.236702 C476.269926,161.12742 476.09779,156.728728 467.766651,152 L465,165.396503 C465,165.396503 475.238357,169.684293 475.891975,164.236702 Z" stroke="none" fill="#67A8EF" fill-rule="nonzero"></path>
                            <path d="M438,152.654743 C440.689245,139.655051 441.860549,138.45956 441.447589,132.127031 C441.033378,125.794503 440.275033,118.284365 450.495164,105.619308 C460.715295,92.9542512 466.747011,83.0518526 468.763006,84.0723629 C470.779001,85.091596 469.435005,94.2391491 465.574456,103.034185 C465.574456,103.034185 492.718432,87.2028645 498.422284,84.9868628 C504.127386,82.770861 500.438278,93.3591345 489.046843,99.0581546 C489.046843,99.0581546 506.970552,88.0113539 511.330407,88.9092498 C515.690262,89.8058683 507.642551,96.2610112 501.438142,100.395419 C501.438142,100.395419 513.208749,92.866122 515.518821,95.3465113 C517.827642,97.8269006 511.365446,103.086552 505.970689,106.411193 C505.970689,106.411193 513.002269,102.647183 514.174825,104.52855 C515.346129,106.411193 514.174825,108.468818 507.280898,112.900821 C500.386971,117.334102 485.341467,124.880003 473.778591,138.389312 L470.745214,171.63317 C470.745214,171.63317 443.636276,176.259313 438,152.654743 Z" stroke="none" fill="#FEBD9D" fill-rule="nonzero"></path>
                            <path d="M454,100.393425 C461.773808,90.3507899 466.480873,83.1892178 468.223715,84.0738222 C470.262726,85.0983712 468.903385,94.239711 464.998762,103.080619 C464.998762,103.080619 492.452633,87.1680117 498.221604,84.940452 C503.990575,82.7116085 500.260615,93.3563906 488.739127,99.0851347 C488.739127,99.0851347 506.867466,87.9807178 511.277096,88.8832968 C515.686726,89.7845918 507.547136,96.2734024 501.271893,100.429374 C501.271893,100.429374 513.176882,92.8608067 515.513328,95.3541328 C517.848508,97.8474589 511.312535,103.134543 505.856187,106.47524 C505.856187,106.47524 512.968045,102.691599 514.152722,104.584061 C515.338664,106.47524 514.152722,108.544881 507.181355,113" stroke="#F4A789" stroke-width="1.03288" fill="none" stroke-linecap="round" stroke-linejoin="round"></path>
                            <path d="M414.409166,277.033307 C427.460053,290.172413 452.387756,282.187713 461.23463,247.332356 C470.081503,212.478268 477,165.218337 477,165.218337 C462.478662,162.031561 448.9266,155.443613 437.463189,146 C424.692145,180.540739 397.434108,259.981775 414.409166,277.033307 Z" stroke="none" fill="#67A8EF" fill-rule="nonzero"></path>
                            <path d="M437,146 C428.680714,168.967094 413.996372,211.821292 410,243" stroke="#4B84C8" stroke-width="1.03288" fill="none" stroke-linecap="round" stroke-linejoin="round"></path>
                            <path d="M199.99936,249 C217.120415,249 231,236.911897 231,222.000622 C231,207.089348 217.120415,195 199.99936,195 C182.879585,195 169,207.089348 169,222.000622 C169,236.911897 182.879585,249 199.99936,249 Z" stroke="none" fill="#67A8EF" fill-rule="nonzero"></path>
                            <path d="M395.723045,114.425738 C394.591291,115.118806 393.425279,115.75359 392.228817,116.327557 C373.200876,125.454012 363.030311,122.802107 361.125867,113.815027 C359.221424,104.829213 339.301529,111.616721 338.131711,95.7204972 C336.960624,79.8242738 344.020133,74.6763098 342.691717,66.5634836 C342.691717,66.5634836 343.617929,64.4690744 345.050385,62.0084921 C348.021875,56.7743697 353.228961,50.0552822 357.107631,56.9137436 C362.856487,67.0690306 366.420499,65.9869826 377.027526,67.1741945 C387.633284,68.3601395 392.507949,75.7064094 389.258595,81.0114858 C385.308873,87.4492915 387.406172,90.2418371 398.991431,91.3061466 C409.405602,92.2830308 410.995388,105.282812 395.723045,114.425738 Z" stroke="none" fill="#B25E47" fill-rule="nonzero"></path>
                            <path d="M396.999891,114.424461 C395.843102,115.117624 394.651298,115.752496 393.42837,116.327809 C373.979527,125.454253 363.583986,122.801983 361.637416,113.813666 C359.690846,104.826615 339.330319,111.615057 338.134624,95.7166455 C336.937633,79.818234 344.1533,74.6695614 342.795499,66.5556185 C342.795499,66.5556185 343.742199,64.460921 345.206341,62 C359.495022,66.2933061 363.548972,73.6051054 362.156156,79.9411533 C360.370395,88.0208816 367.639233,98.6134866 385.69526,97.165066 C394.768014,96.4148779 397.018047,105.385455 396.999891,114.424461 Z" stroke="none" fill="#B25E47" fill-rule="nonzero"></path>
                            <path d="M385.329951,342.05024 C378.530822,351.58291 369.36184,359.15118 358.740409,364 C358.740409,364 358.740409,361.361765 358.132172,357.009121 C356.099247,340.215277 347.461526,297.591095 310.966051,276.181926 L308.411961,275.709861 L308.203747,275.709861 L290.129521,272.42444 C290.129521,272.42444 285.402435,253.445391 281.978895,238.574071 C278.555354,223.701481 270.265918,210.418939 269.952966,194.725311 C269.952966,193.852244 269.952966,192.977908 269.952966,192.104842 C270.091775,181.916103 272.213033,172.163897 273.671792,163.740326 C274.325457,160.275977 274.767123,156.773558 274.993004,153.254643 C275.480098,142.472015 267.01652,130.360753 266.200069,122.84578 C265.382356,115.330808 266.200069,99.4455624 285.88953,101.12317 C289.104857,101.384583 292.05897,101.629498 294.787203,101.909945 C297.515435,102.189124 300.453144,102.486068 302.937829,102.800778 L305.544919,103.185283 C309.027769,103.659886 312.472763,104.390825 315.849613,105.369218 C318.560179,106.150918 321.172317,107.242251 323.63555,108.620377 C331.265011,112.901957 348.729738,107.431331 350.867401,106.733385 L351.076876,106.733385 C354.865107,106.48847 358.219243,106.225788 361.20869,105.94661 C364.196874,105.667432 366.699226,105.492311 368.941627,105.247395 C375.580494,104.565946 379.489868,103.972058 381.524054,103.727142 C382.722861,103.727142 384.442834,120.137751 386.302878,142.175071 C387.293471,154.145475 388.318136,167.812522 389.326396,181.374243 C391.394653,209.615666 393.306435,237.560146 394.435838,249.53055 C394.60998,251.470839 394.784123,253.026624 394.922932,254.040549 C396.642905,266.710168 407.261812,310.959929 385.329951,342.05024 Z" stroke="none" fill="#67A8EF" fill-rule="nonzero"></path>
                            <path d="M387,142.66083 C381.467831,146.091098 376.250335,150.015068 371.412225,154.387857 C351.911328,171.676406 337.914686,191.738663 308.50537,185.998895 C298.868484,184.353649 289.859676,180.0796 282.452152,173.637109 C279.268617,170.832624 276.343927,167.740895 273.714878,164.400392 C274.370871,160.899595 274.814967,157.360328 275.042091,153.804391 C275.531865,142.908322 267.021714,130.669641 266.200771,123.075605 C265.379827,115.482852 266.200771,99.4291996 285.998577,101.124457 C289.231597,101.389902 292.201966,101.637394 294.945211,101.91951 C297.689726,102.201625 300.642331,102.501694 303.140689,102.819715 C307.529628,103.340346 311.87035,104.208492 316.124791,105.416459 C318.849004,106.206383 321.475516,107.307915 323.952303,108.70054 C331.623747,113.027165 349.185847,107.500267 351.335272,106.793696 L351.544632,106.793696 C359.023211,106.298711 364.911926,105.751151 369.507687,105.292072 C376.183087,104.603454 380.115241,104.003317 382.159352,103.755825 C383.400283,103.809683 385.129721,120.339085 387,142.66083 Z" stroke="none" fill="#67A8EF" fill-rule="nonzero"></path>
                            <path d="M342.094794,228.984565 C344.448942,246.185717 347.877645,263.22318 352.360651,280 L309.081036,273.064641 L308.8722,273.064641 C308.8722,273.064641 307.652093,245.319426 299.423967,219.950214 C295.146,206.546638 293.37406,192.475716 294.195481,178.436272 C294.977665,166.71491 296.921736,155.098058 299.999847,143.755698 C303.265278,130.041113 305.329587,116.069663 306.169993,102 C308.157096,102.294639 310.004975,102.606907 311.712365,102.970799 L312.898299,103.213814 C314.170298,103.490825 315.373951,103.820721 316.506727,104.166985 C319.224122,104.942617 321.844061,106.024221 324.31465,107.392909 C331.966896,111.641257 349.485047,106.213092 351.629093,105.519305 L351.837929,105.519305 L358.461184,105.052162 L359.681291,104.947654 L362,104.739895 C358.723178,114.762673 345.161515,156.292984 340.734198,178.194516 C340.264634,180.622144 339.881136,182.789129 339.636862,184.645106 C338.381316,194.632627 339.706473,211.643648 342.094794,228.984565 Z" stroke="none" fill="#FFFFFF" fill-rule="nonzero"></path>
                            <path d="M362,104.596142 C358.713731,114.598701 345.114239,156.046491 340.674158,177.902585 C331.051445,183.562325 319.608527,185.36932 308.684761,182.956642 C303.604943,182.036809 298.668558,180.466055 294,178.283336 C294.78444,166.584363 296.735384,154.992201 299.821101,143.672722 C303.097215,129.984547 305.167476,116.042537 306.009035,102 C308.001867,102.295302 309.855074,102.605683 311.568655,102.970097 L312.756739,103.211365 C314.033674,103.489074 315.239528,103.817048 316.375569,104.16387 C319.102068,104.937938 321.72956,106.017359 324.207272,107.38203 C331.88158,111.623065 349.448966,106.20585 351.599194,105.513462 L351.808631,105.513462 L358.452251,105.046005 L359.675875,104.942964 L362,104.596142 Z" stroke="none" fill="#F9F9F9" fill-rule="nonzero"></path>
                            <path d="M359.935745,154.928535 L369.846998,177.863922 C367.010248,182.76571 349.510749,214.933616 341.871625,229 C339.51263,211.677078 338.231998,194.68371 339.496498,184.515361 C341.871625,165.72077 357.849753,115.797247 361.422371,104.693068 C364.292626,104.467915 366.822868,104.242762 369.026748,104 L372,147.584028 C369.864371,149.004126 359.935745,154.928535 359.935745,154.928535 Z" stroke="none" fill="#67A8EF" fill-rule="nonzero"></path>
                            <path d="M300.616194,144.316229 C296.776222,159.321419 289.166977,188.409239 299.985145,221 C290.934438,208.246158 284.490407,193.935735 281,178.840694 L292.790926,153.535493 L286.805126,145.953803 C286.805126,145.953803 293.314618,128.525156 304.295131,102 L307,102.38345 C306.128053,116.512905 303.992699,130.542384 300.616194,144.316229 Z" stroke="none" fill="#67A8EF" fill-rule="nonzero"></path>
                            <path d="M357.095647,102.509698 C361.452228,101.252546 365.087287,102.509698 364.998404,104.230472 C364.781424,108.842946 356.393732,136.58527 352.775666,137.996129 C352.109042,138.254808 347.951141,125.467096 343.252099,123.918774 C338.554364,122.369203 329.805911,124.503613 330.003284,124.399891 C330.201964,124.29742 347.71717,99.6529885 357.095647,102.509698 Z" stroke="none" fill="#683F1D" fill-rule="nonzero"></path>
                            <path d="M314.513054,102.927046 C321.64476,112.379072 320.690926,119.446759 317.983146,119.770772 C315.276625,120.094784 312.204699,119.873417 309.064732,123.092522 C305.923505,126.310391 300.94391,131.607137 300.578505,130.943034 C298.704857,127.537188 301.862464,105.396717 303.251005,103.097709 C305.055352,100.286711 312.586485,100.372043 314.513054,102.927046 Z" stroke="none" fill="#683F1D" fill-rule="nonzero"></path>
                            <path d="M321.75558,137 C320.986202,155.644688 317.218594,162.794617 314.958477,174.306042 C312.697242,185.817467 314.681545,201.4968 318.35647,219.576109 C322.032511,237.655418 321.832629,247.36686 321.75558,249.343764 C321.67853,251.321949 318.049389,262.638505 326,267" stroke="#DDDDDD" stroke-width="1.37717" fill="none" stroke-linecap="round" stroke-linejoin="round"></path>
                            <path d="M356,102.483949 C356,102.483949 328.659966,130.788508 322.276918,126.571616 C315.89262,122.353458 313.397622,106.336355 314.121009,100.932355 C314.362138,99.1896597 314.843147,95.8789185 315.376629,92.2188788 C316.494818,84.8456454 317.889119,75.8866479 318.130248,73.970569 C318.887368,58.2837807 344.265887,44.7588458 351.527244,62.1526401 C350.474022,75.7626216 351.992011,89.4510687 356,102.483949 Z" stroke="none" fill="#FEBD9D" fill-rule="nonzero"></path>
                            <path d="M315,93 C316.144274,85.6544767 317.571101,76.7276166 317.816576,74.8171501 L334.737769,69 C336.516188,83.2408575 329.173656,91.3505675 315,93 Z" stroke="none" fill="#F4A789" fill-rule="nonzero"></path>
                            <path d="M270,191 C270.164628,180.91918 272.678946,171.270269 274.410533,162.93592 C275.185781,159.508266 275.708101,156.042944 275.977492,152.561301 C276.245387,147.374619 274.081277,141.997094 271.649273,137" stroke="#4B84C8" stroke-width="1.03288" fill="none" stroke-linecap="round" stroke-linejoin="round"></path>
                            <path d="M437.027658,280.483058 C417.40079,290.462031 403.899089,268.900457 394.991265,248.577706 C393.231174,244.477435 391.577174,240.448098 390.150695,236.732901 C384.060039,221.032295 374.308598,184.085523 371.051726,152.998451 C368.44674,127.68748 370.188937,106.213308 381.894756,103.019986 C395.819543,99.2528541 411.274344,105.34056 420.357283,131.054338 C422.158276,136.285762 423.582199,141.636254 424.617546,147.067815 C432.979577,189.562684 457.535211,270.051877 437.027658,280.483058 Z" stroke="none" fill="#67A8EF" fill-rule="nonzero"></path>
                            <path d="M394,250 C392.319502,245.86576 390.740298,241.803041 389.378326,238.057065 C384.857945,225.743746 378.167684,200.398055 374,175" stroke="#4B84C8" stroke-width="1.03288" fill="none" stroke-linecap="round" stroke-linejoin="round"></path>
                            <path d="M420,131.041168 C408.196133,131.728134 396.739887,135.287176 386.628448,141.4103 C381.096972,144.799501 375.881398,148.679212 371.043893,153 C368.458309,127.672246 370.187529,106.184911 381.806168,102.990899 C395.643741,99.2899013 410.984708,105.382606 420,131.041168 Z" stroke="none" fill="#67A8EF" fill-rule="nonzero"></path>
                            <path d="M361.148815,47.644096 C354.390581,60.6540463 302.39675,45.8715447 302.39675,45.8715447 C293.95827,43.4077086 289.73068,40.0577256 290.013291,34.9528241 C290.295901,29.8479226 298.239813,29.6352988 296.187036,24.7431498 C295.141379,22.3685076 294.541475,19.8206259 294.418154,17.2276968 C294.258865,12.5659332 296.027747,7.17749036 302.856634,2.83479106 C314.886831,-4.82236815 331.410528,5.45822368 331.410528,5.45822368 C331.410528,5.45822368 338.963924,-0.869650745 352.639683,6.1849028 C359.575191,9.72987676 363.377581,16.9971828 364.563259,24.9735351 C365.732237,32.7025128 364.541421,40.6047299 361.148815,47.644096 Z" stroke="none" fill="#B25E47" fill-rule="nonzero"></path>
                            <path d="M361.136121,46.7060599 C354.379093,59.5655039 302.394538,44.9539971 302.394538,44.9539971 C293.957564,42.5186399 289.730729,39.2073786 290.013288,34.1614834 C290.295848,29.1155883 298.238343,28.9054222 296.185932,24.0698204 C295.140461,21.7226261 294.540664,19.2041948 294.417366,16.6412368 C305.614434,4.95513547 331.207917,3.50102 333.968011,14.4337292 C337.098001,26.8379829 343.058725,46.5834206 364.567937,24.2975427 C365.730285,31.938964 364.534543,39.7498413 361.136121,46.7060599 Z" stroke="none" fill="#B25E47" fill-rule="nonzero"></path>
                            <path d="M329,12.1757471 C339.118861,5.37934143 348.54152,10.5083615 351.176197,18.0115965 C355,28.8857928 342.027237,40.2856039 355,50" stroke="#683F1D" stroke-width="1.03288" fill="none" stroke-linecap="round" stroke-linejoin="round"></path>
                            <path d="M300,18 C300.842319,8.3637385 315.477604,-0.860792507 329,4.6602806" stroke="#683F1D" stroke-width="1.03288" fill="none" stroke-linecap="round" stroke-linejoin="round"></path>
                            <path d="M352.338103,61.0287488 C352.338103,61.0287488 338.322974,74.5759737 322.87033,78.947712 C307.768796,83.2665512 294.838799,74.2459837 296.082949,52.7210605 C296.082949,52.3734374 296.082949,52.0094408 296.082949,51.6630772 C296.292851,49.0433089 296.608341,46.4590586 297.029419,44.0133538 C300.270823,25.4709361 310.011573,12.0455053 326.181702,17.0583311 C331.139218,18.584724 326.497192,35.9302351 329.825101,43.718378 C330.024827,44.2035389 330.271621,44.6682959 330.561668,45.1060994 C331.700231,46.6835022 333.193719,47.9777685 334.923825,48.8871304 C340.408006,51.8708954 347.853822,51.2121748 350.270881,46.6324923 C353.774346,39.9891126 363.287384,36.7975295 366.598755,47.9336859 C368.999277,55.9302767 360.169377,63.1623486 352.338103,61.0287488 Z" stroke="none" fill="#FEBD9D" fill-rule="nonzero"></path>
                            <path d="M337,50.6181189 C335.324591,52.6036083 333.129888,54.0886455 330.657771,54.9073199 C325.783233,56.7799356 321.07815,56.16253 320.157085,53.6901877 C319.234653,51.2178455 322.470679,47.7717975 327.345217,45.9926087 C328.709049,45.4831811 330.131644,45.1495917 331.580203,45 C331.794753,45.5238428 332.0585,46.0255189 332.370077,46.4982285 C333.574021,48.2086052 335.15787,49.6185746 337,50.6181189 Z" stroke="none" fill="#F4A789" fill-rule="nonzero"></path>
                            <path d="M301.537111,52.7748767 C300.599899,53.9333849 298.51838,54.2494575 296,53.8110342 C296,53.4605504 296,53.0909494 296,52.7404656 C296.249419,50.0895339 296.624304,47.4747977 297.124655,45 C301.01711,47.632834 302.953511,50.9154011 301.537111,52.7748767 Z" stroke="none" fill="#F4A789" fill-rule="nonzero"></path>
                            <path d="M303,39.4999618 C303,39.7966964 303.088309,40.0866602 303.253153,40.3333502 C303.417996,40.5800403 303.651525,40.7722701 303.926264,40.8858025 C304.200022,40.9993348 304.501254,41.0290672 304.792674,40.9711725 C305.084093,40.9132779 305.350983,40.7705038 305.560962,40.5607093 C305.76996,40.3509149 305.913217,40.0836183 305.971109,39.7926732 C306.029,39.5016299 305.999564,39.2000872 305.885743,38.9259217 C305.771923,38.6518544 305.579605,38.4176264 305.333321,38.2527739 C305.087037,38.0879214 304.796598,38 304.500273,38 C304.101901,38 303.721191,38.1579837 303.439583,38.4393124 C303.157975,38.7206411 303,39.1021569 303,39.4999618 Z" stroke="none" fill="#683F1D" fill-rule="nonzero"></path>
                            <path d="M314.000071,43.4867093 C313.997154,43.7844869 314.083704,44.0763322 314.247078,44.3249988 C314.410453,44.5737627 314.644817,44.7680669 314.920026,44.8833074 C315.194262,44.9984506 315.496699,45.0292787 315.789412,44.9718043 C316.081152,44.9144272 316.349553,44.7712761 316.560579,44.560634 C316.770632,44.3500891 316.914557,44.0815837 316.971932,43.7893493 C317.029308,43.4972122 316.998189,43.194475 316.883438,42.9198428 C316.767714,42.6452106 316.573221,42.4110341 316.325241,42.2472662 C316.07629,42.0834983 315.784549,41.9974326 315.486002,42.0000583 C315.092153,42.0000583 314.713863,42.1567271 314.435737,42.4354437 C314.156639,42.7142576 314.000071,43.0924604 314.000071,43.4867093 Z" stroke="none" fill="#683F1D" fill-rule="nonzero"></path>
                            <path d="M352,53 C354.264665,47.941713 359.25135,45.5298738 363,47.941713" stroke="#F4A789" stroke-width="1.03288" fill="none" stroke-linecap="round" stroke-linejoin="round"></path>
                            <path d="M353,52.0358217 C358.760409,48.0142484 362.74626,57 353.506453,57" stroke="#F4A789" stroke-width="1.03288" fill="none" stroke-linecap="round" stroke-linejoin="round"></path>
                            <path d="M299.017712,31.1436077 C298.512543,33.9009323 308.973094,37.7114936 309.967532,32.1392812 C310.674524,28.1372603 299.60728,28.1372603 299.017712,31.1436077 Z" stroke="none" fill="#B25E47" fill-rule="nonzero"></path>
                            <path d="M315.076568,31.8951047 C313.947079,36.3318789 325.667488,38.6467232 326.929574,35.6479564 C328.008435,33.1227527 316.354325,26.8797149 315.076568,31.8951047 Z" stroke="none" fill="#B25E47" fill-rule="nonzero"></path>
                            <path d="M306.377545,53 C303.741188,49.2325996 305.116257,46.4113755 308.575435,46.4113755 C312.797769,46.4113755 314.174225,42.9066039 313.982742,38" stroke="#F4A789" stroke-width="1.03288" fill="none" stroke-linecap="round" stroke-linejoin="round"></path>
                            <path d="M305,56.3247313 C309.721675,56.9017244 316,54 316,54 C316,54 315.718504,62.2430999 310.5,62.9517719 C305.281496,63.6604438 305,56.3247313 305,56.3247313 Z" stroke="#F4A789" stroke-width="1.03288" fill="#FFFFFF" fill-rule="nonzero" stroke-linecap="round" stroke-linejoin="round"></path>
                            <path d="M186,112.44098 C187.290692,106.711389 205.753953,102.092094 212,101 L212,120.283252 C212,120.283252 192.487193,124.508614 186,112.44098 Z" stroke="none" fill="#67A8EF" fill-rule="nonzero"></path>
                            <path d="M194.08471,119.517384 C197.377582,104.043676 199.601693,100.412967 198.570409,98.468349 C197.537832,96.5237314 190.864209,90.1665219 190.06296,83.654197 C189.261712,77.1406109 196.326913,66.2863157 198.819829,62.8132438 C201.311453,59.3389109 204.781376,56.8558033 215.709369,58.5406341 C226.637363,60.2254648 230.872348,61.6669031 230.997705,66.9458714 C231.121769,72.2261008 226.174707,107.79419 226.174707,107.79419 C226.174707,107.79419 217.631073,134.297486 194.08471,119.517384 Z" stroke="none" fill="#FEBD9D" fill-rule="nonzero"></path>
                            <path d="M175.465468,235.9354 C198.878735,255.433471 213.649219,214.807452 219.071897,179.160495 C222.448258,155.260244 224.094562,131.142088 223.995808,107 C223.995808,107 204.490169,112.463994 185.140785,110.468843 C179.18434,139.350675 156.391093,219.994342 175.465468,235.9354 Z" stroke="none" fill="#67A8EF" fill-rule="nonzero"></path>
                            <path d="M208,222 C213.623842,210.07629 217.625693,194.189369 219.953065,179.309659 C223.412118,155.358741 225.096839,131.191992 224.995704,107" stroke="#4B84C8" stroke-width="1.03288" fill="none" stroke-linecap="round" stroke-linejoin="round"></path>
                            <path d="M206.621169,42 C204.315441,52.4887999 198.251204,69.9684408 195.982389,78.4816897 C193.712255,86.9949386 195.183492,91.4705187 202.427617,92.8857972 C209.671743,94.3023449 214.082816,82.2223404 215.554052,74.3221673 C217.02397,66.4207248 221,46.719795 221,46.719795 L206.621169,42 Z" stroke="#A60000" stroke-width="1.37717" fill="#F9F9F9" fill-rule="nonzero" stroke-linecap="round" stroke-linejoin="round"></path>
                            <path d="M188.190014,75.2534506 C193.102268,73.0305664 206.635664,86.1375678 198.401961,86.9763707 C193.525628,87.5205201 180.963393,78.5183471 188.190014,75.2534506 Z" stroke="#F4A789" stroke-width="1.03288" fill="#FEBD9D" fill-rule="nonzero" stroke-linecap="round" stroke-linejoin="round"></path>
                            <path d="M189.166808,68.2483911 C194.494523,66.0535803 210.173977,79.1020595 201.369798,79.9770857 C196.136379,80.5143629 181.52746,71.4564488 189.166808,68.2483911 Z" stroke="#F4A789" stroke-width="1.03288" fill="#FEBD9D" fill-rule="nonzero" stroke-linecap="round" stroke-linejoin="round"></path>
                            <path d="M192.227833,58.3113759 C197.527363,55.5644057 213.193809,71.8662035 204.345441,72.9722443 C199.098496,73.6327605 184.456814,62.3236877 192.227833,58.3113759 Z" stroke="#F4A789" stroke-width="1.03288" fill="#FEBD9D" fill-rule="nonzero" stroke-linecap="round" stroke-linejoin="round"></path>
                            <path d="M193.971791,51.361891 C199.167917,48.323838 214.701655,65.3102831 206.800785,68.8681868 C203.145022,70.5401144 186.322011,55.8373318 193.971791,51.361891 Z" stroke="#F4A789" stroke-width="1.03288" fill="#FEBD9D" fill-rule="nonzero" stroke-linecap="round" stroke-linejoin="round"></path>
                            <path d="M215.384714,67.8712341 C214.158335,66.1629769 202.778584,60.4903484 204.107789,55.926635 C205.438248,51.3642417 219.046298,56.0546883 225.401403,58.2170726 C231.756508,60.380777 230.167732,64.5260071 228.578955,77.9980046 C228.665479,77.9980046 222.966199,78.3980061 215.384714,67.8712341 Z" stroke="none" fill="#FEBD9D" fill-rule="nonzero"></path>
                            <path d="M215.384714,67.8723875 C214.158335,66.1639882 202.778584,60.4908881 204.107789,55.9267952 C205.438248,51.3640225 219.046298,56.0548591 225.401403,58.2174232 C231.756508,60.3813076 230.167732,64.5268823 228.578955,78" stroke="#F4A789" stroke-width="1.03288" fill="none" stroke-linecap="round" stroke-linejoin="round"></path>
                        </g>
                    </g>
                </g>
                <g id="Group-53" transform="translate(0.000000, 3.000000)" stroke-linecap="round" stroke-linejoin="round">
                    <path d="M206,151.0657 C223.979347,158.63284 233.684577,162.681478 236.656278,160.335598 C239.627979,157.989717 253.356826,126.284267 251.890808,122.917051 C250.423203,119.549835 222.288032,104 222.288032,104 L206,151.0657 Z" id="Shape" stroke="#A60000" stroke-width="1.37717" fill="#FF0040" fill-rule="nonzero"></path>
                    <path d="M92,60.309722 C80.5612498,53.1008981 67.4062755,55.105463 63.5416014,65.0513766 C57.9592213,79.4690243 68.4602475,89.2220911 80.2500473,93 L92,60.309722 Z" id="Shape" stroke="#FF0040" stroke-width="1.37717" fill="#F9F9F9" fill-rule="nonzero"></path>
                    <path d="M216.010997,153.886227 C210.791963,156.127615 198.951431,156.814411 183.429779,154.826149 C157.155423,151.240448 131.641559,142.815764 108,129.91776 L140.313141,54 C164.613604,61.5995832 187.582149,73.4978914 208.283328,89.2113921 C219.991233,98.0685251 228.353821,106.455545 231.264571,111.986812 C234.173911,117.517926 228.321369,148.644226 216.010997,153.886227 Z" id="Shape" stroke="#A60000" stroke-width="1.37717" fill="#FF0040" fill-rule="nonzero"></path>
                    <path d="M214.565864,153.811432 C208.548363,156.132059 194.896331,156.843292 177,154.784583 C194.933747,135.134171 207.622719,113.836949 205.655928,87 C219.155042,96.1702554 228.797034,104.853778 232.151478,110.580589 C235.507548,116.307243 228.757991,148.38427 214.565864,153.811432 Z" id="Shape" stroke="#A60000" stroke-width="1.37717" fill="#F9F9F9" fill-rule="nonzero"></path>
                    <path d="M115.091039,137.019281 C124.861439,134.069775 154.896313,74.8875526 150.578231,57.4584059 C146.260148,40.0294207 109.5237,0 109.5237,0 C109.5237,0 62.6353657,82.165585 54,142.995039 C54,143.109917 100.887536,141.23293 115.091039,137.019281 Z" id="Shape" stroke="#A60000" stroke-width="1.37717" fill="#FF0000" fill-rule="nonzero"></path>
                    <path d="M60,27 L46,4" id="Shape" stroke="#FF0040" stroke-width="7.37699986"></path>
                    <path d="M1,44 L27,53" id="Shape" stroke="#FF0040" stroke-width="7.37699986"></path>
                    <path d="M0,97 L26,93" id="Shape" stroke="#FF0040" stroke-width="7.37699986"></path>
                </g>
            </g>
        </g>
    </g>
</svg>