<?xml version="1.0" encoding="UTF-8"?>
<svg width="766px" height="478px" viewBox="0 0 766 478" version="1.1" xmlns="http://www.w3.org/2000/svg" xmlns:xlink="http://www.w3.org/1999/xlink">
    <!-- Generator: Sketch 48.2 (47327) - http://www.bohemiancoding.com/sketch -->
    <title>Group 16</title>
    <desc>Created with Sketch.</desc>
    <defs></defs>
    <g id="Landing-page-CampusHires" stroke="none" stroke-width="1" fill="none" fill-rule="evenodd" transform="translate(-62.000000, -2156.000000)">
        <g id="Group-52" transform="translate(-1.000000, 2013.000000)">
            <g id="Group-16" transform="translate(64.000000, 144.000000)">
                <path d="M0,400.98 C188.77,347.33 507.58,340.49 624.41,360.56 C741.24,380.63 763.18,400.98 763.18,400.98" id="Shape" stroke="#DDDDDD" stroke-width="1.88" stroke-linecap="round" stroke-linejoin="round"></path>
                <polygon id="Shape" fill="#DDDDDD" fill-rule="nonzero" points="117.59 422.77 99.21 434.69 100.49 437.35 126.29 426.56"></polygon>
                <polygon id="Shape" fill="#DDDDDD" fill-rule="nonzero" points="149.93 422.77 168.32 434.69 167.04 437.35 141.24 426.56"></polygon>
                <path d="M158.64,371.65 C148.8,363.29 149.17,360.3 155.5,346.54 C163.72,328.69 152.41,314.84 133.76,314.84 C115.11,314.84 103.81,328.69 112.02,346.54 C118.36,360.3 118.72,363.29 108.89,371.65 C97.49,381.33 93.03,408.57 110.54,422.65 C119.49,429.87 133.76,429.23 133.76,429.23 C133.76,429.23 148.04,429.87 156.99,422.65 C174.49,408.57 170.04,381.33 158.64,371.65 Z" id="Shape" stroke="#DDDDDD" stroke-width="0.94" fill="#F9F9F9" fill-rule="nonzero" stroke-linecap="round" stroke-linejoin="round"></path>
                <path d="M133.76,357.57 C139.852,357.57 144.79,352.632 144.79,346.54 C144.79,340.448 139.852,335.51 133.76,335.51 C127.668,335.51 122.73,340.448 122.73,346.54 C122.73,352.632 127.668,357.57 133.76,357.57 Z" id="Shape" fill="#DDDDDD" fill-rule="nonzero"></path>
                <polygon id="Shape" stroke="#DDDDDD" stroke-width="0.94" fill="#F9F9F9" fill-rule="nonzero" stroke-linecap="round" stroke-linejoin="round" points="138.65 234.42 128.88 234.42 128.88 391.16 138.65 391.16"></polygon>
                <path d="M131.99,391.15 L131.99,238.52" id="Shape" stroke="#DDDDDD" stroke-width="0.94" stroke-linecap="round" stroke-linejoin="round"></path>
                <path d="M135.53,391.15 L135.53,238.52" id="Shape" stroke="#DDDDDD" stroke-width="0.94" stroke-linecap="round" stroke-linejoin="round"></path>
                <polygon id="Shape" stroke="#DDDDDD" stroke-width="0.94" fill="#F9F9F9" fill-rule="nonzero" stroke-linecap="round" stroke-linejoin="round" points="140.89 209.9 126.63 209.9 126.63 238.52 140.89 238.52"></polygon>
                <polygon id="Shape" fill="#DDDDDD" fill-rule="nonzero" points="138 214.75 129.53 214.75 129.53 233.68 138 233.68"></polygon>
                <path d="M126.63,228.92 C123.99,226.14 121.34,227.52 122.15,229.79 C122.96,232.06 126.63,232.14 126.63,232.01 L126.63,228.92 Z" id="Shape" stroke="#DDDDDD" stroke-width="0.94" fill="#F9F9F9" fill-rule="nonzero" stroke-linecap="round" stroke-linejoin="round"></path>
                <path d="M126.63,232.72 L126.63,235.72 C126.63,235.72 125,236.54 124.1,235.72 C123.2,234.9 124.36,232.61 126.63,232.72 Z" id="Shape" stroke="#DDDDDD" stroke-width="0.94" fill="#F9F9F9" fill-rule="nonzero" stroke-linecap="round" stroke-linejoin="round"></path>
                <path d="M140.89,228.92 C143.53,226.14 146.19,227.52 145.37,229.79 C144.55,232.06 140.89,232.14 140.89,232.01 L140.89,228.92 Z" id="Shape" stroke="#DDDDDD" stroke-width="0.94" fill="#F9F9F9" fill-rule="nonzero" stroke-linecap="round" stroke-linejoin="round"></path>
                <path d="M140.89,232.72 L140.89,235.72 C140.89,235.72 142.53,236.54 143.42,235.72 C144.31,234.9 143.16,232.61 140.89,232.72 Z" id="Shape" stroke="#DDDDDD" stroke-width="0.94" fill="#F9F9F9" fill-rule="nonzero" stroke-linecap="round" stroke-linejoin="round"></path>
                <path d="M140.89,221.09 C144.22,217.58 147.57,219.33 146.54,222.19 C145.51,225.05 140.89,225.14 140.89,224.98 L140.89,221.09 Z" id="Shape" stroke="#DDDDDD" stroke-width="0.94" fill="#F9F9F9" fill-rule="nonzero" stroke-linecap="round" stroke-linejoin="round"></path>
                <polygon id="Shape" fill="#DDDDDD" fill-rule="nonzero" points="148.04 388.9 119.49 388.9 119.49 394.56 148.04 394.56"></polygon>
                <path d="M182.31,39.22 C186.71,33.41 203.61,39.32 208.1,45.04 C212.59,50.76 197.79,68.04 192.33,64.68 C186.87,61.32 177.46,45.62 182.31,39.22 Z" id="Shape" stroke="#DDDDDD" stroke-width="0.94" fill="#F9F9F9" fill-rule="nonzero" stroke-linecap="round" stroke-linejoin="round"></path>
                <path d="M193.84,49.32 C187.99,56.11 186.05,64.05 189.53,67.05 C193.01,70.05 200.53,66.97 206.43,60.18 C212.33,53.39 214.22,45.45 210.74,42.46 C207.26,39.47 199.7,42.53 193.84,49.32 Z" id="Shape" stroke="#DDDDDD" stroke-width="0.94" fill="#F9F9F9" fill-rule="nonzero" stroke-linecap="round" stroke-linejoin="round"></path>
                <path d="M152.58,39.22 C156.97,33.41 173.87,39.32 178.36,45.04 C182.85,50.76 168.06,68.04 162.59,64.68 C157.12,61.32 147.73,45.62 152.58,39.22 Z" id="Shape" stroke="#DDDDDD" stroke-width="0.94" fill="#F9F9F9" fill-rule="nonzero" stroke-linecap="round" stroke-linejoin="round"></path>
                <path d="M164.11,49.32 C158.25,56.11 156.32,64.05 159.8,67.05 C163.28,70.05 170.8,66.97 176.69,60.18 C182.58,53.39 184.48,45.45 181.01,42.46 C177.54,39.47 169.97,42.53 164.11,49.32 Z" id="Shape" stroke="#DDDDDD" stroke-width="0.94" fill="#F9F9F9" fill-rule="nonzero" stroke-linecap="round" stroke-linejoin="round"></path>
                <path d="M166.63,51.8201 C161.63,57.6101 159.5,63.9601 161.86,65.9901 C164.22,68.0201 170.18,64.9901 175.18,59.1901 C180.18,53.3901 182.31,47.0501 179.95,45.0101 C177.59,42.9701 171.63,46.0201 166.63,51.8201 Z" id="Shape" fill="#DDDDDD" fill-rule="nonzero"></path>
                <path d="M204.907,59.1661 C209.903,53.374 212.041,47.0292 209.682,44.9947 C207.323,42.9602 201.361,46.0064 196.365,51.7985 C191.369,57.5906 189.231,63.9353 191.59,65.9698 C193.948,68.0043 199.911,64.9582 204.907,59.1661 Z" id="Shape" stroke="#DDDDDD" stroke-width="0.94" fill="#F9F9F9" fill-rule="nonzero" stroke-linecap="round" stroke-linejoin="round"></path>
                <path d="M128.42,34.28 L128.42,11.9" id="Shape" stroke="#DDDDDD" stroke-width="1.88" stroke-linecap="round" stroke-linejoin="round"></path>
                <path d="M157.28,36.8204431 C157.34,36.9102218 157.28,9.62 157.28,9.62" id="Shape" stroke="#DDDDDD" stroke-width="1.88" stroke-linecap="round" stroke-linejoin="round"></path>
                <path d="M185.61,37.19 L185.61,0" id="Shape" stroke="#DDDDDD" stroke-width="1.88" stroke-linecap="round" stroke-linejoin="round"></path>
                <path d="M205.31,80.4 L232.67,118.08" id="Shape" stroke="#DDDDDD" stroke-width="0.94" stroke-linecap="round" stroke-linejoin="round"></path>
                <path d="M170.91,74.65 L192.02,110.54" id="Shape" stroke="#DDDDDD" stroke-width="0.94" stroke-linecap="round" stroke-linejoin="round"></path>
                <path d="M137.07,71.88 L158.71,112.33" id="Shape" stroke="#DDDDDD" stroke-width="0.94" stroke-linecap="round" stroke-linejoin="round"></path>
                <path d="M127.42,34.79 C133.42,30.67 147.59,41.62 150.05,48.46 C152.51,55.3 133,67.01 128.88,62.11 C124.76,57.21 120.8,39.34 127.42,34.79 Z" id="Shape" stroke="#DDDDDD" stroke-width="0.94" fill="#F9F9F9" fill-rule="nonzero" stroke-linecap="round" stroke-linejoin="round"></path>
                <path d="M143.68,62.313 C151.385,57.7218 155.727,50.8038 153.378,46.8612 C151.028,42.9186 142.878,43.4444 135.173,48.0356 C127.468,52.6268 123.126,59.5449 125.476,63.4875 C127.825,67.43 135.976,66.9042 143.68,62.313 Z" id="Shape" stroke="#DDDDDD" stroke-width="0.94" fill="#F9F9F9" fill-rule="nonzero" stroke-linecap="round" stroke-linejoin="round"></path>
                <path d="M142.545,60.8839 C149.116,56.9684 153.15,51.625 151.556,48.9492 C149.961,46.2733 143.342,47.2783 136.771,51.1938 C130.2,55.1094 126.166,60.4528 127.76,63.1286 C129.355,65.8045 135.974,64.7995 142.545,60.8839 Z" id="Shape" stroke="#DDDDDD" stroke-width="0.94" fill="#DDDDDD" fill-rule="nonzero"></path>
                <polygon id="Shape" stroke="#DDDDDD" stroke-width="0.94" fill="#F9F9F9" fill-rule="nonzero" stroke-linecap="round" stroke-linejoin="round" points="301.84 444.23 224.16 369.5 296.64 299.77 286.47 299.77 219.07 364.6 151.67 299.77 141.5 299.77 213.98 369.5 136.3 444.23 146.48 444.23 219.07 374.39 291.66 444.23"></polygon>
                <polygon id="Shape" stroke="#DDDDDD" stroke-width="0.94" fill="#F9F9F9" fill-rule="nonzero" stroke-linecap="round" stroke-linejoin="round" points="140.89 284 87.34 284 87.34 303.84 140.89 303.84"></polygon>
                <polygon id="Shape" stroke="#DDDDDD" stroke-width="0.94" fill="#F9F9F9" fill-rule="nonzero" stroke-linecap="round" stroke-linejoin="round" points="350.8 284 140.89 284 140.89 303.84 350.8 303.84"></polygon>
                <polygon id="Shape" fill="#DDDDDD" fill-rule="nonzero" points="666.08 434.15 665.18 430.25 637.36 436.65 637.62 435.66 622.02 431.57 619.82 435.13 636.6 439.52 636.94 438.25 637.51 440.73"></polygon>
                <polygon id="Shape" stroke="#DDDDDD" stroke-width="0.94" fill="#F9F9F9" fill-rule="nonzero" stroke-linecap="round" stroke-linejoin="round" points="678.86 452.42 673.26 452.42 645.41 405.13 651.01 405.13"></polygon>
                <polygon id="Shape" stroke="#DDDDDD" stroke-width="0.94" fill="#F9F9F9" fill-rule="nonzero" stroke-linecap="round" stroke-linejoin="round" points="607.68 452.42 613.28 452.42 641.13 405.13 635.53 405.13"></polygon>
                <polygon id="Shape" stroke="#DDDDDD" stroke-width="0.94" fill="#F9F9F9" fill-rule="nonzero" stroke-linecap="round" stroke-linejoin="round" points="630.31 452.42 635.91 452.42 646.36 405.13 640.76 405.13"></polygon>
                <polygon id="Shape" stroke="#DDDDDD" stroke-width="0.94" fill="#F9F9F9" fill-rule="nonzero" stroke-linecap="round" stroke-linejoin="round" points="646.36 289.72 640.18 289.72 640.18 395.39 646.36 395.39"></polygon>
                <path d="M672.21,182.7 L614.34,182.7 C608.894,182.7 604.48,187.114 604.48,192.56 L604.48,283.54 C604.48,288.985 608.894,293.4 614.34,293.4 L672.21,293.4 C677.656,293.4 682.07,288.985 682.07,283.54 L682.07,192.56 C682.07,187.114 677.656,182.7 672.21,182.7 Z" id="Shape" stroke="#DDDDDD" stroke-width="1.88" fill="#F9F9F9" fill-rule="nonzero" stroke-linecap="round" stroke-linejoin="round"></path>
                <polygon id="Shape" fill="#DDDDDD" fill-rule="nonzero" points="664.05 206.23 622.49 206.23 622.49 215.2 664.05 215.2"></polygon>
                <path d="M643.27,276.19 C655.558,276.19 665.52,266.228 665.52,253.94 C665.52,241.652 655.558,231.69 643.27,231.69 C630.982,231.69 621.02,241.652 621.02,253.94 C621.02,266.228 630.982,276.19 643.27,276.19 Z" id="Shape" stroke="#DDDDDD" stroke-width="0.94" stroke-linecap="round" stroke-linejoin="round"></path>
                <path d="M649.28,395.39 L637.26,395.39 C634.951,395.39 633.08,397.261 633.08,399.57 L633.08,403.31 C633.08,405.619 634.951,407.49 637.26,407.49 L649.28,407.49 C651.589,407.49 653.46,405.619 653.46,403.31 L653.46,399.57 C653.46,397.261 651.589,395.39 649.28,395.39 Z" id="Shape" fill="#DDDDDD" fill-rule="nonzero"></path>
                <path d="M598.07,39.22 C593.67,33.41 576.77,39.32 572.28,45.04 C567.79,50.76 582.59,68.04 588.05,64.68 C593.51,61.32 602.92,45.62 598.07,39.22 Z" id="Shape" stroke="#DDDDDD" stroke-width="0.94" fill="#F9F9F9" fill-rule="nonzero" stroke-linecap="round" stroke-linejoin="round"></path>
                <path d="M586.58,49.32 C592.43,56.11 594.37,64.05 590.89,67.05 C587.41,70.05 579.89,66.97 573.99,60.18 C568.09,53.39 566.2,45.45 569.68,42.46 C573.16,39.47 580.68,42.53 586.58,49.32 Z" id="Shape" stroke="#DDDDDD" stroke-width="0.94" fill="#F9F9F9" fill-rule="nonzero" stroke-linecap="round" stroke-linejoin="round"></path>
                <path d="M627.8,39.22 C623.4,33.41 606.51,39.32 602.02,45.04 C597.53,50.76 612.32,68.04 617.79,64.68 C623.26,61.32 632.65,45.62 627.8,39.22 Z" id="Shape" stroke="#DDDDDD" stroke-width="0.94" fill="#F9F9F9" fill-rule="nonzero" stroke-linecap="round" stroke-linejoin="round"></path>
                <path d="M616.27,49.32 C622.13,56.11 624.06,64.05 620.58,67.05 C617.1,70.05 609.58,66.97 603.69,60.18 C597.8,53.39 595.9,45.45 599.37,42.46 C602.84,39.47 610.41,42.53 616.27,49.32 Z" id="Shape" stroke="#DDDDDD" stroke-width="0.94" fill="#F9F9F9" fill-rule="nonzero" stroke-linecap="round" stroke-linejoin="round"></path>
                <path d="M618.539,66.0327 C620.897,63.9982 618.759,57.6535 613.763,51.8614 C608.767,46.0693 602.805,43.0231 600.446,45.0576 C598.088,47.0922 600.226,53.4369 605.222,59.229 C610.218,65.0211 616.18,68.0672 618.539,66.0327 Z" id="Shape" fill="#DDDDDD" fill-rule="nonzero"></path>
                <path d="M588.806,66.021 C591.165,63.9865 589.027,57.6418 584.031,51.8497 C579.035,46.0576 573.073,43.0115 570.714,45.046 C568.355,47.0805 570.493,53.4252 575.489,59.2173 C580.485,65.0094 586.448,68.0556 588.806,66.021 Z" id="Shape" stroke="#DDDDDD" stroke-width="0.94" fill="#F9F9F9" fill-rule="nonzero" stroke-linecap="round" stroke-linejoin="round"></path>
                <path d="M651.96,34.28 L651.96,11.9" id="Shape" stroke="#DDDDDD" stroke-width="1.88" stroke-linecap="round" stroke-linejoin="round"></path>
                <path d="M623.1,36.82 C623.04,36.91 623.1,9.62 623.1,9.62" id="Shape" stroke="#DDDDDD" stroke-width="1.88" stroke-linecap="round" stroke-linejoin="round"></path>
                <path d="M594.77,37.19 L594.77,0" id="Shape" stroke="#DDDDDD" stroke-width="1.88" stroke-linecap="round" stroke-linejoin="round"></path>
                <path d="M575.07,80.4 L547.71,118.08" id="Shape" stroke="#DDDDDD" stroke-width="0.94" stroke-linecap="round" stroke-linejoin="round"></path>
                <path d="M609.47,74.65 L588.36,110.54" id="Shape" stroke="#DDDDDD" stroke-width="0.94" stroke-linecap="round" stroke-linejoin="round"></path>
                <path d="M643.31,71.88 L621.67,112.33" id="Shape" stroke="#DDDDDD" stroke-width="0.94" stroke-linecap="round" stroke-linejoin="round"></path>
                <path d="M652.96,34.79 C646.96,30.67 632.78,41.62 630.33,48.46 C627.88,55.3 647.33,67.01 651.5,62.11 C655.67,57.21 659.58,39.34 652.96,34.79 Z" id="Shape" stroke="#DDDDDD" stroke-width="0.94" fill="#F9F9F9" fill-rule="nonzero" stroke-linecap="round" stroke-linejoin="round"></path>
                <path d="M653.807,62.5701 C656.148,58.6231 651.792,51.7153 644.079,47.1411 C636.365,42.5668 628.215,42.0583 625.874,46.0053 C623.534,49.9522 627.889,56.86 635.603,61.4343 C643.316,66.0085 651.467,66.517 653.807,62.5701 Z" id="Shape" stroke="#DDDDDD" stroke-width="0.939859" fill="#F9F9F9" fill-rule="nonzero" stroke-linecap="round" stroke-linejoin="round"></path>
                <path d="M652.616,63.1256 C654.21,60.4498 650.176,55.1064 643.605,51.1909 C637.034,47.2753 630.415,46.2704 628.82,48.9462 C627.226,51.622 631.26,56.9654 637.831,60.881 C644.402,64.7965 651.021,65.8015 652.616,63.1256 Z" id="Shape" stroke="#DDDDDD" stroke-width="0.94" fill="#DDDDDD" fill-rule="nonzero"></path>
                <path d="M511.91,240.09 C519.36,235.24 521.06,233.57 529.74,236.72 C538.42,239.87 543.6,249.57 541.35,254.53 C539.1,259.49 505,283.61 498.89,281.81 C492.78,280.01 494.53,262.53 501.26,252.73 C507.99,242.93 509.58,241.62 511.91,240.09 Z" id="Shape" fill="#67A8EF" fill-rule="nonzero"></path>
                <path d="M513.92,247.91 L506.92,259.31 L505.03,258.31 C503.39,257.46 500.6,256.05 496.52,254.01 C495.995,253.75 495.493,253.445 495.02,253.1 C488.2,248.21 494.76,239.28 501.79,242.16 C505.943,243.835 509.993,245.755 513.92,247.91 Z" id="Shape" fill="#B25E47" fill-rule="nonzero"></path>
                <path d="M505,258.34 C503.36,257.49 500.57,256.08 496.49,254.04 C495.965,253.78 495.463,253.476 494.99,253.13 L496.35,250.74 L500.72,248.42 L505.1,247.04 L506.51,247.91 L506.59,250.96 C506.59,250.96 508.8,254.62 505,258.34 Z" id="Shape" fill="#914839" fill-rule="nonzero"></path>
                <path d="M503.02,266.46 C506.89,259.31 515.44,244.82 520.27,240.09 C520.426,239.948 520.551,239.776 520.637,239.583 C520.723,239.39 520.767,239.181 520.767,238.97 C520.767,238.759 520.723,238.55 520.637,238.357 C520.551,238.164 520.426,237.992 520.27,237.85" id="Shape" stroke="#4B84C8" stroke-width="0.71" stroke-linecap="round" stroke-linejoin="round"></path>
                <path d="M633.78,442.22 C633.78,442.22 648.78,459.66 650.37,461.22 C650.862,461.639 651.476,461.888 652.121,461.929 C652.766,461.97 653.408,461.802 653.95,461.45 L649.15,427.74 L632.07,430.17 L633.78,442.22 Z" id="Shape" fill="#67A8EF" fill-rule="nonzero"></path>
                <path d="M635.58,428.78 L635.58,447.06 C635.58,447.06 584.01,459.15 569.84,458.96 C555.67,458.77 550.19,448.76 550.57,437.61 C550.95,426.46 557,361.11 557,361.11 L560.8,360.31 L596.53,352.8 L582.98,419.95 L580.56,431.95 L635.58,428.78 Z" id="Shape" fill="#4B84C8" fill-rule="nonzero"></path>
                <path d="M596.49,352.8 L582.98,419.95 C579.14,416.46 573.76,409.47 577.98,403.08 C583.98,393.93 583.72,380.44 578.71,382.61 C573.7,384.78 560.77,381.84 558.29,371.91 L560.76,360.31 L596.49,352.8 Z" id="Shape" fill="#4B84C8" fill-rule="nonzero"></path>
                <path d="M580.58,431.95 C579.3,437.21 578.12,438.78 578.12,438.78" id="Shape" stroke="#67A8EF" stroke-width="0.71" stroke-linecap="round" stroke-linejoin="round"></path>
                <path d="M596.42,323.98 L546.75,340.9 C546.75,340.9 545.23,334.49 544.31,334.49 C543.39,334.49 541.11,335.41 539.14,331.61 C538.68,330.73 537.35,328.61 535.51,325.75 C531.51,319.44 524.94,309.59 519.93,301.83 C517.3,297.75 515.08,294.25 513.86,292.15 C513.5,291.53 513.14,290.88 512.79,290.2 C510.09,285.03 507.66,278.29 507.54,271.75 C507.407,268.213 508.153,264.699 509.71,261.52 C512.712,256.023 517.692,251.873 523.64,249.91 C531.74,247.12 542.28,247.84 553.64,255.58 C559.329,259.588 564.496,264.291 569.02,269.58 C583.72,286.34 592.71,306.78 593.86,309.1 C595.39,312.15 592.93,313.5 592.1,314.46 C591.27,315.42 596.42,323.98 596.42,323.98 Z" id="Shape" fill="#72FE1D" fill-rule="nonzero"></path>
                <path d="M568.99,269.53 C560.45,274.53 548.24,278.59 540.75,270.9 C539.032,269.106 536.948,267.705 534.64,266.79 C526.74,263.67 516.86,266.55 507.54,271.74 C507.407,268.203 508.153,264.689 509.71,261.51 C512.712,256.013 517.692,251.863 523.64,249.9 C531.74,247.11 542.28,247.83 553.64,255.57 C559.316,259.568 564.473,264.257 568.99,269.53 Z" id="Shape" fill="#72FE1D" fill-rule="nonzero"></path>
                <path d="M535.51,325.75 C531.51,319.44 524.94,309.59 519.93,301.83 C517.3,297.75 515.08,294.25 513.86,292.15 C513.5,291.53 513.14,290.88 512.79,290.2 C518.25,277.2 529.65,272.41 531.6,281.92 C535.22,299.59 525.12,293.41 528.6,306.63 C529.29,309.11 540.25,317.15 535.51,325.75 Z" id="Shape" fill="#5EA800" fill-rule="nonzero"></path>
                <path d="M549.05,332.93 L587.54,315.78" id="Shape" stroke="#5EA800" stroke-width="0.71" stroke-linecap="round" stroke-linejoin="round"></path>
                <polyline id="Shape" stroke="#683F1D" stroke-width="0.94" points="522.86 292.7 520.13 317.47 510.74 300.6"></polyline>
                <polygon id="Shape" stroke="#683F1D" stroke-width="0.94" fill="#FFFFFF" fill-rule="nonzero" stroke-linecap="round" stroke-linejoin="round" points="524.35 316.61 516.8 316.61 516.8 329.76 524.35 329.76"></polygon>
                <path d="M543.18,373.56 C551.26,374.95 558.71,376.12 563.37,376.56 C570.262,377.162 577.197,376.081 583.58,373.41" id="Shape" stroke="#4B84C8" stroke-width="0.71" stroke-linecap="round" stroke-linejoin="round"></path>
                <path d="M491.78,442.33 C491.78,442.33 470.37,455.99 468.43,457.52 C467.888,457.986 467.515,458.618 467.368,459.318 C467.222,460.017 467.31,460.746 467.62,461.39 L505.23,461.39 L505.23,442.33 L491.78,442.33 Z" id="Shape" fill="#67A8EF" fill-rule="nonzero"></path>
                <path d="M560.89,336.1 C560.89,336.1 508.36,336.7 498.67,336.19 C488.98,335.68 477.42,339.86 476.35,358.82 C475.28,377.78 482.8,444.22 482.8,444.22 L506.34,444.22 L503.92,366.22 C503.92,366.22 548.3,375.09 563.37,376.57 C578.44,378.05 600.19,370.14 601.29,350.08 C602.24,332.93 595.39,324.35 595.39,324.35 L560.89,336.1 Z" id="Shape" fill="#4B84C8" fill-rule="nonzero"></path>
                <path d="M578.58,329.76 C579.35,337.09 577.15,343.38 573.72,342.55 C570.29,341.72 568.09,340.96 567.87,344.05 C567.65,347.14 566.22,348.35 563.02,346.7 C559.82,345.05 558.16,346.14 556.28,346.92 C554.4,347.7 497.56,351.11 495.13,351.44 C492.7,351.77 492.37,353.87 492.59,355.44 C492.81,357.01 488.17,356.1 488.17,357.44 C488.17,358.78 491.26,360.31 490.82,360.98 C490.38,361.65 489.14,363.29 489.93,364.98 C490.72,366.67 490.6,366.64 491.04,375.91 C491.48,385.18 495.24,444.3 495.24,444.3" id="Shape" stroke="#67A8EF" stroke-width="0.71" stroke-linecap="round" stroke-linejoin="round"></path>
                <path d="M571.58,334.22 C571.343,336.25 571.749,338.303 572.74,340.09" id="Shape" stroke="#67A8EF" stroke-width="0.71" stroke-linecap="round" stroke-linejoin="round"></path>
                <path d="M503.92,366.22 C499.43,364.9 498.29,363.57 498.29,363.57" id="Shape" stroke="#67A8EF" stroke-width="0.71" stroke-linecap="round" stroke-linejoin="round"></path>
                <path d="M437.2,451.86 C426.87,451.86 418.37,457.14 418.13,458.96 C417.89,460.78 437.2,460.79 437.2,460.79 C437.2,460.79 456.5,460.79 456.27,458.96 C456.04,457.13 447.52,451.86 437.2,451.86 Z" id="Shape" fill="#DDDDDD" fill-rule="nonzero"></path>
                <path d="M434.73,232.17 L439.66,232.17 L439.66,453.47 C439.66,453.78 439.599,454.087 439.48,454.373 C439.361,454.659 439.187,454.92 438.968,455.139 C438.749,455.358 438.489,455.532 438.203,455.65 C437.916,455.769 437.61,455.83 437.3,455.83 L437.09,455.83 C436.464,455.83 435.863,455.581 435.421,455.139 C434.978,454.696 434.73,454.096 434.73,453.47 L434.73,232.17 Z" id="Shape" stroke="#DDDDDD" stroke-width="0.94" fill="#F9F9F9" fill-rule="nonzero" stroke-linecap="round" stroke-linejoin="round"></path>
                <path d="M466.47,171.68 C456.64,180.76 460.82,199.68 468.81,211.01 C476.8,222.34 477.49,239.88 462.81,253.94 C448.13,268 425.2,277.72 424.03,306.94 C422.86,336.16 453.34,353.63 454.28,375.58 C455.28,398.88 444.63,420.07 439.67,428.58" id="Shape" stroke="#DDDDDD" stroke-width="1.88" stroke-linecap="round" stroke-linejoin="round"></path>
                <path d="M497,282.5 C491.74,283.5 487,284.34 482.69,284.97 C470.39,286.79 462.03,286.89 457.31,283.97 C456.08,283.183 455.042,282.13 454.271,280.89 C453.501,279.649 453.019,278.252 452.86,276.8 C452.565,275.289 452.732,273.724 453.34,272.31 C454.77,269.04 458.93,266.07 467.51,263.22 C470.46,262.22 473.93,261.28 477.99,260.32 C499.06,255.37 506.57,253.51 511.2,258.55 C515.83,263.59 520.15,278.14 497,282.5 Z" id="Shape" fill="#72FE1D" fill-rule="nonzero"></path>
                <path d="M482.69,284.97 C470.39,286.79 462.03,286.89 457.31,283.97 C456.08,283.183 455.042,282.13 454.271,280.89 C453.501,279.649 453.019,278.252 452.86,276.8 C452.565,275.289 452.732,273.724 453.34,272.31 C456.16,273.31 458.44,275.5 458.77,277.9 C459.6,283.9 463.92,283.62 467.5,282.17 C468.022,281.968 468.533,281.738 469.03,281.48 C472.46,279.72 480.29,281.03 482.69,284.97 Z" id="Shape" fill="#5EA800" fill-rule="nonzero"></path>
                <path d="M534.7,266.79 C534.171,269.136 533.48,271.441 532.63,273.69 C531.75,276.1 530.76,278.48 529.88,280.69 C527.015,287.918 523.712,294.964 519.99,301.79 C519.51,302.66 518.99,303.54 518.5,304.4 C514.43,311.4 509.68,317.83 504.84,320.99 C501.06,323.46 497.22,323.92 493.58,320.99 C493.134,320.638 492.734,320.231 492.39,319.78 C489.56,316.2 489.32,309.59 490.8,301.78 C492.636,293.066 495.608,284.631 499.64,276.69 C506.55,262.76 515.94,250.81 523.7,249.79 C525.084,249.588 526.497,249.789 527.77,250.37 C535.28,253.92 536.14,260.1 534.7,266.79 Z" id="Shape" fill="#72FE1D" fill-rule="nonzero"></path>
                <path d="M532.63,273.69 C531.75,276.1 530.76,278.48 529.88,280.69 C527.015,287.918 523.712,294.964 519.99,301.79 C519.51,302.66 518.99,303.54 518.5,304.4 C514.43,311.4 509.68,317.83 504.84,320.99" id="Shape" stroke="#5EA800" stroke-width="0.71" stroke-linecap="round" stroke-linejoin="round"></path>
                <path d="M534.7,266.79 C526.8,263.67 516.92,266.55 507.6,271.74 C504.841,273.278 502.171,274.967 499.6,276.8 C506.51,262.87 515.9,250.92 523.66,249.9 C525.044,249.698 526.457,249.899 527.73,250.48 C535.28,253.92 536.14,260.1 534.7,266.79 Z" id="Shape" fill="#72FE1D" fill-rule="nonzero"></path>
                <path d="M518.5,304.44 C514.43,311.44 509.68,317.87 504.84,321.03 C501.06,323.5 497.22,323.96 493.58,321.03 C493.134,320.678 492.734,320.271 492.39,319.82 C498.44,322.58 502.18,318.65 504.99,312.06 L505.29,311.32 C510.07,299.52 518.52,304.41 518.5,304.44 Z" id="Shape" fill="#5EA800" fill-rule="nonzero"></path>
                <path d="M450.92,285.08 C448.114,282.714 445.465,280.169 442.99,277.46 C440.59,275.06 438.38,274.15 435.58,277.86 C435.58,277.86 431.58,276.76 429.77,277.46 C427.96,278.16 428.46,281.23 429.37,281.9 C430.28,282.57 428.54,283.9 428.55,285.08 C428.56,286.26 429.55,287.88 429.27,288.58 C428.99,289.28 427.46,291.99 429.87,293.69 C432.28,295.39 443.44,297.22 443.44,297.22 L450.92,285.08 Z" id="Shape" fill="#B25E47" fill-rule="nonzero"></path>
                <path d="M442.99,277.46 C440.59,275.06 438.38,274.15 435.58,277.86 C435.58,277.86 431.58,276.76 429.77,277.46 C427.96,278.16 428.46,281.23 429.37,281.9 C430.28,282.57 428.54,283.9 428.55,285.08 C428.56,286.26 429.55,287.88 429.27,288.58 C428.99,289.28 427.46,291.99 429.87,293.69" id="Shape" stroke="#914839" stroke-width="0.71" stroke-linecap="round" stroke-linejoin="round"></path>
                <path d="M435.58,277.86 L440.51,279.55" id="Shape" stroke="#914839" stroke-width="0.71" stroke-linecap="round" stroke-linejoin="round"></path>
                <path d="M504.84,321.03 C501.15,324.67 492.59,326.3 482.44,323.03 C477.678,321.53 473.044,319.654 468.58,317.42 C461.913,314.031 455.731,309.763 450.2,304.73 C449.585,304.259 449.11,303.629 448.826,302.909 C448.543,302.188 448.461,301.404 448.59,300.64 L443.44,297.22 L450.92,285.12 L457.78,289.22 C458.356,288.801 459.042,288.562 459.754,288.532 C460.465,288.501 461.17,288.682 461.78,289.05 C464.18,290.27 482.53,298.36 487.05,300.2 C487.99,300.59 489.3,301.2 490.79,301.9 L491.68,302.35 L492.47,302.76 L492.86,302.96 L494.53,303.88 C495.83,304.62 497.18,305.44 498.47,306.31 L499.47,306.98 L499.57,307.05 C501.629,308.455 503.469,310.156 505.03,312.1 C505.685,312.94 506.195,313.882 506.54,314.89 C506.884,315.968 506.906,317.123 506.604,318.213 C506.302,319.304 505.689,320.283 504.84,321.03 Z" id="Shape" fill="#72FE1D" fill-rule="nonzero"></path>
                <path d="M487.06,300.22 C488,300.61 489.31,301.22 490.8,301.92 C493.843,303.4 496.762,305.122 499.53,307.07" id="Shape" stroke="#5EA800" stroke-width="0.71" stroke-linecap="round" stroke-linejoin="round"></path>
                <path d="M450.13,298.47 C451.671,295.716 453.498,293.132 455.58,290.76" id="Shape" stroke="#5EA800" stroke-width="0.71" stroke-linecap="round" stroke-linejoin="round"></path>
                <path d="M504.84,321.03 C501.15,324.67 492.59,326.3 482.44,323.03 C477.678,321.53 473.044,319.654 468.58,317.42 C472.92,315.02 482.58,313.04 489.2,317.93 C490.191,318.677 491.257,319.32 492.38,319.85 C498.43,322.61 502.17,318.68 504.98,312.09 C505.635,312.929 506.145,313.872 506.49,314.88 C506.842,315.955 506.873,317.108 506.58,318.201 C506.287,319.293 505.682,320.276 504.84,321.03 Z" id="Shape" fill="#5EA800" fill-rule="nonzero"></path>
                <path d="M514.46,248.78 C514.089,249.443 513.591,250.026 512.994,250.496 C512.396,250.965 511.712,251.311 510.98,251.514 C510.248,251.717 509.483,251.772 508.729,251.677 C507.976,251.582 507.248,251.338 506.59,250.96 C503.09,256.6 493.09,260.11 488.83,255.67 C486.74,253.49 486.64,248 487.91,242.15 C488.246,240.592 488.666,239.053 489.17,237.54 C490.66,233.01 492.87,228.72 495.49,226.03 L495.84,225.69 C505.05,216.9 521.69,227.5 513,243.02 C513,243.02 516.58,245.22 514.46,248.78 Z" id="Shape" fill="#B25E47" fill-rule="nonzero"></path>
                <path d="M513,243.02 C512.176,242.543 511.2,242.405 510.276,242.635 C509.352,242.864 508.554,243.443 508.05,244.25 C507.05,245.68 505.32,244.14 506.3,242.5 C507.28,240.86 510.3,236.96 510.36,234 C510.42,231.04 509.04,229.07 506.41,228.63 C503.78,228.19 497.51,229.4 495.84,225.69 C505.05,216.9 521.69,227.5 513,243.02 Z" id="Shape" fill="#BF8228" fill-rule="nonzero"></path>
                <path d="M496.82,237.7 C496.82,237.898 496.878,238.091 496.988,238.256 C497.098,238.42 497.254,238.548 497.437,238.624 C497.62,238.7 497.821,238.719 498.015,238.681 C498.209,238.642 498.387,238.547 498.527,238.407 C498.667,238.267 498.762,238.089 498.8,237.895 C498.839,237.701 498.819,237.5 498.743,237.317 C498.668,237.135 498.54,236.978 498.375,236.869 C498.211,236.759 498.017,236.7 497.82,236.7 C497.554,236.7 497.3,236.805 497.112,236.993 C496.925,237.18 496.82,237.435 496.82,237.7 Z" id="Shape" fill="#683F1D" fill-rule="nonzero"></path>
                <path d="M491.51,235.63 C491.51,235.905 491.619,236.168 491.813,236.362 C492.007,236.556 492.27,236.665 492.545,236.665 C492.819,236.665 493.082,236.556 493.276,236.362 C493.471,236.168 493.58,235.905 493.58,235.63 C493.58,235.356 493.471,235.092 493.276,234.898 C493.082,234.704 492.819,234.595 492.545,234.595 C492.27,234.595 492.007,234.704 491.813,234.898 C491.619,235.092 491.51,235.356 491.51,235.63 Z" id="Shape" fill="#683F1D" fill-rule="nonzero"></path>
                <path d="M490.63,241.47 C490.53,239.2 491.03,238.32 492.55,238.03 C494.07,237.74 495.82,236.77 495.07,234.24" id="Shape" stroke="#914839" stroke-width="0.71" stroke-linecap="round" stroke-linejoin="round"></path>
                <path d="M508.05,247.75 C509.05,244.91 512.41,244.91 513.05,246.42" id="Shape" stroke="#914839" stroke-width="0.71" stroke-linecap="round" stroke-linejoin="round"></path>
                <path d="M508.34,247.12 C510.96,244.82 513.02,249.35 508.72,249.35" id="Shape" stroke="#914839" stroke-width="0.71" stroke-linecap="round" stroke-linejoin="round"></path>
                <path d="M490.85,230.22 C490.63,230.99 494.63,232.83 495.4,231.22 C496.17,229.61 491.3,228.68 490.85,230.22 Z" id="Shape" fill="#BF8228" fill-rule="nonzero"></path>
                <path d="M498.13,232.71 C497.59,234.44 502.68,236.94 503.44,235.71 C503.85,235.02 499.14,229.45 498.13,232.71 Z" id="Shape" fill="#BF8228" fill-rule="nonzero"></path>
                <path d="M491.12,245.59 C491.44,244.43 495.12,246.47 494.72,248.23 C494.32,249.99 490.58,247.47 491.12,245.59 Z" id="Shape" stroke="#914839" stroke-width="0.71" fill="#FFFFFF" fill-rule="nonzero" stroke-linecap="round" stroke-linejoin="round"></path>
                <path d="M504.95,242.58 C505.19,244.01 503.49,245.48 501.16,245.87 C498.83,246.26 496.73,245.41 496.49,243.98 C496.25,242.55 497.96,241.08 500.29,240.69 C502.62,240.3 504.72,241.15 504.95,242.58 Z" id="Shape" fill="#914839" fill-rule="nonzero"></path>
                <path d="M489.15,241.82 C488.787,242.071 488.349,242.188 487.91,242.15 C488.246,240.592 488.666,239.053 489.17,237.54 C490.14,239.22 490.17,241.06 489.15,241.82 Z" id="Shape" fill="#914839" fill-rule="nonzero"></path>
                <path d="M506.58,250.96 C505.885,250.717 505.276,250.275 504.83,249.69" id="Shape" stroke="#914839" stroke-width="0.71" stroke-linecap="round" stroke-linejoin="round"></path>
                <path d="M453.71,232.99 L445.1,236.29 C442.62,234.22 439.59,228.66 439.69,228.47 C439.79,228.28 442.84,223.99 445.44,220.34 L448.1,216.6 L448.96,215.39 C448.96,215.39 451.61,217.2 451.96,218.18 C451.983,218.213 452,218.251 452.01,218.29 C452.706,221.761 453.16,225.276 453.37,228.81 C453.51,230.07 453.58,231.46 453.71,232.99 Z" id="Shape" fill="#B25E47" fill-rule="nonzero"></path>
                <path d="M467.5,282.13 C466.227,283.497 464.545,284.412 462.706,284.737 C460.867,285.061 458.973,284.778 457.31,283.93 C455.337,282.773 453.78,281.023 452.86,278.93 C451.73,276.59 450.64,274.16 449.62,271.73 C443.91,257.98 440.54,243.91 445.17,242.73 L443.98,236.73 L454.7,232.63 L457.1,240.1 C457.1,240.1 459.21,238.34 460.3,240.84 C461.07,242.58 464.81,254.37 467.51,263.19 C467.51,263.33 467.6,263.46 467.64,263.6 L467.64,263.65 C467.76,264.07 467.88,264.47 468.01,264.88 C468.96,268 469.73,270.6 470.1,272 C470.621,273.766 470.654,275.64 470.197,277.424 C469.739,279.207 468.807,280.833 467.5,282.13 Z" id="Shape" fill="#72FE1D" fill-rule="nonzero"></path>
                <path d="M466.47,272 C467.221,270.747 467.712,269.356 467.913,267.909 C468.114,266.462 468.021,264.99 467.64,263.58" id="Shape" stroke="#5EA800" stroke-width="0.71" stroke-linecap="round" stroke-linejoin="round"></path>
                <path d="M447.79,242.13 L454.5,240.47" id="Shape" stroke="#5EA800" stroke-width="0.71" stroke-linecap="round" stroke-linejoin="round"></path>
                <path d="M467.5,282.13 C466.227,283.497 464.545,284.412 462.706,284.736 C460.867,285.061 458.973,284.778 457.31,283.93 C455.337,282.773 453.78,281.023 452.86,278.93 C451.73,276.59 450.64,274.16 449.62,271.73 C450.884,271.669 452.149,271.859 453.34,272.29 C456.16,273.29 458.44,275.48 458.77,277.88 C459.58,283.9 463.92,283.58 467.5,282.13 Z" id="Shape" fill="#5EA800" fill-rule="nonzero"></path>
                <path d="M477.58,178.31 L440.27,232.9 L434.48,241.37 L431.1,246.31 L417.48,266.22 L413.08,272.67 C412.696,273.176 412.133,273.515 411.506,273.617 C410.879,273.718 410.238,273.575 409.714,273.216 C409.19,272.857 408.825,272.31 408.694,271.689 C408.563,271.068 408.676,270.42 409.01,269.88 L413.64,263.1 L427.43,242.93 L431.03,237.66 L436.98,228.95 L473.45,175.57 L477.58,178.31 Z" id="Shape" stroke="#DDDDDD" stroke-width="0.94" fill="#F9F9F9" fill-rule="nonzero" stroke-linecap="round" stroke-linejoin="round"></path>
                <path d="M440.22,232.9 L434.43,241.37 L431.05,246.31 C429.585,245.474 428.343,244.297 427.43,242.88 L431.03,237.61 L436.98,228.9 C437.616,230.539 438.749,231.937 440.22,232.9 Z" id="Shape" stroke="#DDDDDD" stroke-width="0.94" fill="#F9F9F9" fill-rule="nonzero" stroke-linecap="round" stroke-linejoin="round"></path>
                <polygon id="Shape" stroke="#DDDDDD" stroke-width="0.94" fill="#F9F9F9" fill-rule="nonzero" stroke-linecap="round" stroke-linejoin="round" points="470.44 177.12 477.2 180.8 483.1 174.66 471.99 173.56"></polygon>
                <polygon id="Shape" stroke="#DDDDDD" stroke-width="0.94" fill="#F9F9F9" fill-rule="nonzero" stroke-linecap="round" stroke-linejoin="round" points="474.76 173.15 466.79 173.15 465.94 169.2 474.76 169.2"></polygon>
                <polygon id="Shape" stroke="#DDDDDD" stroke-width="0.94" fill="#F9F9F9" fill-rule="nonzero" stroke-linecap="round" stroke-linejoin="round" points="496.04 168.16 484.52 168.16 484.52 174.18 496.04 174.18"></polygon>
                <path d="M492.94,171.22 C492.938,172.302 493.257,173.361 493.857,174.262 C494.456,175.163 495.31,175.865 496.309,176.281 C497.309,176.696 498.409,176.806 499.471,176.596 C500.532,176.386 501.508,175.866 502.274,175.101 C503.04,174.337 503.562,173.362 503.774,172.301 C503.986,171.239 503.878,170.139 503.464,169.139 C503.05,168.139 502.349,167.284 501.45,166.683 C500.55,166.081 499.492,165.76 498.41,165.76 C496.961,165.76 495.571,166.335 494.545,167.359 C493.52,168.382 492.942,169.771 492.94,171.22 Z" id="Shape" stroke="#DDDDDD" stroke-width="0.94" fill="#DDDDDD" fill-rule="nonzero"></path>
                <polygon id="Shape" stroke="#DDDDDD" stroke-width="0.94" fill="#DDDDDD" fill-rule="nonzero" points="470.29 174.46 489.44 175.69 490.78 166.66 470.22 168.31"></polygon>
                <path d="M434.43,241.37 L417.43,266.17 C415.806,265.645 414.436,264.532 413.59,263.05 L430.98,237.61 C431.248,238.449 431.695,239.22 432.291,239.869 C432.887,240.519 433.616,241.031 434.43,241.37 Z" id="Shape" stroke="#DDDDDD" stroke-width="0.94" fill="#F9F9F9" fill-rule="nonzero" stroke-linecap="round" stroke-linejoin="round"></path>
                <path d="M437.17,218.77 C438.75,217.08 444.39,222.89 443.22,224.56 C441.7,226.75 434.58,221.61 437.17,218.77 Z" id="Shape" stroke="#914839" stroke-width="0.71" fill="#B25E47" fill-rule="nonzero" stroke-linecap="round" stroke-linejoin="round"></path>
                <path d="M438.95,215.55 C440.85,214.23 446.16,219.66 445,221.33 C443.47,223.53 436.32,217.37 438.95,215.55 Z" id="Shape" stroke="#914839" stroke-width="0.71" fill="#B25E47" fill-rule="nonzero" stroke-linecap="round" stroke-linejoin="round"></path>
                <path d="M440.48,213.03 C442.48,211.93 447.14,216.87 446.53,218.81 C445.92,220.75 437.11,214.85 440.48,213.03 Z" id="Shape" stroke="#914839" stroke-width="0.71" fill="#B25E47" fill-rule="nonzero" stroke-linecap="round" stroke-linejoin="round"></path>
                <path d="M443.02,211.22 C444.47,209.99 450.02,214.49 449.37,216.44 C448.72,218.39 440.11,213.72 443.02,211.22 Z" id="Shape" stroke="#914839" stroke-width="0.71" fill="#B25E47" fill-rule="nonzero" stroke-linecap="round" stroke-linejoin="round"></path>
                <path d="M453.41,228.81 C451.85,230.62 449.67,232.28 448.08,230.01 C445.34,226.09 448.08,221.12 448.08,221.12 C447.18,220.931 446.297,220.67 445.44,220.34 L444.68,220.06 C441.97,219.06 440.76,216.49 442.29,216.06 C443.11,215.81 445.77,216.06 448.1,216.63 C449.98,217.06 451.64,217.63 452,218.21 C452.023,218.243 452.04,218.281 452.05,218.32 C452.744,221.781 453.199,225.286 453.41,228.81 Z" id="Shape" fill="#B25E47" fill-rule="nonzero"></path>
                <path d="M446.87,226.29 C446.849,224.494 447.264,222.72 448.08,221.12 C447.18,220.931 446.297,220.67 445.44,220.34 L444.68,220.06 C441.97,219.06 440.76,216.49 442.29,216.06 C443.11,215.81 445.77,216.06 448.1,216.63 C449.98,217.06 451.64,217.63 452,218.21 C452.023,218.243 452.04,218.281 452.05,218.32 C452.297,219.392 452.488,220.477 452.62,221.57" id="Shape" stroke="#914839" stroke-width="0.71" stroke-linecap="round" stroke-linejoin="round"></path>
                <path d="M438.38,208.55 C428.635,203.684 419.183,198.255 410.07,192.29 C407.93,190.95 406.07,189.77 404.41,188.81 C398.681,186.457 393.499,182.947 389.19,178.5 C376.83,165.22 382.95,149.63 401.11,153.22 L401.29,153.22 C401.68,153.41 402.07,153.61 402.47,153.83 C404.35,154.83 406.47,156.23 408.85,157.83 C412.31,160.21 416.17,163.09 420.1,166.19 C432.32,175.81 445.3,187.39 449.4,191.47 C458.35,200.37 454.49,216.34 438.38,208.55 Z" id="Shape" fill="#67A8EF" fill-rule="nonzero"></path>
                <path d="M410.07,192.29 C407.93,190.95 406.07,189.77 404.41,188.81 C402.382,187.927 400.409,186.926 398.5,185.81" id="Shape" stroke="#4B84C8" stroke-width="0.71" stroke-linecap="round" stroke-linejoin="round"></path>
                <path d="M408.86,157.85 C408.16,157.98 407.45,158.12 406.75,158.32 C403.599,159.071 400.694,160.617 398.311,162.81 C395.928,165.004 394.148,167.772 393.14,170.85 C392.168,173.564 390.839,176.136 389.19,178.5 C376.83,165.22 382.95,149.63 401.11,153.22 L401.29,153.22 C401.68,153.41 402.07,153.61 402.47,153.83 C404.36,154.9 406.52,156.22 408.86,157.85 Z" id="Shape" fill="#67A8EF" fill-rule="nonzero"></path>
                <path d="M438.38,208.55 C428.635,203.684 419.183,198.255 410.07,192.29 C410.49,180.36 412.49,170.29 420.07,166.21 C432.29,175.83 445.27,187.41 449.37,191.49 C458.35,200.37 454.49,216.34 438.38,208.55 Z" id="Shape" fill="#B25E47" fill-rule="nonzero"></path>
                <path d="M406.67,192.49 C408.9,194.49 413.42,196.89 414.61,196.39 C414.61,196.39 411.46,190.39 415.85,179.93 C420.24,169.47 424,167.45 424,167.45 C424,167.45 421.67,163.88 418.42,163.15 C418.42,163.15 405.22,169.68 406.67,192.49 Z" id="Shape" fill="#4B84C8" fill-rule="nonzero"></path>
                <path d="M441.77,209.91 C448.5,215.91 458.05,213.3 470.23,190.31 C482.41,167.32 484.04,163.15 484.04,163.15 C484.04,163.15 494.04,163.81 494.93,162.49 C495.82,161.17 492.49,160.8 490.28,159.9 C488.07,159 487.49,158.16 488.65,157.64 C489.81,157.12 497.99,157.05 499.78,157.11 C501.57,157.17 502.78,155.63 502.52,154.73 C502.52,154.73 505.39,155.11 505.95,152.73 C506.32,151.13 502.68,151.82 502.68,151.82 C502.68,151.82 503.53,150.71 502.58,150.29 C501.63,149.87 487.25,150.07 483.3,150.44 C479.35,150.81 477.67,151.82 473.24,156.62 C468.81,161.42 447.71,185.62 444.59,189.91 C441.47,194.2 434.58,203.45 441.77,209.91 Z" id="Shape" fill="#B25E47" fill-rule="nonzero"></path>
                <path d="M452.07,180.8 C448.48,185.02 445.6,188.48 444.59,189.87" id="Shape" stroke="#914839" stroke-width="0.71" stroke-linecap="round" stroke-linejoin="round"></path>
                <path d="M487.81,163.3 C490.76,163.36 494.43,163.3 494.93,162.49 C495.77,161.17 492.49,160.8 490.28,159.9 C488.07,159 487.49,158.16 488.65,157.64 C489.81,157.12 497.99,157.05 499.78,157.11 C501.57,157.17 502.78,155.63 502.52,154.73 C502.52,154.73 505.39,155.11 505.95,152.73 C506.32,151.13 502.68,151.82 502.68,151.82 C502.68,151.82 503.53,150.71 502.58,150.29 C500.409,150.042 498.223,149.961 496.04,150.05" id="Shape" stroke="#914839" stroke-width="0.71" stroke-linecap="round" stroke-linejoin="round"></path>
                <path d="M484.04,163.15 L484.7,161.11" id="Shape" stroke="#914839" stroke-width="0.71" stroke-linecap="round" stroke-linejoin="round"></path>
                <path d="M502.52,154.73 L491.3,154.98" id="Shape" stroke="#914839" stroke-width="0.71" stroke-linecap="round" stroke-linejoin="round"></path>
                <path d="M502.68,151.78 L491.05,152.66" id="Shape" stroke="#914839" stroke-width="0.71" stroke-linecap="round" stroke-linejoin="round"></path>
                <path d="M415.58,435.49 C415.58,435.49 438.15,449.69 437.18,451.86 C436.21,454.03 402.18,451.86 399.77,451.86 C395.77,451.86 397.9,432.6 397.9,432.6 L415.58,435.49 Z" id="Shape" fill="#67A8EF" fill-rule="nonzero"></path>
                <path d="M341.12,435.22 C341.12,435.22 320.51,448.22 321.4,450.22 C322.29,452.22 353.4,450.22 355.56,450.22 C359.19,450.22 357.27,432.63 357.27,432.63 L341.12,435.22 Z" id="Shape" fill="#67A8EF" fill-rule="nonzero"></path>
                <path d="M415.58,435.5 L396.48,435.5 L363.08,271.99 C363.08,271.99 356.15,321.09 356,331.4 C355.85,340.83 357.13,420.05 357.35,433.55 C357.35,434.81 357.35,435.5 357.35,435.5 L340.77,435.5 C340.59,433.89 332.6,363.5 331.23,344.03 C330.06,327.32 328.44,310.17 327.79,297.26 C327.67,294.95 327.58,292.79 327.54,290.79 C327.23,277.55 329.23,250.18 335.54,231.3 L380.81,230.19 L391.28,229.94 C390.05,237.51 391.28,246.29 392.36,252.94 C393.44,259.59 415.58,435.5 415.58,435.5 Z" id="Shape" fill="#72FE1D" fill-rule="nonzero"></path>
                <path d="M352.03,244.92 C339.84,239.6 336.03,251.57 339.49,264.87 C342.49,276.71 337.64,284.67 327.78,297.23 C327.66,294.92 327.57,292.76 327.53,290.76 C327.22,277.52 329.22,250.15 335.53,231.27 L380.8,230.16 C381.106,230.81 381.373,231.478 381.6,232.16 C384.11,239.8 364.22,250.22 352.03,244.92 Z" id="Shape" fill="#5EA800" fill-rule="nonzero"></path>
                <path d="M383.98,237.22 C385.036,239.673 386.508,241.926 388.33,243.88" id="Shape" stroke="#5EA800" stroke-width="0.71" stroke-linecap="round" stroke-linejoin="round"></path>
                <path d="M331.93,244.92 C334.38,244.36 338.25,238.45 338.3,237.76" id="Shape" stroke="#5EA800" stroke-width="0.71" stroke-linecap="round" stroke-linejoin="round"></path>
                <path d="M360.82,237.61 C360.428,242.202 360.294,246.813 360.42,251.42" id="Shape" stroke="#5EA800" stroke-width="0.71" stroke-linecap="round" stroke-linejoin="round"></path>
                <path d="M360.82,254.45 C363.97,253.02 365.45,253.22 365.61,251.89 C365.77,250.56 366.37,237.61 366.37,237.61" id="Shape" stroke="#5EA800" stroke-width="0.71" stroke-linecap="round" stroke-linejoin="round"></path>
                <path d="M354.02,266.22 C361.73,265.35 366.37,268.81 366.37,268.81" id="Shape" stroke="#5EA800" stroke-width="0.71" stroke-linecap="round" stroke-linejoin="round"></path>
                <path d="M375.33,156.51 C378.1,168.33 367.98,174.61 364.58,174.61 C361.18,174.61 348.06,165.67 351.26,158.54 C353.96,152.54 360.42,143.73 360.74,136.71 C361.06,129.69 367.67,121.35 374.37,128.17 C375.814,129.605 376.719,131.495 376.93,133.52 C377.57,138.96 374.24,145.61 374.83,153.21 C374.91,154.321 375.077,155.425 375.33,156.51 Z" id="Shape" fill="#B25E47" fill-rule="nonzero"></path>
                <path d="M374.83,153.22 C365.35,152.72 364.65,144.29 368.03,136.98 C369.98,132.77 373.47,132.18 376.93,133.53 C377.58,138.96 374.24,145.61 374.83,153.22 Z" id="Shape" fill="#914839" fill-rule="nonzero"></path>
                <path d="M404.41,188.81 C401.501,195.103 399.136,201.634 397.34,208.33 C393.9,220.56 392.62,231.06 392.08,232.62 C391.54,234.18 391.08,234.49 384.08,234.39 C377.08,234.29 333.15,234.39 333.15,234.39 C333.15,234.39 335.42,205.08 335.41,192.49 C335.448,190.904 335.374,189.316 335.19,187.74 C334.38,182.87 330.85,170.85 331.19,164.02 C331.31,161.69 331.88,159.97 333.19,159.33 C338.67,156.62 345.78,155.54 350.81,155.33 C351.39,155.33 351.95,155.33 352.47,155.33 C352.579,155.455 352.673,155.593 352.75,155.74 C353.12,156.36 353.46,157.26 354.05,158.1 C355.36,159.96 359.49,162.44 362.24,162.3 C364.99,162.16 364.57,168.63 366.24,169.12 C367.91,169.61 368,167.12 368.49,163.6 C368.98,160.08 375.32,156.22 375.32,156.22 C375.32,156.22 375.32,156.1 375.26,155.91 C375.2,155.72 375.21,155.66 375.19,155.51 C376.19,154.94 377.19,154.4 378.24,153.9 C384.41,150.9 391.11,149.17 399.05,152.27 L399.79,152.58 C400.27,152.79 400.72,153.02 401.15,153.25 C403.434,154.442 405.373,156.202 406.78,158.36 C412.87,167.79 406.95,182.86 404.41,188.81 Z" id="Shape" fill="#67A8EF" fill-rule="nonzero"></path>
                <path d="M406.75,158.32 C403.599,159.071 400.694,160.617 398.311,162.81 C395.928,165.004 394.148,167.772 393.14,170.85 C392.168,173.564 390.839,176.136 389.19,178.5 C380.31,191.26 363.69,195.57 354.97,183.12 C352.762,179.95 350.29,176.973 347.58,174.22 C342.76,169.37 337.28,165.67 331.12,164.03 C331.24,161.7 331.81,159.98 333.12,159.34 C338.6,156.63 345.71,155.55 350.74,155.34 C351.32,155.34 351.88,155.34 352.4,155.34 C352.509,155.465 352.603,155.603 352.68,155.75 C353.05,156.37 353.39,157.27 353.98,158.11 C355.29,159.97 359.42,162.45 362.17,162.31 C364.92,162.17 364.5,168.64 366.17,169.13 C367.84,169.62 367.93,167.13 368.42,163.61 C368.91,160.09 375.25,156.23 375.25,156.23 C375.25,156.23 375.25,156.11 375.19,155.92 C375.13,155.73 375.14,155.67 375.12,155.52 C376.12,154.95 377.12,154.41 378.17,153.91 C384.34,150.91 391.04,149.18 398.98,152.28 L399.72,152.59 C400.2,152.8 400.65,153.03 401.08,153.26 C403.373,154.432 405.325,156.175 406.75,158.32 Z" id="Shape" fill="#67A8EF" fill-rule="nonzero"></path>
                <path d="M354.97,164.03 C354.97,164.03 363.37,187.2 368.05,192.97 C368.05,192.97 373.86,170.88 374.32,160.51" id="Shape" stroke="#683F1D" stroke-width="0.94"></path>
                <path d="M377.71,167.41 C374.39,166.74 374.33,162.31 371.34,163.22 C368.35,164.13 370.69,170.85 366.18,170.85 C361.67,170.85 363.6,164.85 361.27,164.66 C358.94,164.47 356.52,167.89 352.87,169.66 C349.22,171.43 346.54,158.25 350.73,155.3 C351.53,154.76 351.99,154.85 352.36,155.3 C352.73,155.75 353.2,157.01 353.94,158.07 C355.25,159.93 359.38,162.41 362.13,162.27 C364.88,162.13 364.46,168.6 366.13,169.09 C367.8,169.58 367.89,167.09 368.38,163.57 C368.87,160.05 375.21,156.19 375.21,156.19 C375.21,156.19 375.15,155.89 375.08,155.48 C374.97,154.83 374.82,153.88 374.78,153.23 C375.937,153.017 377.132,153.246 378.13,153.87 C378.691,154.337 379.05,155.004 379.13,155.73 C379.78,158.94 381.03,168.07 377.71,167.41 Z" id="Shape" fill="#FFFFFF" fill-rule="nonzero"></path>
                <polygon id="Shape" stroke="#683F1D" stroke-width="0.94" fill="#FFFFFF" fill-rule="nonzero" stroke-linecap="round" stroke-linejoin="round" points="374.33 192.49 362.89 192.49 362.89 210.25 374.33 210.25"></polygon>
                <path d="M335.37,192.49 C332.648,198.699 329.577,204.749 326.17,210.61 C321.83,218.01 316.45,225.61 311.17,229.12 C307.43,231.59 303.72,232.02 300.42,228.9 C299.935,228.444 299.529,227.91 299.22,227.32 C295.63,220.58 302.57,205.8 309.48,193.65 C314.42,184.97 319.32,177.65 320.37,175.52 L335.37,192.49 Z" id="Shape" fill="#B25E47" fill-rule="nonzero"></path>
                <path d="M347.71,172.56 C347.715,173.116 347.672,173.672 347.58,174.22 C346.35,182.39 335.35,192.5 335.35,192.5 L320.35,175.5 C322.291,171.122 324.814,167.025 327.85,163.32 C329.258,161.577 331.07,160.204 333.13,159.32 C340.58,156.67 347.49,164.22 347.71,172.56 Z" id="Shape" fill="#67A8EF" fill-rule="nonzero"></path>
                <path d="M347.71,172.56 C347.715,173.116 347.672,173.672 347.58,174.22 C342.76,169.37 337.28,165.67 331.12,164.03 C330.033,163.728 328.927,163.501 327.81,163.35 C329.218,161.607 331.03,160.234 333.09,159.35 C340.58,156.67 347.49,164.22 347.71,172.56 Z" id="Shape" fill="#67A8EF" fill-rule="nonzero"></path>
                <path d="M321.42,170.85 C321.42,170.85 340.77,192.14 340.7,192.49 C340.63,192.84 335.99,197.35 335.99,197.35 C335.99,197.35 318.4,178.14 318.4,177.16 C318.4,176.18 320.44,171.51 321.42,170.85 Z" id="Shape" fill="#4B84C8" fill-rule="nonzero"></path>
                <polygon id="Shape" stroke="#DDDDDD" stroke-width="0.94" fill="#F9F9F9" fill-rule="nonzero" stroke-linecap="round" stroke-linejoin="round" points="369.74 236.29 327.46 236.29 317.87 180.28 360.14 180.28"></polygon>
                <polygon id="Shape" fill="#DDDDDD" fill-rule="nonzero" points="346.44 183.12 332.55 183.12 333.31 177.71 343.82 177.71"></polygon>
                <path d="M341.335,180.052 C342.538,178.742 342.253,176.523 340.699,175.096 C339.145,173.67 336.91,173.575 335.707,174.885 C334.505,176.195 334.79,178.414 336.344,179.841 C337.898,181.267 340.133,181.362 341.335,180.052 Z" id="Shape" fill="#DDDDDD" fill-rule="nonzero"></path>
                <path d="M340.09,178.909 C340.763,178.177 340.605,176.938 339.739,176.143 C338.872,175.347 337.624,175.296 336.952,176.028 C336.28,176.761 336.437,177.999 337.304,178.795 C338.171,179.59 339.418,179.641 340.09,178.909 Z" id="Shape" stroke="#DDDDDD" stroke-width="0.94" fill="#F9F9F9" fill-rule="nonzero" stroke-linecap="round" stroke-linejoin="round"></path>
                <path d="M369.1,215.92 C368.76,217.01 369.33,217.14 369.55,217.98 C369.762,218.695 369.724,219.462 369.442,220.152 C369.161,220.843 368.652,221.417 368,221.78 C366.91,222.52 357.33,222.4 355,222.96 C353.45,223.33 343.45,226.23 334.77,228.96 C330.32,230.35 326.23,231.7 323.77,232.63 C316.53,235.39 301.83,236.21 299.21,227.33 C297.79,222.47 302.79,217.68 309.38,214.48 C314.143,212.113 319.363,210.803 324.68,210.64 C325.12,210.64 325.68,210.64 326.2,210.64 C333.72,210.47 351.07,209.02 352.37,208.95 C353.67,208.88 357.56,206.43 360.63,205.42 C361.022,205.274 361.441,205.208 361.859,205.227 C362.278,205.246 362.689,205.349 363.067,205.53 C363.445,205.711 363.782,205.966 364.059,206.281 C364.337,206.595 364.547,206.962 364.68,207.36 C364.68,207.36 369.28,204.96 370.31,206.59 C371.54,208.52 368.92,210 369.55,211.33 C370.5,213.38 369.45,214.82 369.1,215.92 Z" id="Shape" fill="#B25E47" fill-rule="nonzero"></path>
                <path d="M360.58,205.39 C360.972,205.244 361.391,205.178 361.809,205.197 C362.228,205.216 362.639,205.319 363.017,205.5 C363.395,205.681 363.732,205.936 364.009,206.251 C364.287,206.565 364.497,206.932 364.63,207.33 C364.63,207.33 369.23,204.93 370.26,206.56 C371.49,208.49 368.87,209.97 369.5,211.3 C370.5,213.38 369.43,214.82 369.08,215.92 C368.73,217.02 369.31,217.14 369.53,217.98 C369.742,218.695 369.704,219.462 369.422,220.152 C369.141,220.843 368.632,221.417 367.98,221.78" id="Shape" stroke="#914839" stroke-width="0.71" stroke-linecap="round" stroke-linejoin="round"></path>
                <path d="M309.35,214.47 C314.113,212.103 319.333,210.793 324.65,210.63" id="Shape" stroke="#914839" stroke-width="0.71" stroke-linecap="round" stroke-linejoin="round"></path>
                <path d="M364.65,207.33 L360.07,208.92" id="Shape" stroke="#914839" stroke-width="0.71" stroke-linecap="round" stroke-linejoin="round"></path>
                <path d="M382.26,146.46 C385.778,146.46 388.63,143.608 388.63,140.09 C388.63,136.572 385.778,133.72 382.26,133.72 C378.742,133.72 375.89,136.572 375.89,140.09 C375.89,143.608 378.742,146.46 382.26,146.46 Z" id="Shape" stroke="#72FE1D" stroke-width="0.94" stroke-linecap="round" stroke-linejoin="round"></path>
                <path d="M377.01,146.72 C371.31,147.96 365.82,141.79 363.27,137.91 C355.95,126.75 362.56,114.34 368.88,113.81 C375.2,113.28 379.16,117.94 382.18,127.57 C382.36,128.15 382.52,128.72 382.66,129.29 C383.078,130.928 383.339,132.602 383.44,134.29 C383.79,140.83 381.32,145.78 377.01,146.72 Z" id="Shape" fill="#B25E47" fill-rule="nonzero"></path>
                <path d="M364.45,115.12 L354.86,119.62 C353.16,121.62 350.05,122.3 349.6,119.62 C349.6,119.62 346.34,122 344.31,119.01 C342.64,116.57 345.23,114.67 345.23,114.67 C344.884,114.679 344.542,114.607 344.23,114.46 C342.61,113.63 343.15,110.76 345.41,111.33 C344.309,111.035 343.366,110.326 342.777,109.351 C342.188,108.376 341.999,107.211 342.25,106.1 C342.326,105.55 342.512,105.02 342.799,104.544 C343.085,104.068 343.465,103.654 343.915,103.329 C344.366,103.004 344.878,102.773 345.42,102.651 C345.962,102.53 346.523,102.519 347.07,102.62 C345.68,100.68 347.07,98.0001 349.14,99.23 C348.67,95.2301 355.66,93.3501 357.36,97.7701 C358.75,95.9001 361.8,96.2701 361.76,99.84 C362.61,97.0501 366.69,97.5601 366.15,101.53 C366.15,101.53 367.74,99.09 370.15,103.05 C372.56,107.01 364.45,115.12 364.45,115.12 Z" id="Shape" fill="#683F1D" fill-rule="nonzero"></path>
                <path d="M364.45,115.12 L354.86,119.62 C353.16,121.62 350.05,122.3 349.6,119.62 C349.6,119.62 346.34,122 344.31,119.01 C342.64,116.57 345.23,114.67 345.23,114.67 C346.76,115.83 346.84,118.25 349.4,117 C351.96,115.75 347.8,110.78 350.16,110 C352.52,109.22 352.16,113.37 354.02,113.1 C355.88,112.83 347.32,105.85 352.22,103.51 C357.12,101.17 359.87,106.13 362.16,106.68 C364.45,107.23 364.57,101.04 361.71,99.82 C362.56,97.0301 366.64,97.5401 366.1,101.51 C366.1,101.51 367.69,99.07 370.1,103.03 C372.51,106.99 364.45,115.12 364.45,115.12 Z" id="Shape" fill="#683F1D" fill-rule="nonzero"></path>
                <path d="M378.3,125.78 C378.3,126.027 378.398,126.263 378.572,126.438 C378.746,126.612 378.983,126.71 379.23,126.71 C379.476,126.71 379.713,126.612 379.887,126.438 C380.062,126.263 380.16,126.027 380.16,125.78 C380.16,125.533 380.062,125.297 379.887,125.122 C379.713,124.948 379.476,124.85 379.23,124.85 C378.983,124.85 378.746,124.948 378.572,125.122 C378.398,125.297 378.3,125.533 378.3,125.78 Z" id="Shape" fill="#683F1D" fill-rule="nonzero"></path>
                <path d="M374.32,128.14 C374.833,128.14 375.25,127.724 375.25,127.21 C375.25,126.696 374.833,126.28 374.32,126.28 C373.806,126.28 373.39,126.696 373.39,127.21 C373.39,127.724 373.806,128.14 374.32,128.14 Z" id="Shape" fill="#683F1D" fill-rule="nonzero"></path>
                <path d="M375.76,119.89 C375.76,121.03 380.05,121.32 380.33,120.66 C380.61,120 375.76,117.12 375.76,119.89 Z" id="Shape" fill="#683F1D" fill-rule="nonzero"></path>
                <path d="M368.05,123.08 C368.05,123.93 373.38,122.61 373.05,120.6 C372.72,118.59 367.97,121.59 368.05,123.08 Z" id="Shape" fill="#683F1D" fill-rule="nonzero"></path>
                <path d="M376.31,123.52 C376.2,126.52 377.78,127.23 379.46,127.93 C379.893,128.208 380.205,128.64 380.335,129.138 C380.465,129.637 380.402,130.166 380.16,130.62" id="Shape" stroke="#914839" stroke-width="0.71" stroke-linecap="round" stroke-linejoin="round"></path>
                <path d="M374.1,134.8 C375.88,134.91 380.16,133.72 380.16,133.72 C380.16,133.72 380.16,135.96 378.3,136.44 C376.44,136.92 374.38,135.78 374.1,134.8 Z" id="Shape" stroke="#914839" stroke-width="0.71" fill="#FFFFFF" fill-rule="nonzero" stroke-linecap="round" stroke-linejoin="round"></path>
                <path d="M364.27,136.93 C362.11,139.17 357.71,139.88 356.34,135.72 C354.66,130.62 361.22,127.79 363.89,132.53 L364.27,136.93 Z" id="Shape" fill="#B25E47" fill-rule="nonzero"></path>
                <path d="M362.87,138 C362.142,138.412 361.333,138.658 360.5,138.72" id="Shape" stroke="#914839" stroke-width="0.71" stroke-linecap="round" stroke-linejoin="round"></path>
                <path d="M358,134.76 C358.43,132.29 361.35,131.98 362.16,134.18" id="Shape" stroke="#914839" stroke-width="0.71" stroke-linecap="round" stroke-linejoin="round"></path>
                <path d="M361.76,133.46 C359.14,132.72 358.67,136.72 361.97,135.67" id="Shape" stroke="#914839" stroke-width="0.71" stroke-linecap="round" stroke-linejoin="round"></path>
                <path d="M376.71,117.4 C376.432,117.445 376.148,117.433 375.875,117.364 C375.603,117.295 375.347,117.171 375.124,117 C374.901,116.828 374.715,116.613 374.579,116.367 C374.442,116.121 374.357,115.85 374.33,115.57 C374.07,118.46 370.81,118.51 369.84,115.94 C369.73,118.76 367.06,119.06 365.99,116.94 C367.31,119.88 364.44,121.02 362.69,120.44 C364.54,121.52 364.27,123.36 362.38,123.54 C362.914,123.652 363.408,123.907 363.808,124.279 C364.208,124.651 364.499,125.125 364.65,125.65 C365.04,127.4 363.18,128.88 363.18,128.88 C363.18,128.88 363.71,128.76 364.73,130.13 C365.75,131.5 363.64,132.77 362.9,132.28 C362.16,131.79 362.36,130.28 360.81,130.2 C360.227,130.149 359.64,130.189 359.07,130.32 C358.414,130.46 357.807,130.772 357.312,131.223 C356.816,131.675 356.45,132.25 356.25,132.89 C354.018,129.737 353.124,125.83 353.761,122.02 C354.397,118.21 356.514,114.806 359.65,112.55 C361.598,111.257 363.932,110.675 366.26,110.9 C368.004,111.027 369.718,111.425 371.34,112.08 C371.88,112.29 372.18,112.44 372.18,112.44 C372.18,112.44 372.01,109.44 375.01,109.72 C378.35,110.03 376.71,113.16 376.71,113.16 C378.85,113.45 378.79,117.09 376.71,117.4 Z" id="Shape" fill="#683F1D" fill-rule="nonzero"></path>
                <path d="M365.98,130.22 C365.35,131.5 366.33,133.27 368.18,134.22 C370.03,135.17 372.04,134.85 372.67,133.58 C373.3,132.31 372.32,130.52 370.47,129.58 C368.62,128.64 366.58,128.96 365.98,130.22 Z" id="Shape" fill="#914839" fill-rule="nonzero"></path>
                <path d="M383.44,134.29 C383.071,134.343 382.695,134.303 382.346,134.173 C381.997,134.044 381.685,133.83 381.44,133.55 C380.57,132.46 381.12,130.55 382.67,129.29 C383.084,130.928 383.342,132.603 383.44,134.29 Z" id="Shape" fill="#914839" fill-rule="nonzero"></path>
                <path d="M359.07,130.3 C358.414,130.44 357.807,130.752 357.312,131.203 C356.816,131.655 356.45,132.23 356.25,132.87 C353.95,117.2 361.74,112.36 366.25,110.87 C367.994,110.997 369.708,111.395 371.33,112.05 C360.45,112.53 358.65,122.67 359.07,130.3 Z" id="Shape" fill="#72FE1D" fill-rule="nonzero"></path>
                <path d="M366.76,111.6 C366.31,108.34 366.65,102.6 370.55,99.6 C370.55,99.6 374.32,108.74 367.92,111.6 L366.76,111.6 Z" id="Shape" fill="#72FE1D" fill-rule="nonzero"></path>
                <path d="M353.58,106.09 C358.22,105.75 363.85,109.73 365.35,112.24 C365.34,112.22 358.47,116.45 353.58,106.09 Z" id="Shape" fill="#72FE1D" fill-rule="nonzero"></path>
                <path d="M367.41,111 C368.405,109.524 369.067,107.848 369.35,106.09" id="Shape" stroke="#5EA800" stroke-width="0.71" stroke-linecap="round" stroke-linejoin="round"></path>
                <path d="M359.26,109.68 C360.31,109.99 365.34,112.24 365.34,112.24" id="Shape" stroke="#5EA800" stroke-width="0.71" stroke-linecap="round" stroke-linejoin="round"></path>
                <path d="M364.98,110.86 C366.86,109.62 368.62,110.62 368.69,111.86 C368.76,113.1 365.64,114 364.91,113.33 C364.713,113.187 364.555,112.998 364.448,112.779 C364.341,112.561 364.289,112.32 364.295,112.077 C364.302,111.834 364.368,111.596 364.487,111.384 C364.607,111.172 364.776,110.992 364.98,110.86 Z" id="Shape" fill="#72FE1D" fill-rule="nonzero"></path>
                <path d="M364.98,110.86 C366.86,109.62 368.62,110.62 368.69,111.86 C368.76,113.1 365.64,114 364.91,113.33 C364.713,113.187 364.555,112.998 364.448,112.779 C364.341,112.561 364.289,112.32 364.295,112.077 C364.302,111.834 364.368,111.596 364.487,111.384 C364.607,111.172 364.776,110.992 364.98,110.86 Z" id="Shape" stroke="#5EA800" stroke-width="0.71" stroke-linecap="round" stroke-linejoin="round"></path>
                <path d="M356.84,137.28 C355.182,137.814 353.771,138.925 352.863,140.411 C351.955,141.897 351.611,143.66 351.894,145.378 C352.176,147.097 353.066,148.657 354.401,149.775 C355.736,150.893 357.429,151.494 359.17,151.47 C360.911,151.445 362.586,150.796 363.889,149.641 C365.193,148.486 366.038,146.902 366.272,145.176 C366.505,143.45 366.112,141.698 365.163,140.238 C364.213,138.778 362.772,137.707 361.1,137.22" id="Shape" stroke="#72FE1D" stroke-width="0.94" stroke-linecap="round" stroke-linejoin="round"></path>
                <path d="M272.32,446.83 C272.32,446.83 273.58,467.04 273.96,469.93 C274.22,471.82 272.2,473.08 270.81,473.34 C269.42,473.6 231.69,473.34 228.41,473.34 C225.13,473.34 228.91,467.15 234.41,465.64 C239.91,464.13 251.58,455.79 252.97,448.73 C254.36,441.67 268.87,443.55 272.32,446.83 Z" id="Shape" fill="#72FE1D" fill-rule="nonzero"></path>
                <path d="M367.64,438.4 C367.64,438.4 376.21,454.26 377.64,456.45 C378.56,457.88 377.4,459.66 376.37,460.38 C375.34,461.1 344.71,475.01 342.06,476.22 C339.41,477.43 340.15,471.03 344.06,467.73 C347.97,464.43 354.25,453.36 352.73,447.13 C351.21,440.9 363.63,437.03 367.64,438.4 Z" id="Shape" fill="#72FE1D" fill-rule="nonzero"></path>
                <path d="M238.58,255.53 L303.96,234.53 C303.96,234.53 327.04,335.64 329.06,338.77 C331.08,341.9 371.91,441.18 371.56,441.87 C371.21,442.56 349.67,451.87 349.67,451.87 C349.67,451.87 309.17,384.49 301.15,372.01 C294.65,361.9 276.75,303.85 276.75,303.85 L275.75,451.85 L249.2,452.85 C249.2,452.85 238.14,254.22 238.58,255.53 Z" id="Shape" fill="#683F1D" fill-rule="nonzero"></path>
                <path d="M269.19,290.41 C271.97,290.41 272.99,292.02 273.72,293.92 C274.45,295.82 276.72,303.84 276.72,303.84" id="Shape" stroke="#7F542D" stroke-width="0.71" stroke-linecap="round" stroke-linejoin="round"></path>
                <path d="M258.58,251.98 C258.58,252.3 265.33,278.79 266.51,279.11 C268.009,279.276 269.522,279.276 271.02,279.11" id="Shape" stroke="#7F542D" stroke-width="0.71" stroke-linecap="round" stroke-linejoin="round"></path>
                <path d="M265.21,249.43 C266.43,256.2 270.42,273.74 270.42,273.74" id="Shape" stroke="#7F542D" stroke-width="0.71" stroke-linecap="round" stroke-linejoin="round"></path>
                <path d="M218.64,226.22 C218.25,227.98 211.79,227.65 211.13,227.4 L213.86,220.45 C213.86,220.45 219.03,222.03 218.64,226.22 Z" id="Shape" fill="#4B84C8" fill-rule="nonzero"></path>
                <path d="M217.88,218.42 C212.18,235.93 211.99,251.91 191.64,244.9 C171.29,237.89 193.02,196.27 193.02,196.27 L217.88,218.42 Z" id="Shape" fill="#FEBD9D" fill-rule="nonzero"></path>
                <path d="M305.93,231.09 C306.12,238.96 294.32,244.09 283.53,247.75 C280.53,248.75 277.66,249.66 275.11,250.46 C263.33,254.2 242.11,259.21 238.55,257.89 C235.76,256.84 226.76,232.62 223.05,222.34 C222.05,219.55 221.42,217.79 221.42,217.79 L218.64,226.19 C216.44,224.03 212.07,221.55 207.16,219.19 C197,214.3 184.57,209.91 184.57,209.91 C184.57,209.91 188.16,191.23 191.64,178.91 C192.37,176.31 193.1,173.99 193.79,172.19 C197.79,161.81 202.53,158.31 206.97,158.31 C211.41,158.31 213.16,157.26 221.42,153.41 C221.42,153.41 226.59,148.8 236.58,147.93 C246.57,147.06 261,142.67 272.58,140.57 C273.139,140.464 273.703,140.391 274.27,140.35 C281.56,139.8 284.93,145.09 287.27,151.03 C287.73,152.2 288.14,153.39 288.54,154.58 L289.65,157.96 C290.39,160.12 291.84,165.47 293.59,172.37 C298.45,191.83 305.75,223.68 305.93,231.09 Z" id="Shape" fill="#67A8EF" fill-rule="nonzero"></path>
                <path d="M287.2,151 C278.55,148.93 268.28,150.32 261.97,156.28 C260.226,157.901 258.825,159.857 257.85,162.03 C249.32,180.88 236.61,189.03 224.21,179.29 C214.33,171.51 202.99,169.48 191.64,178.88 C192.37,176.28 193.1,173.96 193.79,172.16 C197.79,161.78 202.53,158.28 206.97,158.28 C211.41,158.28 213.16,157.23 221.42,153.38 C221.42,153.38 226.59,148.77 236.58,147.9 C246.57,147.03 261,142.64 272.58,140.54 C273.139,140.434 273.703,140.361 274.27,140.32 C281.58,139.77 284.9,145.06 287.2,151 Z" id="Shape" fill="#67A8EF" fill-rule="nonzero"></path>
                <path d="M214.58,156.52 C214.58,156.52 224.9,195.58 237.73,203.99 C238.53,203.59 245.73,180.28 243.67,146.88" id="Shape" stroke="#683F1D" stroke-width="0.94"></path>
                <polygon id="Shape" stroke="#683F1D" stroke-width="0.94" fill="#FFFFFF" fill-rule="nonzero" stroke-linecap="round" stroke-linejoin="round" points="242.765 200.188 231.48 202.06 234.386 219.581 245.672 217.708"></polygon>
                <path d="M221.42,217.79 L218.64,226.19 C216.44,224.03 212.07,221.55 207.16,219.19 C213.16,219.37 218.02,215.19 213.82,211.31 C209.62,207.43 208.92,199.63 211.93,193.72 L221.42,217.79 Z" id="Shape" fill="#67A8EF" fill-rule="nonzero"></path>
                <polyline id="Shape" stroke="#4B84C8" stroke-width="0.71" stroke-linecap="round" stroke-linejoin="round" points="221.42 217.79 211.93 193.71 209.14 186.64"></polyline>
                <path d="M305.93,231.09 C306.12,238.96 294.32,244.09 283.53,247.75 C282.33,238.11 292.89,238.82 296.64,228.62 C303.39,210.25 289.46,215.3 281.64,193.71 L284,166.71 L288.45,154.53 L289.56,157.91 C290.3,160.07 291.75,165.42 293.5,172.32 C298.45,191.83 305.75,223.68 305.93,231.09 Z" id="Shape" fill="#67A8EF" fill-rule="nonzero"></path>
                <path d="M241.69,147.9 C241.204,150.816 239.942,153.548 238.036,155.809 C236.131,158.07 233.652,159.777 230.86,160.75 C221.08,164.28 216.64,159.81 216.3,155.5 C216.3,155.2 216.25,154.89 216.23,154.58 C215.9,149.78 215.91,144.38 215.06,134.89 C214.945,133.26 215.052,131.621 215.38,130.02 C217.22,120.11 225.84,108.91 232.01,124.79 C240.63,147.04 241.69,147.9 241.69,147.9 Z" id="Shape" fill="#FEBD9D" fill-rule="nonzero"></path>
                <path d="M216.23,154.58 C215.9,149.78 215.91,144.38 215.06,134.89 C214.945,133.26 215.052,131.621 215.38,130.02 C220.74,130.31 227.61,132.49 228.16,137.53 C228.98,145.07 227.47,153.67 216.23,154.58 Z" id="Shape" fill="#F4A789" fill-rule="nonzero"></path>
                <path d="M284,225.84 C283.85,228.77 275.36,228.62 275.36,228.62 L278.01,213.95 C280.019,215.175 281.645,216.938 282.704,219.039 C283.763,221.141 284.212,223.496 284,225.84 Z" id="Shape" fill="#67A8EF" fill-rule="nonzero"></path>
                <path d="M250.58,208.28 C246.41,227.35 239.71,239.54 247.99,249.43 C256.27,259.32 269.59,252.79 273.99,241.34 C278.39,229.89 281.64,212.75 281.64,212.75 L250.58,208.28 Z" id="Shape" fill="#FEBD9D" fill-rule="nonzero"></path>
                <path d="M293.52,172.34 C291.68,191.84 283.99,225.84 283.99,225.84 C283.99,225.84 278.29,217.84 247.99,214.75 C247.99,214.75 253.09,178.18 261.99,156.28 C265.49,147.6 269.58,141.23 274.18,140.34 L274.26,140.34 C285.73,138.14 290.41,143.78 292.47,152.8 C293.2,156.216 293.665,159.683 293.86,163.17 C293.975,166.231 293.861,169.296 293.52,172.34 Z" id="Shape" fill="#67A8EF" fill-rule="nonzero"></path>
                <path d="M292.45,152.78 C290.761,152.021 289.003,151.425 287.2,151 C278.55,148.93 268.28,150.32 261.97,156.28 C265.47,147.6 269.56,141.23 274.16,140.34 L274.24,140.34 C285.71,138.12 290.39,143.76 292.45,152.78 Z" id="Shape" fill="#67A8EF" fill-rule="nonzero"></path>
                <path d="M292.94,177.48 C290.45,197.26 283.99,225.84 283.99,225.84" id="Shape" stroke="#4B84C8" stroke-width="0.71" stroke-linecap="round" stroke-linejoin="round"></path>
                <path d="M248.02,214.75 C248.02,214.75 259.02,170.75 262.34,169.2" id="Shape" stroke="#4B84C8" stroke-width="0.71" stroke-linecap="round" stroke-linejoin="round"></path>
                <path d="M234.67,124.53 C234.368,127.228 233.874,129.902 233.19,132.53 C229.31,147.86 214.02,152.01 208.06,143.64 C206.22,141.05 205.71,136.06 206.34,130.59 C206.555,128.753 206.889,126.933 207.34,125.14 C208.294,120.866 210.015,116.8 212.42,113.14 C214.56,110.07 217.2,107.9 220.25,107.37 C226.91,106.21 231.82,108.21 233.87,113.85 C234.509,115.763 234.846,117.763 234.87,119.78 C234.91,121.366 234.843,122.953 234.67,124.53 Z" id="Shape" fill="#FEBD9D" fill-rule="nonzero"></path>
                <path d="M234.88,119.83 C234.88,119.83 246.12,122.23 250.69,126.3 C255.26,130.37 253.16,133.38 247.95,133.04 C242.74,132.7 231.03,129.67 231.03,129.67 L234.88,119.83 Z" id="Shape" fill="#4B84C8" fill-rule="nonzero"></path>
                <path d="M234.67,124.53 C233.154,125.392 231.572,126.134 229.94,126.75 C228.22,127.29 226.84,126.94 226.94,125.66 C227.04,124.38 227.64,119.17 223.6,116.53 C219.56,113.89 230.44,113.01 230.44,113.01 L233.81,113.9 C234.449,115.813 234.786,117.813 234.81,119.83 C234.868,121.398 234.821,122.968 234.67,124.53 Z" id="Shape" fill="#B25E47" fill-rule="nonzero"></path>
                <path d="M218.06,123.68 C218.574,123.68 218.99,123.264 218.99,122.75 C218.99,122.236 218.574,121.82 218.06,121.82 C217.547,121.82 217.13,122.236 217.13,122.75 C217.13,123.264 217.547,123.68 218.06,123.68 Z" id="Shape" fill="#683F1D" fill-rule="nonzero"></path>
                <path d="M210.79,122.33 C210.79,122.577 210.888,122.813 211.063,122.988 C211.237,123.162 211.474,123.26 211.72,123.26 C211.967,123.26 212.203,123.162 212.378,122.988 C212.552,122.813 212.65,122.577 212.65,122.33 C212.65,122.083 212.552,121.847 212.378,121.672 C212.203,121.498 211.967,121.4 211.72,121.4 C211.474,121.4 211.237,121.498 211.063,121.672 C210.888,121.847 210.79,122.083 210.79,122.33 Z" id="Shape" fill="#683F1D" fill-rule="nonzero"></path>
                <path d="M234.88,119.83 C228.88,118.09 218,114.83 212.4,113.19 C214.54,110.12 217.18,107.95 220.23,107.42 C228.85,105.92 234.58,109.73 234.88,119.83 Z" id="Shape" fill="#67A8EF" fill-rule="nonzero"></path>
                <path d="M229.94,126.75 C230.43,123.5 235.54,120.8 238.3,123.34 C241.77,126.54 239.15,132.83 232.67,133.48 C232.38,133.48 229.94,126.75 229.94,126.75 Z" id="Shape" fill="#FEBD9D" fill-rule="nonzero"></path>
                <path d="M235.18,132.89 C233.705,133.57 232.05,133.756 230.46,133.42" id="Shape" stroke="#F4A789" stroke-width="0.71" stroke-linecap="round" stroke-linejoin="round"></path>
                <path d="M230.86,129.22 C231.29,127.13 234.35,124.66 236.58,125.66" id="Shape" stroke="#F4A789" stroke-width="0.71" stroke-linecap="round" stroke-linejoin="round"></path>
                <path d="M231.64,127.63 C234.22,125.18 237.38,129.68 233.64,130.63" id="Shape" stroke="#F4A789" stroke-width="0.71" stroke-linecap="round" stroke-linejoin="round"></path>
                <path d="M211.04,129.98 C210.53,127.21 211.04,125.72 212.65,124.85 C214.26,123.98 215.92,122.69 215.56,120.23" id="Shape" stroke="#F4A789" stroke-width="0.71" stroke-linecap="round" stroke-linejoin="round"></path>
                <path d="M216.91,117.72 C216.65,119.3 221.8,120.51 222.03,119.33 C222.26,118.15 217.33,115.08 216.91,117.72 Z" id="Shape" fill="#B25E47" fill-rule="nonzero"></path>
                <path d="M209.85,118.62 C209.85,119.25 214.76,119.49 214.62,117.37 C214.48,115.25 209.7,117.06 209.85,118.62 Z" id="Shape" fill="#B25E47" fill-rule="nonzero"></path>
                <path d="M213.23,132.65 C215.76,133.17 218.68,132.29 219.36,128.78" id="Shape" stroke="#F4A789" stroke-width="0.71" stroke-linecap="round" stroke-linejoin="round"></path>
                <path d="M229.02,125.96 C229.6,127.34 228.29,129.19 226.11,130.11 C223.93,131.03 221.69,130.65 221.11,129.27 C220.53,127.89 221.84,126.03 224.02,125.12 C226.2,124.21 228.44,124.58 229.02,125.96 Z" id="Shape" fill="#F4A789" fill-rule="nonzero"></path>
                <path d="M209.13,129.99 C208.773,130.35 208.32,130.598 207.825,130.707 C207.33,130.815 206.815,130.778 206.34,130.6 C206.555,128.763 206.889,126.943 207.34,125.15 C207.374,125.167 207.405,125.191 207.43,125.22 C209.28,126.67 210.05,128.8 209.13,129.99 Z" id="Shape" fill="#F4A789" fill-rule="nonzero"></path>
                <path d="M210.42,236.29 C211.36,257.15 170.42,238.29 161.02,232.72 C151.62,227.15 124.32,207.61 124.32,207.61 L135.19,190.95 C133.15,192.59 209.58,217.14 210.42,236.29 Z" id="Shape" fill="#FEBD9D" fill-rule="nonzero"></path>
                <path d="M135.19,190.95 C133.66,192.18 176.26,206.3 198.02,221.36" id="Shape" stroke="#F4A789" stroke-width="0.71" stroke-linecap="round" stroke-linejoin="round"></path>
                <path d="M174.017,90.8418 L107.113,101.655 C101.722,102.526 98.0579,107.603 98.9292,112.994 L115.702,216.775 C116.573,222.166 121.65,225.83 127.041,224.959 L193.945,214.146 C199.336,213.275 203,208.198 202.129,202.807 L185.356,99.026 C184.485,93.6345 179.408,89.9705 174.017,90.8418 Z" id="Shape" stroke="#DDDDDD" stroke-width="1.88535" fill="#F9F9F9" fill-rule="nonzero" stroke-linecap="round" stroke-linejoin="round"></path>
                <path d="M119.67,194.14 C119.97,197.52 110.41,195.42 110.48,192.4 C110.55,189.38 119.33,190.22 119.67,194.14 Z" id="Shape" stroke="#F4A789" stroke-width="0.71" fill="#FEBD9D" fill-rule="nonzero" stroke-linecap="round" stroke-linejoin="round"></path>
                <path d="M118.09,189.41 C117.74,193.29 107.09,189.03 107.75,185.63 C108.41,182.23 118.49,184.93 118.09,189.41 Z" id="Shape" stroke="#F4A789" stroke-width="0.71" fill="#FEBD9D" fill-rule="nonzero" stroke-linecap="round" stroke-linejoin="round"></path>
                <path d="M118.09,183.72 C117.69,187.59 105.51,183.33 106.3,179.93 C107.09,176.53 118.58,179.22 118.09,183.72 Z" id="Shape" stroke="#F4A789" stroke-width="0.71" fill="#FEBD9D" fill-rule="nonzero" stroke-linecap="round" stroke-linejoin="round"></path>
                <path d="M117.18,179.54 C116.5,183.54 105.3,178.21 106.33,174.74 C107.36,171.27 117.98,174.91 117.18,179.54 Z" id="Shape" stroke="#F4A789" stroke-width="0.71" fill="#FEBD9D" fill-rule="nonzero" stroke-linecap="round" stroke-linejoin="round"></path>
                <polygon id="Shape" fill="#DDDDDD" fill-rule="nonzero" points="168.005 117.306 121.876 124.959 123.527 134.913 169.656 127.259"></polygon>
                <path d="M172.864,192.56 C182.54,182.607 182.316,166.694 172.363,157.018 C162.41,147.341 146.497,147.565 136.82,157.518 C127.144,167.471 127.368,183.384 137.321,193.061 C147.274,202.737 163.187,202.513 172.864,192.56 Z" id="Shape" stroke="#DDDDDD" stroke-width="0.94394" stroke-linecap="round" stroke-linejoin="round"></path>
                <polygon id="Shape" fill="#DDDDDD" fill-rule="nonzero" points="181.01 388.51 213.49 373.72 211.83 370.08 210.19 370.83 209.91 368.59 160.43 374.83 160.93 378.8 204.85 373.26 180.12 384.52 160.94 379.49 159.37 383.21 180.02 388.63 180.15 388.9 180.49 388.75 180.91 388.86"></polygon>
                <polygon id="Shape" stroke="#DDDDDD" stroke-width="0.94" fill="#F9F9F9" fill-rule="nonzero" stroke-linecap="round" stroke-linejoin="round" points="229.75 387.87 223.53 388.9 183.92 341.54 190.14 340.51"></polygon>
                <polygon id="Shape" stroke="#DDDDDD" stroke-width="0.94" fill="#F9F9F9" fill-rule="nonzero" stroke-linecap="round" stroke-linejoin="round" points="150.74 400.97 156.96 399.95 179.16 342.33 172.95 343.36"></polygon>
                <polygon id="Shape" stroke="#DDDDDD" stroke-width="0.94" fill="#F9F9F9" fill-rule="nonzero" stroke-linecap="round" stroke-linejoin="round" points="175.86 396.81 182.08 395.78 184.97 341.36 178.76 342.39"></polygon>
                <polygon id="Shape" stroke="#DDDDDD" stroke-width="0.94" fill="#F9F9F9" fill-rule="nonzero" stroke-linecap="round" stroke-linejoin="round" points="183.17 330.55 176.32 331.69 166.33 271.48 162.65 249.28 157.55 218.47 164.4 217.35 169.14 245.88 169.63 248.85 173.13 269.96"></polygon>
                <path d="M270.05,247.97 C266.14,259.47 237.74,259.35 226.32,260.68 C215.32,261.95 187.04,264.68 187.04,264.68 C187.04,264.68 174.37,270.37 167.38,271.38 C160.39,272.39 160.38,270.11 160.25,267.84 C160.12,265.57 158.77,264.84 159.37,263.05 C159.97,261.26 157.37,259.49 157.85,257.1 C158.33,254.71 154.69,257.22 154.57,253.05 C154.45,248.88 165.86,249.26 169.63,248.88 L169.14,245.88 C169.14,245.88 173.02,244.65 174.78,244.88 C176.54,245.11 181.61,247.31 183.78,246.55 C185.95,245.79 228.3,229.55 236.59,226.7 C248.02,222.83 278.63,222.72 270.05,247.97 Z" id="Shape" fill="#FEBD9D" fill-rule="nonzero"></path>
                <path d="M236.58,226.74 C243.12,224.759 250.027,224.304 256.77,225.41" id="Shape" stroke="#F4A789" stroke-width="0.71" stroke-linecap="round" stroke-linejoin="round"></path>
                <path d="M167.38,271.35 C160.38,272.35 160.38,270.08 160.25,267.81 C160.12,265.54 158.77,264.81 159.37,263.02 C159.97,261.23 157.37,259.46 157.85,257.07 C158.33,254.68 154.69,257.19 154.57,253.02 C154.45,248.85 165.86,249.23 169.63,248.85 L169.14,245.85 C169.14,245.85 173.02,244.62 174.78,244.85" id="Shape" stroke="#F4A789" stroke-width="0.71" stroke-linecap="round" stroke-linejoin="round"></path>
                <path d="M169.63,248.85 C171.7,248.92 175.52,248.85 175.52,248.85" id="Shape" stroke="#F4A789" stroke-width="0.71" stroke-linecap="round" stroke-linejoin="round"></path>
                <path d="M189.17,244.54 L215.28,234.63" id="Shape" stroke="#F4A789" stroke-width="0.71" stroke-linecap="round" stroke-linejoin="round"></path>
                <path d="M186.95,329.903 L172.576,332.288 C170.299,332.666 168.759,334.818 169.137,337.096 L169.996,342.275 C170.374,344.552 172.526,346.092 174.804,345.714 L189.177,343.33 C191.455,342.952 192.994,340.799 192.617,338.522 L191.757,333.343 C191.38,331.065 189.227,329.525 186.95,329.903 Z" id="Shape" fill="#DDDDDD" fill-rule="nonzero"></path>
            </g>
        </g>
    </g>
</svg>