<?xml version="1.0" encoding="UTF-8"?>
<svg width="521px" height="405px" viewBox="0 0 521 405" version="1.1" xmlns="http://www.w3.org/2000/svg" xmlns:xlink="http://www.w3.org/1999/xlink">
    <!-- Generator: Sketch 48.2 (47327) - http://www.bohemiancoding.com/sketch -->
    <title>Group 8</title>
    <desc>Created with Sketch.</desc>
    <defs>
        <rect id="path-1" x="0" y="0" width="213" height="150"></rect>
        <rect id="path-3" x="0" y="0" width="213" height="155"></rect>
        <rect id="path-5" x="0" y="0" width="213" height="168"></rect>
    </defs>
    <g id="Landing-page-Litehires" stroke="none" stroke-width="1" fill="none" fill-rule="evenodd" transform="translate(-744.000000, -143.000000)">
        <g id="Group-8" transform="translate(745.000000, 143.000000)">
            <path d="M177.03,43.0303 C178.63,41.8303 180.24,40.6503 181.88,39.5003" id="Shape" stroke="#DDDDDD" stroke-width="3" stroke-linecap="round" stroke-linejoin="round"></path>
            <path d="M191.58,33.1403 C218.282,16.59 249.065,7.80174 280.48,7.76027 C293.633,7.75445 306.74,9.30184 319.53,12.3703" id="Shape" stroke="#DDDDDD" stroke-width="3" stroke-linecap="round" stroke-linejoin="round" stroke-dasharray="11.57"></path>
            <path d="M325.08,13.8203 C327.007,14.3536 328.927,14.9203 330.84,15.5203" id="Shape" stroke="#DDDDDD" stroke-width="3" stroke-linecap="round" stroke-linejoin="round"></path>
            <path d="M192.37,394.43 C190.66,393.43 188.96,392.33 187.29,391.24" id="Shape" stroke="#DDDDDD" stroke-width="3" stroke-linecap="round" stroke-linejoin="round"></path>
            <path d="M177.58,384.42 C142.41,358.07 115.82,318.6 103.46,272.3" id="Shape" stroke="#DDDDDD" stroke-width="3" stroke-linecap="round" stroke-linejoin="round" stroke-dasharray="11.9"></path>
            <path d="M101.96,266.52 C101.5,264.58 101.063,262.63 100.65,260.67" id="Shape" stroke="#DDDDDD" stroke-width="3" stroke-linecap="round" stroke-linejoin="round"></path>
            <path d="M463.34,242.13 C463.094,244.13 462.82,246.11 462.52,248.07" id="Shape" stroke="#DDDDDD" stroke-width="3" stroke-linecap="round" stroke-linejoin="round"></path>
            <path d="M460.35,260.13 C457.448,274.128 453.188,287.809 447.63,300.98" id="Shape" stroke="#DDDDDD" stroke-width="3" stroke-linecap="round" stroke-linejoin="round" stroke-dasharray="12.25"></path>
            <path d="M445.17,306.63 C444.337,308.45 443.484,310.254 442.61,312.04" id="Shape" stroke="#DDDDDD" stroke-width="3" stroke-linecap="round" stroke-linejoin="round"></path>
            <path d="M144.2,315.54 L89.2602,323.66 C88.2785,323.801 87.2797,323.572 86.4574,323.017 C85.6351,322.463 85.0481,321.623 84.8102,320.66 L78.4502,290.98 C78.3461,290.516 78.3404,290.035 78.4334,289.568 C78.5264,289.102 78.716,288.66 78.9901,288.271 C79.2642,287.882 79.6167,287.554 80.0249,287.31 C80.4331,287.065 80.8879,286.909 81.3602,286.85 L136.3,278.74 C137.282,278.6 138.281,278.829 139.103,279.383 C139.925,279.938 140.512,280.778 140.75,281.74 L147.11,311.35 C147.224,311.819 147.237,312.306 147.148,312.78 C147.06,313.254 146.872,313.703 146.597,314.099 C146.322,314.495 145.966,314.829 145.553,315.077 C145.14,315.325 144.679,315.483 144.2,315.54 Z" id="Shape" stroke="#DDDDDD" stroke-width="2" fill="#F9F9F9" fill-rule="nonzero" stroke-linecap="round" stroke-linejoin="round"></path>
            <path d="M86.5802,291.69 C87.1702,291.58 119.33,302.1 119.33,302.1 L134.33,283.18" id="Shape" stroke="#DDDDDD" stroke-width="2" stroke-linecap="round" stroke-linejoin="round"></path>
            <path d="M94.8802,313.29 L112.78,299.97" id="Shape" stroke="#DDDDDD" stroke-width="2" stroke-linecap="round" stroke-linejoin="round"></path>
            <path d="M127.93,299.97 L141.55,304.28" id="Shape" stroke="#DDDDDD" stroke-width="2" stroke-linecap="round" stroke-linejoin="round"></path>
            <path d="M167.29,361.62 L152.99,364.31 C152.798,364.346 152.618,364.432 152.47,364.56 L143.47,372.42 C143.316,372.552 143.128,372.638 142.928,372.67 C142.728,372.701 142.523,372.677 142.336,372.599 C142.148,372.522 141.986,372.394 141.867,372.23 C141.748,372.066 141.676,371.872 141.66,371.67 L140.13,347.98 C140.115,347.781 140.157,347.581 140.251,347.404 C140.344,347.227 140.486,347.08 140.66,346.98 C140.812,346.893 140.985,346.846 141.16,346.846 C141.336,346.846 141.508,346.893 141.66,346.98 L167.58,359.58 C167.788,359.679 167.958,359.842 168.066,360.045 C168.175,360.247 168.216,360.479 168.184,360.707 C168.151,360.934 168.047,361.146 167.887,361.31 C167.726,361.474 167.517,361.583 167.29,361.62 Z" id="Shape" stroke="#DDDDDD" stroke-width="2" fill="#FFFFFF" fill-rule="nonzero" stroke-linecap="round" stroke-linejoin="round"></path>
            <path d="M167.29,361.62 L152.99,364.31 C152.798,364.346 152.618,364.432 152.47,364.56 L140.66,346.98 C140.812,346.893 140.985,346.846 141.16,346.846 C141.336,346.846 141.508,346.893 141.66,346.98 L167.58,359.58 C167.788,359.679 167.958,359.842 168.066,360.045 C168.175,360.247 168.216,360.479 168.184,360.707 C168.151,360.934 168.047,361.146 167.887,361.31 C167.726,361.474 167.517,361.583 167.29,361.62 Z" id="Shape" stroke="#DDDDDD" stroke-width="2" fill="#DDDDDD" fill-rule="nonzero" stroke-linecap="round" stroke-linejoin="round"></path>
            <g id="Clipped" transform="translate(0.000000, 76.000000)">
                <mask id="mask-2" fill="white">
                    <use xlink:href="#path-1"></use>
                </mask>
                <g id="Rectangle-path"></g>
                <g id="Group" mask="url(#mask-2)">
                    <g transform="translate(15.000000, 14.000000)" id="Shape">
                        <path d="M153.34,130.67 C157.92,132.97 163.85,128.67 170.44,122.85 L163.3,116.45 C163.3,116.45 152.1,126.89 153.34,130.67 Z" stroke="none" fill="#A00336" fill-rule="nonzero"></path>
                        <polygon stroke="none" fill="#FEBD9D" fill-rule="nonzero" points="214.39 103.14 197.86 136.83 163.09 136.83 157.3 120.65 176.98 103.14"></polygon>
                        <path d="M187.45,103.14 L171.17,128.58" stroke="#F4A789" stroke-width="0.75" fill="none" stroke-linecap="round" stroke-linejoin="round"></path>
                        <path d="M181.25,105.77 C169.46,112.5 153.34,130.67 153.34,130.67 L149.01,139.27 L146.49,144.27 L60.9499,144.27 C58.9499,137.06 57.2299,127.67 55.9499,120.06 C54.9499,114.17 54.3099,109.35 54.0499,107.46 L53.9399,106.61 C51.7599,108.54 50.6999,108.61 50.6999,108.61 L46.6999,119.18 L46.3299,120.18 C32.1299,110.68 6.1499,109 6.1499,109 L9.6399,97.21 C8.5914,94.787 8.2986,92.103 8.7999,89.51 C9.3699,86.56 17.1899,72.88 25.0699,61.4 C28.1769,56.73 31.6228,52.295 35.3799,48.13 C35.6899,47.81 36.0099,47.5 36.3299,47.21 C45.8399,38.46 61.5999,39.73 71.9599,40.67 C73.4999,40.81 74.9599,40.91 76.3199,40.97 C79.3811,41.131 82.4487,41.131 85.51,40.97 C88.02,40.84 89.4,40.65 89.4,40.65 C89.72,39.19 90.02,37.65 90.32,35.96 C92.19,25.03 93.24,10.44 91.57,0.8503 L117.89,12.6 C118.34,17.38 120.1,27.87 121.31,34.77 C121.99,38.63 122.48,41.37 122.48,41.37 C124.6,40.98 126.6,40.63 128.48,40.31 C155.2,35.78 162.08,37.48 169.48,50.51 C169.68,50.85 169.87,51.21 170.07,51.59 C174.63,60.59 177.74,78.59 179.47,91.31 C180.7,99.67 181.25,105.77 181.25,105.77 Z" stroke="none" fill="#F31D62" fill-rule="nonzero"></path>
                        <path d="M181.25,105.77 C169.69,112.38 153.94,130 153.35,130.65 C153.56,130.21 157,123.09 157.35,120.65 C157.7,118.21 156.48,110.99 154.59,104.2 L179.59,91.35 C180.7,99.67 181.25,105.77 181.25,105.77 Z" stroke="none" fill="#A00336" fill-rule="nonzero"></path>
                        <path d="M92.23,109.66 C92.04,119.24 69.6,120.59 55.98,120.06 C54.98,114.17 54.34,109.35 54.08,107.46 L53.97,106.61 C58.9195,101.589 63.0106,95.788 66.08,89.44 C74.08,94.9 63.82,100.51 63.43,103.14 C62.37,110.35 92.5,95.98 92.23,109.66 Z" stroke="none" fill="#A00336" fill-rule="nonzero"></path>
                        <path d="M170.17,51.63 C162.37,48.92 153.61,49.01 147.54,58.7 C133.87,80.52 108.21,97.54 82.54,71.78 C79.0299,68.164 75.1899,64.883 71.07,61.98 C55.9,51.6 43.07,53.7 25.13,61.39 C28.237,56.72 31.6829,52.285 35.44,48.12 C35.75,47.8 36.07,47.49 36.39,47.2 C45.9,38.45 61.66,39.72 72.02,40.66 C73.56,40.8 75.02,40.9 76.38,40.96 C79.4412,41.121 82.5088,41.121 85.57,40.96 C88.08,40.83 89.46,40.64 89.46,40.64 C89.78,39.18 90.08,37.64 90.38,35.95 C92.25,25.02 93.3,10.43 91.63,0.8403 L117.95,12.59 C118.4,17.37 120.16,27.86 121.37,34.76 C122.05,38.62 122.54,41.36 122.54,41.36 C124.66,40.97 126.66,40.62 128.54,40.3 C155.26,35.77 162.14,37.47 169.54,50.5 C169.78,50.89 169.97,51.25 170.17,51.63 Z" stroke="none" fill="#F31D62" fill-rule="nonzero"></path>
                        <path d="M128.58,40.35 C128.5,47.11 127.77,59.43 124.83,68.14 C121.03,79.44 116.55,74.85 111.63,70.39 C107.18,66.33 90.96,52.82 76.3899,40.99 C79.4511,41.151 82.5187,41.151 85.58,40.99 C88.09,40.86 89.47,40.67 89.47,40.67 C89.79,39.21 90.09,37.67 90.39,35.98 C100.96,35.29 113.64,34.61 121.39,34.79 C122.07,38.65 122.56,41.39 122.56,41.39 C124.66,40.98 126.66,40.67 128.58,40.35 Z" stroke="none" fill="#A00336" fill-rule="nonzero"></path>
                        <path d="M118.22,66.19 C118.22,66.19 95.7,50.87 85.58,40.98 C88.09,40.85 89.47,40.66 89.47,40.66 C91.88,29.59 93.56,11.91 91.64,0.8603 L108.75,8.4903 L117.96,12.61 C118.29,16.14 119.35,22.84 120.36,28.86 C121.48,35.52 122.55,41.38 122.55,41.38 C123.37,60.8 118.22,66.19 118.22,66.19 Z" stroke="none" fill="#FEBD9D" fill-rule="nonzero"></path>
                        <path d="M153.34,130.67 C153.55,130.23 156.99,123.11 157.34,120.67 C157.69,118.23 156.47,111.01 154.58,104.22 C154.48,103.87 154.38,103.51 154.27,103.16" stroke="#4B84C8" stroke-width="0.75" fill="none" stroke-linecap="round" stroke-linejoin="round"></path>
                        <path d="M120.35,28.89 C102.58,29.98 104.58,10.88 104.73,10.4 L108.73,8.5203 L117.94,12.64 C118.28,16.17 119.34,22.87 120.35,28.89 Z" stroke="none" fill="#F4A789" fill-rule="nonzero"></path>
                        <path d="M6.21,108.98 C5.71,110.45 5.71,112.05 16.86,115.19 L18.58,107.88 C18.58,107.88 8.44,105.14 6.21,108.98 Z" stroke="none" fill="#67A8EF" fill-rule="nonzero"></path>
                        <path d="M12.32,105.13 C9.7,113.67 0.56,142.27 0.56,142.27 C-1.92,152.76 29.1899,159.61 40.2599,141.79 L46.35,113.1 C36.2855,106.551 24.246,103.731 12.32,105.13 Z" stroke="none" fill="#FEBD9D" fill-rule="nonzero"></path>
                        <path d="M63.47,94.27 C63.4312,94.327 63.3977,94.387 63.37,94.45 C62.05,96.56 60.58,98.71 58.98,100.93 L58.87,101.08 C57.3699,103.038 55.7324,104.886 53.97,106.61 C51.79,108.54 50.73,108.61 50.73,108.61 L46.39,120.16 C45.95,119.87 45.5,119.58 45.03,119.3 C37.11,114.5 26.21,111.86 18.03,110.46 C15.34,110 12.94,109.68 11.03,109.46 C8.09,109.11 6.27,108.99 6.27,108.99 L9.76,97.2 C8.7115,94.777 8.4187,92.093 8.92,89.5 C9.49,86.55 17.31,72.87 25.19,61.39 C28.297,56.72 31.7429,52.285 35.5,48.12 C35.81,47.8 36.13,47.49 36.45,47.2 C49.93,40.89 67.45,42.44 70.9,60.63 C70.99,61.08 71.07,61.53 71.13,61.98 C73.05,74.09 70.06,83.7 63.47,94.27 Z" stroke="none" fill="#F31D62" fill-rule="nonzero"></path>
                        <path d="M71.07,61.98 C55.9,51.6 43.07,53.7 25.13,61.39 C28.237,56.72 31.6829,52.285 35.44,48.12 C35.75,47.8 36.07,47.49 36.39,47.2 C49.87,40.89 67.39,42.44 70.84,60.63 C70.93,61.11 71.01,61.56 71.07,61.98 Z" stroke="none" fill="#A00336" fill-rule="nonzero"></path>
                        <path d="M15.24,99.7 C24.63,99.7 33.81,103.54 35.36,104.27" stroke="#4B84C8" stroke-width="0.75" fill="none" stroke-linecap="round" stroke-linejoin="round"></path>
                        <path d="M53.97,106.61 C55.7324,104.886 57.3698,103.038 58.87,101.08 L58.98,100.93 C60.5606,98.852 62.0262,96.689 63.37,94.45 C63.3977,94.387 63.4312,94.327 63.47,94.27 C64.53,92.48 65.41,90.83 66.08,89.44 C66.63,88.36 67.03,87.44 67.31,86.76" stroke="#4B84C8" stroke-width="0.75" fill="none" stroke-linecap="round" stroke-linejoin="round"></path>
                        <path d="M135.26,98.26 C135.62,102.99 132.84,104.2 132.84,104.2 C133.22,115.7 129.84,121.2 124.22,122.66 C118.6,124.12 104.08,127.2 104.08,127.2 C102.575,127.812 101.123,128.548 99.74,129.4 C98.12,130.32 96.11,131.5 93.74,132.9 C86.52,137.12 75.15,141.06 61.64,148.18 C37.7,160.8 20.64,153.96 19.5,140.57 C17.44,116.06 48.57,114.46 59.94,112.57 C68.18,111.19 80.94,107.92 88.85,106.09 C91.85,105.41 94.1,104.93 95.16,104.83 C98.96,104.49 106.84,100.33 120.67,95.98 C134.5,91.63 145.67,89.11 145.67,92.16 C145.67,95.21 135.26,98.26 135.26,98.26 Z" stroke="none" fill="#FEBD9D" fill-rule="nonzero"></path>
                        <path d="M120.69,95.98 C134.51,91.61 145.69,89.11 145.69,92.16 C145.69,95.21 135.22,98.29 135.22,98.29 C135.58,103.02 132.8,104.23 132.8,104.23 C133.18,115.73 129.8,121.23 124.18,122.69" stroke="#F4A789" stroke-width="0.75" fill="none" stroke-linecap="round" stroke-linejoin="round"></path>
                        <path d="M25.2999,123.98 C31.2999,118.17 40.9099,115.66 49.0299,114.24" stroke="#F4A789" stroke-width="0.75" fill="none" stroke-linecap="round" stroke-linejoin="round"></path>
                        <path d="M99.74,129.4 C98.12,130.32 96.11,131.5 93.74,132.9 C88.17,126.69 85.28,117.07 88.85,106.06 C91.85,105.38 94.1,104.9 95.16,104.8 C92.58,111.85 92.1,123.35 99.74,129.4 Z" stroke="none" fill="#683F1D" fill-rule="nonzero"></path>
                        <path d="M135.26,98.26 L126.71,101.03" stroke="#F4A789" stroke-width="0.75" fill="none" stroke-linecap="round" stroke-linejoin="round"></path>
                        <path d="M132.84,104.2 L127.58,106.11" stroke="#F4A789" stroke-width="0.75" fill="none" stroke-linecap="round" stroke-linejoin="round"></path>
                        <path d="M128.15,111.63 L132.63,110.41" stroke="#F4A789" stroke-width="0.75" fill="none" stroke-linecap="round" stroke-linejoin="round"></path>
                        <path d="M97.72,118.98 C97.72,120.41 97.296,121.808 96.502,122.997 C95.707,124.186 94.578,125.113 93.257,125.66 C91.936,126.207 90.482,126.35 89.08,126.071 C87.677,125.792 86.389,125.104 85.378,124.093 C84.367,123.082 83.6779,121.793 83.3989,120.391 C83.12,118.988 83.2631,117.535 83.8104,116.214 C84.358,114.892 85.284,113.763 86.473,112.969 C87.662,112.174 89.06,111.75 90.49,111.75 C92.408,111.75 94.247,112.512 95.602,113.868 C96.958,115.224 97.72,117.063 97.72,118.98 Z" stroke="#683F1D" stroke-width="1" fill="#FFFFFF" fill-rule="nonzero" stroke-linecap="round" stroke-linejoin="round"></path>
                    </g>
                </g>
            </g>
            <path d="M212.86,75.1703 L212.860002,224.45 L-3.30351641e-06,224.45 L-3.70114307e-15,75.1703 C-0.00131,73.1931 0.387,71.235 1.14275,69.4079 C1.89849,67.5808 3.00686,65.9205 4.40451,64.5219 C5.80217,63.1233 7.4617,62.0139 9.2883,61.2569 C11.1149,60.4999 13.0728,60.1103 15.05,60.1103 L197.81,60.1103 C199.787,60.1103 201.745,60.4999 203.572,61.2569 C205.398,62.0139 207.058,63.1233 208.455,64.5219 C209.853,65.9205 210.962,67.5808 211.717,69.4079 C212.473,71.235 212.861,73.1931 212.86,75.1703 Z" id="Shape" stroke="#DDDDDD" stroke-width="2" stroke-linecap="round" stroke-linejoin="round"></path>
            <path d="M212.86,75.1703 L212.860002,75.8403 L-3.30351641e-06,75.8403 L-3.70114307e-15,75.1703 C-0.00131,73.1931 0.387,71.235 1.14275,69.4079 C1.89849,67.5808 3.00686,65.9205 4.40451,64.5219 C5.80217,63.1233 7.4617,62.0139 9.2883,61.2569 C11.1149,60.4999 13.0728,60.1103 15.05,60.1103 L197.81,60.1103 C199.787,60.1103 201.745,60.4999 203.572,61.2569 C205.398,62.0139 207.058,63.1233 208.455,64.5219 C209.853,65.9205 210.962,67.5808 211.717,69.4079 C212.473,71.235 212.861,73.1931 212.86,75.1703 Z" id="Shape" stroke="#DDDDDD" stroke-width="2" stroke-linecap="round" stroke-linejoin="round"></path>
            <path d="M184.05,67.9803 C184.05,68.5223 183.889,69.052 183.588,69.5026 C183.287,69.9532 182.859,70.3044 182.359,70.5118 C181.858,70.7191 181.307,70.7734 180.776,70.6677 C180.244,70.562 179.756,70.301 179.373,69.9178 C178.989,69.5346 178.728,69.0464 178.623,68.5149 C178.517,67.9834 178.571,67.4324 178.779,66.9318 C178.986,66.4311 179.337,66.0032 179.788,65.7021 C180.238,65.401 180.768,65.2403 181.31,65.2403 C181.67,65.2403 182.026,65.3112 182.359,65.4489 C182.691,65.5866 182.993,65.7884 183.248,66.0429 C183.502,66.2973 183.704,66.5993 183.842,66.9318 C183.979,67.2642 184.05,67.6205 184.05,67.9803 Z" id="Shape" fill="#DDDDDD" fill-rule="nonzero"></path>
            <path d="M190.24,70.7203 C191.753,70.7203 192.98,69.4936 192.98,67.9803 C192.98,66.4671 191.753,65.2403 190.24,65.2403 C188.727,65.2403 187.5,66.4671 187.5,67.9803 C187.5,69.4936 188.727,70.7203 190.24,70.7203 Z" id="Shape" fill="#DDDDDD" fill-rule="nonzero"></path>
            <path d="M201.91,67.9803 C201.91,68.5227 201.749,69.0528 201.448,69.5036 C201.146,69.9544 200.718,70.3056 200.216,70.5127 C199.715,70.7198 199.164,70.7735 198.632,70.6669 C198.1,70.5604 197.612,70.2984 197.229,69.9142 C196.846,69.5301 196.586,69.0409 196.481,68.5087 C196.377,67.9766 196.433,67.4253 196.642,66.9248 C196.85,66.4243 197.203,65.9971 197.655,65.6972 C198.107,65.3974 198.638,65.2383 199.18,65.2403 C199.539,65.2403 199.895,65.3113 200.227,65.4491 C200.559,65.5869 200.86,65.7889 201.114,66.0435 C201.368,66.298 201.569,66.6002 201.705,66.9325 C201.842,67.2649 201.911,67.621 201.91,67.9803 Z" id="Shape" fill="#DDDDDD" fill-rule="nonzero"></path>
            <path d="M161.21,198.88 C164.63,195.25 170.34,194.8 170.34,194.8 L176.95,201.63 C176.95,201.63 178.83,181.46 170.34,153.79 C168.73,167.3 163.76,189.04 161.21,198.88 Z" id="Shape" stroke="#DDDDDD" fill="#DDDDDD" fill-rule="nonzero" stroke-linecap="round" stroke-linejoin="round"></path>
            <path d="M226.43,149.69 C235.98,179.99 235.52,201.63 235.52,201.63 L176.95,201.63 C176.95,201.63 169.06,171.56 170.34,153.79 C170.34,153.79 169.23,149.6 172.9,149.23 C176.57,148.86 226.43,149.69 226.43,149.69 Z" id="Shape" stroke="#DDDDDD" fill="#F9F9F9" fill-rule="nonzero" stroke-linecap="round" stroke-linejoin="round"></path>
            <path d="M179.5,149.39 C179.495,149.307 179.495,149.224 179.5,149.14 C179.585,148.331 179.903,147.564 180.415,146.931 C180.927,146.299 181.611,145.828 182.385,145.577 C183.159,145.325 183.989,145.303 184.775,145.513 C185.561,145.724 186.27,146.158 186.814,146.762 C187.359,147.367 187.717,148.116 187.845,148.92 C187.972,149.724 187.864,150.547 187.534,151.291 C187.203,152.034 186.664,152.666 185.982,153.11 C185.3,153.553 184.504,153.79 183.69,153.79" id="Shape" stroke="#DDDDDD" stroke-linecap="round" stroke-linejoin="round"></path>
            <path d="M209.26,149.39 C209.368,148.589 209.704,147.836 210.228,147.22 C210.752,146.605 211.442,146.153 212.216,145.92 C212.99,145.686 213.815,145.681 214.592,145.903 C215.369,146.126 216.066,146.568 216.599,147.176 C217.132,147.784 217.478,148.532 217.597,149.332 C217.716,150.132 217.602,150.949 217.269,151.685 C216.935,152.422 216.397,153.047 215.718,153.486 C215.039,153.925 214.248,154.159 213.44,154.16 C212.737,154.159 212.048,153.973 211.44,153.62" id="Shape" stroke="#DDDDDD" stroke-linecap="round" stroke-linejoin="round"></path>
            <path d="M191.45,149.21 C191.496,148.114 191.95,147.074 192.724,146.295 C193.497,145.516 194.534,145.054 195.63,145 C196.784,145.12 197.853,145.663 198.629,146.525 C199.406,147.386 199.836,148.505 199.836,149.665 C199.836,150.825 199.406,151.944 198.629,152.806 C197.853,153.668 196.784,154.211 195.63,154.33 C194.687,154.315 193.782,153.96 193.08,153.33" id="Shape" stroke="#DDDDDD" stroke-linecap="round" stroke-linejoin="round"></path>
            <path d="M200.37,149.31 C200.476,148.51 200.81,147.758 201.332,147.142 C201.854,146.527 202.542,146.076 203.314,145.841 C204.087,145.607 204.91,145.6 205.686,145.821 C206.462,146.043 207.158,146.483 207.69,147.089 C208.222,147.696 208.569,148.443 208.688,149.241 C208.807,150.039 208.693,150.855 208.361,151.59 C208.029,152.325 207.492,152.949 206.814,153.387 C206.136,153.826 205.347,154.059 204.54,154.06" id="Shape" stroke="#DDDDDD" stroke-linecap="round" stroke-linejoin="round"></path>
            <polygon id="Shape" stroke="#DDDDDD" stroke-linecap="round" stroke-linejoin="round" points="223.29 159.43 182.25 159.43 182.25 164.12 223.29 164.12"></polygon>
            <polyline id="Shape" stroke="#DDDDDD" stroke-linecap="round" stroke-linejoin="round" points="192.42 196.52 191.9 192.57 189.26 172.24 188.82 168.9"></polyline>
            <polyline id="Shape" stroke="#DDDDDD" stroke-linecap="round" stroke-linejoin="round" points="205.74 196.52 205.19 192.29 202.61 172.5 202.14 168.9"></polyline>
            <path d="M215.47,168.89 L219.06,196.53" id="Shape" stroke="#DDDDDD" stroke-linecap="round" stroke-linejoin="round"></path>
            <polyline id="Shape" stroke="#DDDDDD" stroke-linecap="round" stroke-linejoin="round" points="223.73 174.42 202.86 174.42 189.54 174.42 183.7 174.42"></polyline>
            <polyline id="Shape" stroke="#DDDDDD" stroke-linecap="round" stroke-linejoin="round" points="225.76 186.49 204.43 186.49 191.11 186.49 185.72 186.49"></polyline>
            <path d="M193.34,169.85 C186.72,173.23 183.53,187.32 194.76,188.26 C211.31,189.64 212.1,169.26 197.6,171.18" id="Shape" fill="#F9F9F9" fill-rule="nonzero"></path>
            <path d="M193.34,169.85 C186.72,173.23 183.53,187.32 194.76,188.26 C211.31,189.64 212.1,169.26 197.6,171.18" id="Shape" stroke="#DDDDDD" stroke-width="2" stroke-linecap="round" stroke-linejoin="round"></path>
            <polygon id="Shape" fill="#DDDDDD" fill-rule="nonzero" points="204.43 186.49 191.11 186.49 189.54 174.42 202.86 174.42"></polygon>
            <path d="M228.36,184.67 C228.64,189.26 237.36,184.21 236.76,180.19 C236.16,176.17 228.03,179.35 228.36,184.67 Z" id="Shape" stroke="#F4A789" stroke-width="0.75" fill="#FEBD9D" fill-rule="nonzero" stroke-linecap="round" stroke-linejoin="round"></path>
            <path d="M226.88,178.49 C227.2,183.09 237.02,178.04 236.38,174.01 C235.74,169.98 226.51,173.18 226.88,178.49 Z" id="Shape" stroke="#F4A789" stroke-width="0.75" fill="#FEBD9D" fill-rule="nonzero" stroke-linecap="round" stroke-linejoin="round"></path>
            <path d="M226.19,173.88 C226.53,178.47 237.06,173.42 236.37,169.4 C235.68,165.38 225.8,168.56 226.19,173.88 Z" id="Shape" stroke="#F4A789" stroke-width="0.75" fill="#FEBD9D" fill-rule="nonzero" stroke-linecap="round" stroke-linejoin="round"></path>
            <path d="M224.71,168.19 C225.06,172.36 235.92,167.78 235.21,164.13 C234.5,160.48 224.3,163.37 224.71,168.19 Z" id="Shape" stroke="#F4A789" stroke-width="0.75" fill="#FEBD9D" fill-rule="nonzero" stroke-linecap="round" stroke-linejoin="round"></path>
            <path d="M193.34,169.85 C186.72,173.23 183.53,187.32 194.76,188.26 C211.31,189.64 212.1,169.26 197.6,171.18" id="Shape" stroke="#DDDDDD" stroke-width="2" stroke-linecap="round" stroke-linejoin="round"></path>
            <path d="M153.82,62.8403 C152.95,70.0703 143.28,74.3103 143.28,74.3103 L116.45,97.7303 C113.7,102.12 106.21,104.33 101.65,100.66 C98.9801,98.5203 97.32,94.3703 98.22,87.4603 C97.4734,87.4606 96.7432,87.2416 96.12,86.8303 C93.03,84.9203 91.12,78.8303 95.76,71.6003 C95.43,71.9203 89.25,77.9303 82.89,76.1103 C81.7963,75.8181 80.777,75.2971 79.8996,74.5817 C79.0221,73.8663 78.3065,72.9728 77.8001,71.9603 C75.8001,67.8703 76.5001,61.0503 82.2101,51.7003 C86.2701,45.0303 91.92,43.8303 96.76,45.0803 C102.24,46.4803 106.68,50.9803 106.68,54.2503 C107.889,52.7665 109.292,51.4515 110.85,50.3403 C112.99,48.8503 115.64,47.8403 118.01,49.2803 C118.01,49.2803 126.35,44.7903 131.09,47.6003 C136.99,51.0803 135.69,53.5003 141.43,53.8803 C145.7,54.1603 152.43,55.2403 153.66,60.0803 C153.894,60.9809 153.949,61.9187 153.82,62.8403 Z" id="Shape" fill="#B25E47" fill-rule="nonzero"></path>
            <path d="M106.68,54.2503 L95.7801,71.5803 C95.0016,72.3087 94.1692,72.9773 93.2901,73.5803 C90.8401,75.2803 86.9201,77.2203 82.9201,76.0803 C81.8263,75.7881 80.807,75.2671 79.9296,74.5517 C79.0522,73.8363 78.3366,72.9428 77.8301,71.9303 C90.2501,71.6703 94.6201,68.2003 92.0701,61.3703 C89.7001,55.0103 87.2401,47.0203 96.7901,45.0503 C100.526,45.9807 103.773,48.288 105.88,51.5103 C106.377,52.34 106.653,53.2835 106.68,54.2503 Z" id="Shape" fill="#B25E47" fill-rule="nonzero"></path>
            <path d="M153.82,62.8403 C152.95,70.0703 143.28,74.3103 143.28,74.3103 L116.45,97.7303 C113.7,102.12 106.21,104.33 101.65,100.66 C100.073,96.8788 99.686,92.7066 100.54,88.6994 C101.394,84.6923 103.449,81.0404 106.43,78.2303 C111.93,73.2303 107.9,69.5003 108.43,62.9203 C108.96,56.3403 121,46.2103 129.62,55.3003 C136.38,62.4303 149.1,53.8103 153.71,60.0803 C153.928,60.9842 153.965,61.922 153.82,62.8403 Z" id="Shape" fill="#B25E47" fill-rule="nonzero"></path>
            <path d="M137.37,110.69 C125.31,109.45 113.07,96.9403 113.07,96.9403 C108.47,102.18 99.4,94.3503 103.89,87.8303 C106.83,83.5403 111.43,86.0903 112.55,88.4303 C114.416,87.2256 115.784,85.3878 116.403,83.2547 C117.023,81.1217 116.851,78.8369 115.92,76.8203 C114.933,74.3444 114.506,71.6807 114.67,69.0203 C118.75,62.8203 129.57,61.4003 129.57,61.4003 C131.169,63.0865 133.115,64.4065 135.272,65.2696 C137.43,66.1327 139.749,66.5185 142.07,66.4003 C142.07,66.4003 145.78,73.6503 148.8,81.0203 C148.86,81.1803 148.94,81.3603 149,81.5203 C149.85,83.6203 150.64,85.7203 151.26,87.6403 C151.32,87.8303 151.37,88.0003 151.43,88.1803 C151.927,89.6967 152.294,91.2522 152.53,92.8303 C153.5,100.76 149.42,111.98 137.37,110.69 Z" id="Shape" fill="#FEBD9D" fill-rule="nonzero"></path>
            <path d="M142.38,77.7103 C142.38,77.9674 142.456,78.2188 142.599,78.4326 C142.742,78.6464 142.945,78.813 143.183,78.9114 C143.42,79.0098 143.681,79.0355 143.934,78.9854 C144.186,78.9352 144.417,78.8114 144.599,78.6296 C144.781,78.4478 144.905,78.2161 144.955,77.9639 C145.005,77.7118 144.979,77.4504 144.881,77.2128 C144.783,76.9753 144.616,76.7723 144.402,76.6294 C144.188,76.4866 143.937,76.4103 143.68,76.4103 C143.336,76.4129 143.007,76.5508 142.764,76.794 C142.52,77.0372 142.383,77.3664 142.38,77.7103 Z" id="Shape" fill="#683F1D" fill-rule="nonzero"></path>
            <path d="M135.69,80.3203 C136.408,80.3203 136.99,79.7383 136.99,79.0203 C136.99,78.3024 136.408,77.7203 135.69,77.7203 C134.972,77.7203 134.39,78.3024 134.39,79.0203 C134.39,79.7383 134.972,80.3203 135.69,80.3203 Z" id="Shape" fill="#683F1D" fill-rule="nonzero"></path>
            <path d="M134.16,87.8203 C136.766,89.127 139.656,89.7629 142.57,89.6703 C142.57,89.6703 142.01,94.5403 137.83,93.2403 C134.18,92.1103 134.16,87.8203 134.16,87.8203 Z" id="Shape" stroke="#F4A789" stroke-width="0.75" fill="#FFFFFF" fill-rule="nonzero" stroke-linecap="round" stroke-linejoin="round"></path>
            <path d="M130.04,75.2003 C130.52,76.8003 136.53,75.2003 135.87,72.6003 C135.21,70.0003 129.35,72.9803 130.04,75.2003 Z" id="Shape" fill="#B25E47" fill-rule="nonzero"></path>
            <path d="M140.25,71.9803 C140.16,73.7203 146.31,73.8403 146.31,72.3403 C146.31,70.9803 140.41,69.1703 140.25,71.9803 Z" id="Shape" fill="#B25E47" fill-rule="nonzero"></path>
            <path d="M98.2201,87.4603 C98.9649,82.5389 101.346,78.012 104.98,74.6103" id="Shape" stroke="#683F1D" stroke-width="0.75" stroke-linecap="round" stroke-linejoin="round"></path>
            <path d="M118.01,49.2703 C116.12,50.7803 113.29,55.6903 112.19,57.9003" id="Shape" stroke="#683F1D" stroke-width="0.75" stroke-linecap="round" stroke-linejoin="round"></path>
            <path d="M116.33,62.8503 C118.56,56.9103 122.85,54.2303 124.86,56.5103 C126.87,58.7903 129.57,61.3903 129.57,61.3903" id="Shape" stroke="#683F1D" stroke-width="0.75" stroke-linecap="round" stroke-linejoin="round"></path>
            <path d="M142.07,66.4503 C144.57,66.3503 146.95,63.8003 147.67,62.3203" id="Shape" stroke="#683F1D" stroke-width="0.75" stroke-linecap="round" stroke-linejoin="round"></path>
            <path d="M92.04,70.5103 C82.82,71.9503 78.27,58.3003 85.76,47.5103" id="Shape" stroke="#683F1D" stroke-width="0.75" stroke-linecap="round" stroke-linejoin="round"></path>
            <path d="M101.28,57.9003 C103.21,52.9003 96.7701,44.8303 93.2801,50.3703 C89.2801,56.7103 95.1201,65.1203 101.28,64.3703" id="Shape" stroke="#683F1D" stroke-width="0.75" stroke-linecap="round" stroke-linejoin="round"></path>
            <path d="M95.78,71.5803 C97.9874,65.0209 101.724,59.0807 106.68,54.2503 C106.68,54.2503 103.88,59.9303 105.93,63.9703 C102.372,66.2649 98.98,68.8079 95.78,71.5803 Z" id="Shape" fill="#72FE1D" fill-rule="nonzero"></path>
            <path d="M104.98,92.1103 C106.84,88.8203 110.07,89.0003 111.77,91.7703" id="Shape" stroke="#F4A789" stroke-width="0.75" stroke-linecap="round" stroke-linejoin="round"></path>
            <path d="M111.09,90.8903 C107.26,89.8903 107.25,95.0303 111.32,94.3003" id="Shape" stroke="#F4A789" stroke-width="0.75" stroke-linecap="round" stroke-linejoin="round"></path>
            <path d="M138.91,76.7703 C138.85,79.7703 141.25,81.4903 142.83,82.3203 C144.41,83.1503 143.89,85.3203 143.78,85.6403" id="Shape" stroke="#F4A789" stroke-width="0.75" stroke-linecap="round" stroke-linejoin="round"></path>
            <path d="M113.08,96.9803 C113.694,96.1879 114.204,95.321 114.6,94.4003" id="Shape" stroke="#F4A789" stroke-width="0.75" stroke-linecap="round" stroke-linejoin="round"></path>
            <path d="M130.4,86.8403 C129.4,88.7403 126.33,89.0903 123.4,87.6403 C120.47,86.1903 118.94,83.4603 119.9,81.5603 C120.86,79.6603 123.97,79.3103 126.9,80.7703 C129.83,82.2303 131.36,84.9803 130.4,86.8403 Z" id="Shape" fill="#F4A789" fill-rule="nonzero"></path>
            <path d="M151.43,88.2203 C150.803,88.5104 150.106,88.6164 149.421,88.5261 C148.736,88.4358 148.091,88.1529 147.56,87.7103 C146.11,86.2603 146.66,83.3203 148.8,81.0603 C148.86,81.2203 148.94,81.4003 149,81.5603 C149.85,83.6603 150.64,85.7603 151.26,87.6803 C151.32,87.8703 151.37,88.0403 151.43,88.2203 Z" id="Shape" fill="#F4A789" fill-rule="nonzero"></path>
            <path d="M507.58,40.4201 L507.580004,189.7 L294.76,189.7 L294.76,40.4201 C294.76,36.426 296.347,32.5954 299.171,29.7711 C301.996,26.9468 305.826,25.3601 309.82,25.3601 L492.58,25.3601 C496.565,25.3734 500.382,26.9662 503.193,29.7894 C506.005,32.6125 507.583,36.4356 507.58,40.4201 Z" id="Shape" stroke="#DDDDDD" stroke-width="2" stroke-linecap="round" stroke-linejoin="round"></path>
            <path d="M507.58,40.4201 L507.580004,41.0901 L294.76,41.0901 L294.76,40.4201 C294.76,36.426 296.347,32.5954 299.171,29.7711 C301.996,26.9468 305.826,25.3601 309.82,25.3601 L492.58,25.3601 C496.565,25.3734 500.382,26.9662 503.193,29.7894 C506.005,32.6125 507.583,36.4356 507.58,40.4201 Z" id="Shape" stroke="#DDDDDD" stroke-width="2" stroke-linecap="round" stroke-linejoin="round"></path>
            <path d="M478.81,33.2301 C478.81,33.7725 478.649,34.3026 478.348,34.7534 C478.046,35.2042 477.618,35.5554 477.117,35.7625 C476.615,35.9696 476.064,36.0233 475.532,35.9167 C475,35.8102 474.512,35.5482 474.129,35.1641 C473.747,34.7799 473.486,34.2907 473.382,33.7585 C473.277,33.2264 473.333,32.6751 473.542,32.1746 C473.751,31.6741 474.103,31.2469 474.555,30.947 C475.007,30.6472 475.538,30.4882 476.08,30.4901 C476.44,30.4901 476.796,30.5611 477.127,30.6989 C477.459,30.8367 477.761,31.0387 478.014,31.2933 C478.268,31.5478 478.469,31.85 478.605,32.1823 C478.742,32.5147 478.812,32.8708 478.81,33.2301 Z" id="Shape" fill="#DDDDDD" fill-rule="nonzero"></path>
            <path d="M487.75,33.2301 C487.75,33.7721 487.59,34.3018 487.288,34.7524 C486.987,35.203 486.559,35.5542 486.059,35.7616 C485.558,35.969 485.007,36.0232 484.476,35.9175 C483.944,35.8118 483.456,35.5508 483.073,35.1676 C482.69,34.7844 482.429,34.2962 482.323,33.7647 C482.217,33.2332 482.271,32.6823 482.479,32.1816 C482.686,31.6809 483.037,31.253 483.488,30.9519 C483.939,30.6508 484.468,30.4901 485.01,30.4901 C485.737,30.4901 486.434,30.7788 486.948,31.2927 C487.462,31.8065 487.75,32.5035 487.75,33.2301 Z" id="Shape" fill="#DDDDDD" fill-rule="nonzero"></path>
            <path d="M496.68,33.2301 C496.68,33.7721 496.52,34.3018 496.218,34.7524 C495.917,35.203 495.489,35.5542 494.989,35.7616 C494.488,35.969 493.937,36.0232 493.406,35.9175 C492.874,35.8118 492.386,35.5508 492.003,35.1676 C491.62,34.7844 491.359,34.2962 491.253,33.7647 C491.147,33.2332 491.201,32.6823 491.409,32.1816 C491.616,31.6809 491.967,31.253 492.418,30.9519 C492.868,30.6508 493.398,30.4901 493.94,30.4901 C494.667,30.4901 495.364,30.7788 495.878,31.2927 C496.392,31.8065 496.68,32.5035 496.68,33.2301 Z" id="Shape" fill="#DDDDDD" fill-rule="nonzero"></path>
            <path d="M299.3,105.32 C298.75,99.0801 326.3,87.2501 330.85,96.3801 L321.85,105.32 C321.85,105.32 303.26,112.69 299.3,105.32 Z" id="Shape" fill="#4B84C8" fill-rule="nonzero"></path>
            <path d="M312.78,60.6901 C308.78,48.2501 308.48,46.6901 311.16,45.7601 C313.84,44.8301 320.63,58.9601 321.4,60.6901 C324.09,66.1353 326.163,71.8642 327.58,77.7701 C328.77,83.2901 330.33,96.0001 330.58,99.0601 C331.64,111.98 310.34,115.91 309.41,105.86 C308.48,95.8101 308.41,92.5601 308.41,92.5601 C308.41,92.5601 297.41,93.5601 295.87,85.3801 C294.33,77.2001 294.76,65.9801 294.76,65.9801 C294.76,65.9801 278.04,63.2101 278.62,58.8001 C279.2,54.3901 311.92,63.3001 311.92,63.3001 L312.78,60.6901 Z" id="Shape" fill="#B25E47" fill-rule="nonzero"></path>
            <path d="M294.76,65.9801 C294.76,65.9801 278.04,63.2101 278.62,58.8001 C279.2,54.3901 311.92,63.3001 311.92,63.3001 L312.78,60.7201 C308.78,48.2801 308.48,46.7201 311.16,45.7901 C313.84,44.8601 320.63,58.9901 321.4,60.7201" id="Shape" stroke="#914839" stroke-width="0.75" stroke-linecap="round" stroke-linejoin="round"></path>
            <path d="M311.92,63.2701 C310.484,68.7829 310.713,74.5978 312.58,79.9801" id="Shape" stroke="#914839" stroke-width="0.75" stroke-linecap="round" stroke-linejoin="round"></path>
            <path d="M304.09,53.7301 C306.71,55.0901 308.78,55.3801 309.56,51.6401 C310.34,47.9001 306.65,47.8101 305.46,48.0101 C303.63,48.3101 302.96,53.1401 304.09,53.7301 Z" id="Shape" fill="#683F1D" fill-rule="nonzero"></path>
            <path d="M304.58,52.7701 C304.169,54.2282 303.836,55.7069 303.58,57.2001 C304.01,57.4201 306.58,58.2901 306.92,57.4201 C307.313,55.8931 307.59,54.3387 307.75,52.7701 L304.58,52.7701 Z" id="Shape" fill="#683F1D" fill-rule="nonzero"></path>
            <path d="M302.24,58.4401 C300.87,64.5701 293.79,98.1701 293.55,99.2701 C293.31,100.37 293.63,105.45 294.06,105.64 C294.49,105.83 296.96,102.2 297.86,100.36 C298.76,98.5201 306.72,61.6501 307.21,59.9301 C308.43,55.7401 303.14,54.4301 302.24,58.4401 Z" id="Shape" fill="#683F1D" fill-rule="nonzero"></path>
            <path d="M296.01,77.5101 C292.58,78.3001 291.61,81.5701 294.14,83.7401 C296.86,86.0801 303.56,85.0401 303.87,82.0501 C304.18,79.0601 298.87,76.8601 296.01,77.5101 Z" id="Shape" stroke="#914839" stroke-width="0.75" fill="#B25E47" fill-rule="nonzero" stroke-linecap="round" stroke-linejoin="round"></path>
            <path d="M295.7,72.1501 C292.18,71.6301 291.32,75.1501 293.83,77.8501 C296.34,80.5501 304.63,81.1601 305.1,77.9501 C305.57,74.7401 297.86,72.4701 295.7,72.1501 Z" id="Shape" stroke="#914839" stroke-width="0.75" fill="#B25E47" fill-rule="nonzero" stroke-linecap="round" stroke-linejoin="round"></path>
            <path d="M292.58,66.1401 C297,65.1401 306.58,71.5901 306.19,73.6001 C305.72,76.1301 301.19,76.5101 294.81,73.8001 C288.82,71.2601 290.42,66.6501 292.58,66.1401 Z" id="Shape" stroke="#914839" stroke-width="0.75" fill="#B25E47" fill-rule="nonzero" stroke-linecap="round" stroke-linejoin="round"></path>
            <g id="Clipped" transform="translate(295.000000, 35.000000)">
                <mask id="mask-4" fill="white">
                    <use xlink:href="#path-3"></use>
                </mask>
                <g id="Rectangle-path"></g>
                <g id="Group" mask="url(#mask-4)">
                    <g transform="translate(4.000000, 14.000000)" id="Shape">
                        <path d="M206.35,65.87 C192.63,65.2 181.27,77.57 177.75,91.79 C177.65,92.19 177.56,92.62 177.48,93.09 C177.106,95.279 176.842,97.485 176.69,99.7 C175.23,118.47 176.61,155.8 176.75,156.7 C176.8,157.01 167.04,156.7 153.5,156.06 C148.5,155.83 143.02,155.58 137.3,155.29 C108.22,153.86 73.68,151.93 73.68,151.93 L71.58,128.57 C71.58,128.57 67.23,135.93 52.35,150.3 C37.47,164.67 13.68,156.66 16.24,138.59 C17.84,127.24 24.54,118.94 32.66,105.04 C35.17,100.74 37.82,95.91 40.48,90.28 C44.04,82.8 47.48,75.66 50.8,69.21 C52.25,66.37 53.68,63.66 55.07,61.12 C60.29,51.49 64.97,44.2001 68.74,40.7901 C80.07,30.5301 104.35,36.4401 110.82,38.5201 C120.459,41.6575 130.461,43.5429 140.58,44.1301 C154.93,45.1301 176.72,51.32 188.26,55.34 C194.916,57.575 201.043,61.152 206.26,65.85 L206.35,65.87 Z" stroke="none" fill="#F31D62" fill-rule="nonzero"></path>
                        <path d="M216.01,87.16 C203.45,74.56 184.38,69.06 165.24,86.16 C142.98,105.99 125.9,109.44 100.86,80.48 C82.75,59.48 76.47,54.19 55.07,61.16 C60.29,51.53 64.97,44.2401 68.74,40.8301 C80.07,30.5701 104.35,36.4801 110.82,38.5601 C120.461,41.6839 130.463,43.5559 140.58,44.1301 C154.93,45.1301 176.72,51.32 188.26,55.34 C194.916,57.575 201.043,61.152 206.26,65.85 C211.28,69.81 214.21,77.73 216.01,87.16 Z" stroke="none" fill="#F31D62" fill-rule="nonzero"></path>
                        <path d="M50.44,123.2 C42.44,131.88 35.25,113.06 32.66,105.04 C35.17,100.74 37.82,95.91 40.48,90.28 C44.04,82.8 47.48,75.66 50.8,69.21 C56.7,78.21 48.73,86.49 48.17,90.57 C46.71,101.48 61.91,110.74 50.44,123.2 Z" stroke="none" fill="#4B84C8" fill-rule="nonzero"></path>
                        <path d="M0.3,56.32 C12.66,58.93 31.85,47.3801 31.85,47.3801 C31.85,47.3801 42.42,94.59 45.18,105.06 C47.94,115.53 65.6,156.54 31.18,158.22 C9.09,159.3 7.61,117.31 6.3,103.49 C4.99,89.67 0.3,56.32 0.3,56.32 Z" stroke="none" fill="#F31D62" fill-rule="nonzero"></path>
                        <path d="M8.49,61.72 C18,62.39 28.59,55.99 28.59,55.99" stroke="#4B84C8" stroke-width="0.75" fill="none" stroke-linecap="round" stroke-linejoin="round"></path>
                        <path d="M31.85,47.3801 C31.85,47.3801 42.42,94.59 45.18,105.06 C46.69,110.77 52.63,125.57 52.13,138.12" stroke="#4B84C8" stroke-width="0.75" fill="none" stroke-linecap="round" stroke-linejoin="round"></path>
                        <path d="M100.86,46.1701 C107.02,57.6 123.36,68.59 143.08,53.42 C143.08,53.42 145.2,47.1201 144.98,47.1201 C144.76,47.1201 103.65,42.1201 103.65,42.1201 L100.86,46.1701 Z" stroke="none" fill="#FFFFFF" fill-rule="nonzero"></path>
                        <path d="M117.09,32.0501 C112.01,30.9001 104.65,32.1901 99.57,39.9901 C94.49,47.7901 93.84,54.22 94.13,54.15 C94.42,54.08 102.13,49.2101 105.58,49.5701 C109.03,49.9301 116.76,52.21 116.76,52.21 L117.09,32.0501 Z" stroke="none" fill="#72FE1D" fill-rule="nonzero"></path>
                        <path d="M139.98,34.3401 C139.98,34.3401 151.21,34.4101 152.71,42.2801 C154.21,50.1501 150.07,59.59 144.99,63.95 C139.91,68.31 142.7,57.65 124.46,52.65 L139.98,34.3401 Z" stroke="none" fill="#72FE1D" fill-rule="nonzero"></path>
                        <path d="M145.46,43.5401 C145.46,43.5401 139.22,53.02 125.32,53.23 C111.42,53.44 108.75,45.1601 108.75,45.1601 C110.26,41.4001 112.07,33.3801 113.23,27.7601 C113.97,24.2101 114.45,21.6101 114.45,21.6101 C114.45,21.6101 116.75,-0.6499 140.61,0.6901 L141.02,4.3401 L145.46,43.5401 Z" stroke="none" fill="#B25E47" fill-rule="nonzero"></path>
                        <path d="M113.23,27.9801 C113.97,24.4401 114.45,21.8301 114.45,21.8301 L128.03,15.4601 C128.03,15.4601 130.18,30.9801 113.23,27.9801 Z" stroke="none" fill="#914839" fill-rule="nonzero"></path>
                        <path d="M71.58,128.57 C69.66,106.65 69.66,88.9 69.66,88.9" stroke="#4B84C8" stroke-width="0.75" fill="none" stroke-linecap="round" stroke-linejoin="round"></path>
                    </g>
                </g>
            </g>
            <path d="M461.25,230.88 C460.085,230.456 458.974,229.895 457.94,229.21 C450.94,224.62 450.39,215.68 452.5,205.02 C454.14,196.86 457.36,187.7 460.5,178.72 C464.09,168.48 467.6,158.49 468.59,150.49 C468.73,149.37 468.81,148.3 468.85,147.28 C469.041,141.146 470.164,135.077 472.18,129.28 C477.92,113.14 490.43,102.98 505.31,114.87 C510.24,118.81 513.17,126.73 514.97,136.16 C515.61,139.53 516.11,143.1 516.52,146.74 C517.88,159.1 518.08,172.39 518.69,182.29 C521.7,230.22 510.21,249.36 461.25,230.88 Z" id="Shape" fill="#F31D62" fill-rule="nonzero"></path>
            <path d="M515.01,136.16 C504.2,125.32 488.55,119.73 472.2,129.26 C477.94,113.12 490.45,102.96 505.33,114.85 C510.28,118.81 513.21,126.73 515.01,136.16 Z" id="Shape" fill="#A00336" fill-rule="nonzero"></path>
            <path d="M475.75,205.66 C475.8,205.97 466.04,205.66 452.5,205.02 C447.5,204.79 442.02,204.54 436.3,204.25 C426.52,199.85 420.44,193.48 425.65,184.35 C439.83,159.54 465.88,193.91 467.24,169.35 C468.16,152.51 472.24,148.85 475.69,148.74 C474.23,167.47 475.58,204.8 475.75,205.66 Z" id="Shape" fill="#A00336" fill-rule="nonzero"></path>
            <path d="M479.08,133.47 C477.138,138.331 475.993,143.474 475.69,148.7 C474.39,167.48 475.61,204.8 475.75,205.7" id="Shape" stroke="#4B84C8" stroke-width="0.75" stroke-linecap="round" stroke-linejoin="round"></path>
            <path d="M461.25,230.88 C460.085,230.456 458.974,229.895 457.94,229.21 C469.16,231.62 485.94,233.79 493.33,227.48 C504.98,217.56 497.58,204.84 504.02,197.84 C510.46,190.84 519.75,188.58 516.56,146.77 C517.92,159.13 518.12,172.42 518.73,182.32 C521.7,230.22 510.21,249.36 461.25,230.88 Z" id="Shape" fill="#A00336" fill-rule="nonzero"></path>
            <path d="M433.19,146.74 C434.97,138.74 424.91,139.09 424.91,139.09 C425.8,131.71 416.02,129.66 413.76,136.87 C405.81,134.47 403.3,136.87 402.14,141.05 L433.19,146.74 Z" id="Shape" fill="#DDDDDD" fill-rule="nonzero"></path>
            <path d="M419.63,139.86 C420.939,139.86 422,138.799 422,137.49 C422,136.181 420.939,135.12 419.63,135.12 C418.321,135.12 417.26,136.181 417.26,137.49 C417.26,138.799 418.321,139.86 419.63,139.86 Z" id="Shape" stroke="#DDDDDD" fill="#F9F9F9" fill-rule="nonzero" stroke-linecap="round" stroke-linejoin="round"></path>
            <polygon id="Shape" stroke="#DDDDDD" fill="#F9F9F9" fill-rule="nonzero" stroke-linecap="round" stroke-linejoin="round" points="387.04 135.11 372.2 215.58 431.12 227.48 446.95 146.9"></polygon>
            <path d="M405.19,188.43 C402.19,196.26 402.01,204.49 403.39,207.24 C403.39,207.24 409.01,208.29 414.63,193.04 L405.19,188.43 Z" id="Shape" fill="#4B84C8" fill-rule="nonzero"></path>
            <path d="M412.82,173.29 C399.34,168.66 392.9,165.86 390.47,165.2 C388.04,164.54 379.26,163.8 377.86,165.2 C376.46,166.6 376.36,168.38 376.86,170.2 C377.36,172.02 375.86,173.43 375.65,175.31 C375.44,177.19 377.7,177.76 377.24,179.63 C376.78,181.5 375.24,183.55 376.3,185.63 C377.36,187.71 375.3,189.83 377.24,192.35 C379.18,194.87 399.06,196.09 403.42,195.16 L411.98,198.99 C411.98,198.99 427.04,183.52 412.82,173.29 Z" id="Shape" fill="#B25E47" fill-rule="nonzero"></path>
            <path d="M390.47,165.2 C388.04,164.55 379.26,163.8 377.86,165.2 C376.46,166.6 376.36,168.38 376.86,170.2 C377.36,172.02 375.86,173.43 375.65,175.31 C375.44,177.19 377.7,177.76 377.24,179.63 C376.78,181.5 375.24,183.55 376.3,185.63 C377.36,187.71 375.3,189.83 377.24,192.35" id="Shape" stroke="#914839" stroke-width="0.75" stroke-linecap="round" stroke-linejoin="round"></path>
            <path d="M493.34,227.47 C489.83,233.81 481.05,236.86 464.34,231.83 C459.84,230.47 455.5,229.06 451.34,227.63 C444.46,225.27 438.11,222.86 432.42,220.55 C422.506,216.609 412.8,212.163 403.34,207.23 C405.853,204.459 407.882,201.285 409.34,197.84 C410.25,195.802 410.999,193.695 411.58,191.54 C413.133,185.585 413.551,179.39 412.81,173.28 C415.08,173.96 417.52,174.66 420.09,175.36 C426.3,177.06 433.26,178.82 440.31,180.67 C461.44,186.24 483.42,192.62 488.77,200.55 C489.26,201.28 489.77,202.01 490.17,202.77 C490.34,203.07 490.52,203.37 490.68,203.68 C490.729,203.757 490.773,203.837 490.81,203.92 C491.01,204.28 491.2,204.65 491.38,205.01 C491.72,205.66 492.02,206.31 492.31,206.96 C495.46,214.18 496.35,222.04 493.34,227.47 Z" id="Shape" fill="#F31D62" fill-rule="nonzero"></path>
            <path d="M412.82,173.29 C437.02,180.58 480.9,188.89 488.82,200.56 C490.194,202.584 491.379,204.73 492.36,206.97" id="Shape" stroke="#4B84C8" stroke-width="0.75" stroke-linecap="round" stroke-linejoin="round"></path>
            <path d="M420.09,175.36 C421.59,190.53 413.76,205.09 413.76,205.09" id="Shape" stroke="#4B84C8" stroke-width="0.75" stroke-linecap="round" stroke-linejoin="round"></path>
            <path d="M493.33,227.48 C489.82,233.82 481.04,236.87 464.33,231.84 C459.83,230.48 455.49,229.07 451.33,227.64 C461.14,230.22 484.25,235.21 493.33,227.48 Z" id="Shape" fill="#4B84C8" fill-rule="nonzero"></path>
            <path d="M439.58,49.8801 L439.99,53.5201 C431.54,66.7001 419.99,70.8501 413.42,70.7901 C402.56,68.0801 398.85,58.3001 398.22,47.7901 C398.065,45.2992 398.065,42.8011 398.22,40.3101 C398.705,33.1913 399.905,26.1392 401.8,19.2601 C401.8,19.2601 434.42,4.08014 436.68,34.5501 C436.68,34.5501 443.68,33.2701 444.97,41.0501 C446.07,47.5101 439.58,49.8801 439.58,49.8801 Z" id="Shape" fill="#B25E47" fill-rule="nonzero"></path>
            <path d="M403.46,40.3501 C404.178,40.3501 404.76,39.7681 404.76,39.0501 C404.76,38.3322 404.178,37.7501 403.46,37.7501 C402.742,37.7501 402.16,38.3322 402.16,39.0501 C402.16,39.7681 402.742,40.3501 403.46,40.3501 Z" id="Shape" fill="#683F1D" fill-rule="nonzero"></path>
            <path d="M412.54,38.6901 C413.258,38.6901 413.84,38.1081 413.84,37.3901 C413.84,36.6722 413.258,36.0901 412.54,36.0901 C411.822,36.0901 411.24,36.6722 411.24,37.3901 C411.24,38.1081 411.822,38.6901 412.54,38.6901 Z" id="Shape" fill="#683F1D" fill-rule="nonzero"></path>
            <path d="M410.58,30.3801 C410.72,32.1601 416.8,32.8501 417.15,31.8401 C417.64,30.3201 410.23,26.2101 410.58,30.3801 Z" id="Shape" fill="#683F1D" fill-rule="nonzero"></path>
            <path d="M398.97,33.0401 C398.97,34.0401 405.58,34.4501 405.34,31.0401 C405.18,28.5701 399.11,30.3601 398.97,33.0401 Z" id="Shape" fill="#683F1D" fill-rule="nonzero"></path>
            <path d="M434.99,44.2101 C437.71,40.2101 441.99,40.6301 442.46,41.3901" id="Shape" stroke="#914839" stroke-width="0.75" stroke-linecap="round" stroke-linejoin="round"></path>
            <path d="M436.15,42.8401 C440.15,40.4801 442.35,45.7701 437.27,45.7701" id="Shape" stroke="#914839" stroke-width="0.75" stroke-linecap="round" stroke-linejoin="round"></path>
            <path d="M406.97,35.2701 C408.07,37.4001 407.97,38.6901 407.25,40.0601 C406.53,41.4301 404.32,44.5501 405.47,47.3201" id="Shape" stroke="#914839" stroke-width="0.75" stroke-linecap="round" stroke-linejoin="round"></path>
            <path d="M414.09,47.7901 C413.09,51.1001 409.15,53.1701 407.32,52.7901 C407.32,52.7901 409.21,57.9201 412.54,56.6101 C416.37,55.0601 414.09,47.7901 414.09,47.7901 Z" id="Shape" stroke="#914839" stroke-width="0.75" fill="#FFFFFF" fill-rule="nonzero" stroke-linecap="round" stroke-linejoin="round"></path>
            <path d="M434.39,48.9201 C435.139,49.4481 435.992,49.8104 436.892,49.9828 C437.792,50.1552 438.719,50.1339 439.61,49.9201" id="Shape" stroke="#914839" stroke-width="0.75" stroke-linecap="round" stroke-linejoin="round"></path>
            <path d="M446.25,31.4401 C449.99,36.5801 444.36,38.8101 444.36,38.8101 C443.792,37.9685 443.04,37.2674 442.16,36.7601 C441.608,36.434 440.99,36.2342 440.351,36.1749 C439.712,36.1157 439.068,36.1984 438.465,36.4173 C437.862,36.6362 437.315,36.9857 436.863,37.4409 C436.411,37.896 436.065,38.4456 435.85,39.0501 C428.18,39.2101 431.49,33.2201 431.49,33.2201 C424.61,35.9701 424.39,28.9201 427.35,25.7401 C421.98,31.7401 415.16,25.7401 416.27,20.3101 C414.37,26.2401 407.6,26.4701 408.5,21.5501 C407.919,22.561 407.214,23.4949 406.4,24.3301 C401.75,29.0101 397.57,24.0101 399.33,20.3301 C392.33,26.9901 389.33,19.5401 395.98,15.5401 C390.71,11.2201 396.98,5.06013 401.19,8.26013 C400.19,0.590129 408.11,0.26013 411.58,4.73013 C412.94,-3.68987 423.46,0.910128 423.88,4.90013 C431.63,-0.519872 437.63,3.47013 436.88,12.2801 C440.01,8.09013 446.72,10.5501 444.14,21.2801 C450.58,20.8201 451.67,28.8101 446.25,31.4401 Z" id="Shape" fill="#683F1D" fill-rule="nonzero"></path>
            <path d="M442.16,36.7601 C441.608,36.434 440.99,36.2342 440.351,36.1749 C439.712,36.1157 439.068,36.1984 438.465,36.4173 C437.862,36.6362 437.315,36.9857 436.863,37.4409 C436.411,37.896 436.065,38.4456 435.85,39.0501 C428.18,39.2101 431.49,33.2201 431.49,33.2201 C424.61,35.9701 424.39,28.9201 427.35,25.7401 C421.98,31.7401 415.16,25.7401 416.27,20.3101 C414.37,26.2401 407.6,26.4701 408.5,21.5501 C407.919,22.561 407.214,23.4949 406.4,24.3301 C404.52,18.6401 408.73,11.1301 415.16,14.5301 C416.01,9.95013 426.52,6.98013 426.46,18.5301 C430.35,13.1001 439.16,14.9601 434.99,25.3201 C438.27,22.8701 445.81,27.1101 442.16,36.7601 Z" id="Shape" fill="#683F1D" fill-rule="nonzero"></path>
            <path d="M428.03,38.7701 C428.96,40.6301 427.21,43.3801 424.13,44.9301 C421.05,46.4801 417.79,46.2201 416.86,44.3601 C415.93,42.5001 417.67,39.7501 420.76,38.2001 C423.85,36.6501 427.1,36.9101 428.03,38.7701 Z" id="Shape" fill="#914839" fill-rule="nonzero"></path>
            <path d="M402.3,45.8401 C401.82,47.1501 400.21,47.8401 398.23,47.8401 C398.075,45.3492 398.075,42.8511 398.23,40.3601 C401.17,41.6101 402.98,43.9801 402.3,45.8401 Z" id="Shape" fill="#914839" fill-rule="nonzero"></path>
            <path d="M430.18,254.7 L430.180069,403.98 L217.319906,403.98 L217.32,254.7 C217.313,252.722 217.698,250.762 218.452,248.933 C219.206,247.104 220.314,245.442 221.713,244.044 C223.112,242.645 224.774,241.536 226.603,240.782 C228.432,240.028 230.392,239.644 232.37,239.65 L415.13,239.65 C417.108,239.644 419.068,240.028 420.897,240.782 C422.726,241.536 424.388,242.645 425.787,244.044 C427.185,245.442 428.294,247.104 429.048,248.933 C429.802,250.762 430.186,252.722 430.18,254.7 Z" id="Shape" stroke="#DDDDDD" stroke-width="2" stroke-linecap="round" stroke-linejoin="round"></path>
            <path d="M430.18,254.7 L430.180069,255.38 L217.319906,255.38 L217.32,254.7 C217.313,252.722 217.698,250.762 218.452,248.933 C219.206,247.104 220.314,245.442 221.713,244.044 C223.112,242.645 224.774,241.536 226.603,240.782 C228.432,240.028 230.392,239.644 232.37,239.65 L415.13,239.65 C417.108,239.644 419.068,240.028 420.897,240.782 C422.726,241.536 424.388,242.645 425.787,244.044 C427.185,245.442 428.294,247.104 429.048,248.933 C429.802,250.762 430.186,252.722 430.18,254.7 Z" id="Shape" stroke="#DDDDDD" stroke-width="2" stroke-linecap="round" stroke-linejoin="round"></path>
            <path d="M401.37,247.51 C401.37,248.052 401.209,248.582 400.908,249.033 C400.607,249.483 400.179,249.834 399.678,250.042 C399.178,250.249 398.627,250.303 398.095,250.198 C397.564,250.092 397.076,249.831 396.692,249.448 C396.309,249.064 396.048,248.576 395.943,248.045 C395.837,247.513 395.891,246.962 396.098,246.462 C396.306,245.961 396.657,245.533 397.108,245.232 C397.558,244.931 398.088,244.77 398.63,244.77 C399.357,244.77 400.054,245.059 400.567,245.573 C401.081,246.087 401.37,246.784 401.37,247.51 Z" id="Shape" fill="#DDDDDD" fill-rule="nonzero"></path>
            <path d="M407.56,250.25 C409.073,250.25 410.3,249.023 410.3,247.51 C410.3,245.997 409.073,244.77 407.56,244.77 C406.047,244.77 404.82,245.997 404.82,247.51 C404.82,249.023 406.047,250.25 407.56,250.25 Z" id="Shape" fill="#DDDDDD" fill-rule="nonzero"></path>
            <path d="M416.5,250.25 C418.013,250.25 419.24,249.023 419.24,247.51 C419.24,245.997 418.013,244.77 416.5,244.77 C414.987,244.77 413.76,245.997 413.76,247.51 C413.76,249.023 414.987,250.25 416.5,250.25 Z" id="Shape" fill="#DDDDDD" fill-rule="nonzero"></path>
            <path d="M229.87,326.82 C223.79,308.82 222.36,299.1 224.02,297.71 C225.02,296.83 226.69,296.18 226.82,294.4 C226.95,292.62 224.91,286.64 232.03,285.24 C232.03,285.24 234.44,271.13 236.73,264.52 C236.73,264.52 249.45,315.15 250.34,318.95 C251.23,322.75 234,339.1 229.87,326.82 Z" id="Shape" fill="#FEBD9D" fill-rule="nonzero"></path>
            <path d="M232.03,285.24 C231.565,287.506 231.231,289.796 231.03,292.1" id="Shape" stroke="#F4A789" stroke-width="0.75" stroke-linecap="round" stroke-linejoin="round"></path>
            <path d="M223.58,303.03 C223.21,300.03 223.39,298.25 224.03,297.71 C225.03,296.83 226.7,296.18 226.83,294.4 C226.96,292.62 224.92,286.64 232.04,285.24 C232.04,285.24 234.45,271.13 236.74,264.52" id="Shape" stroke="#F4A789" stroke-width="0.75" stroke-linecap="round" stroke-linejoin="round"></path>
            <path d="M291.714,234.236 L235.988,249.953 C232.735,250.87 230.842,254.251 231.759,257.504 L242.576,295.858 C243.493,299.111 246.874,301.005 250.127,300.087 L305.854,284.371 C309.107,283.453 311,280.072 310.083,276.819 L299.266,238.465 C298.348,235.212 294.967,233.319 291.714,234.236 Z" id="Shape" stroke="#DDDDDD" fill="#F9F9F9" fill-rule="nonzero" stroke-linecap="round" stroke-linejoin="round"></path>
            <path d="M288.961,239.837 L241.281,253.284 C239.128,253.891 237.875,256.128 238.482,258.281 L247.904,291.688 C248.511,293.841 250.748,295.094 252.901,294.487 L300.581,281.039 C302.734,280.432 303.987,278.195 303.38,276.042 L293.958,242.635 C293.351,240.483 291.113,239.23 288.961,239.837 Z" id="Shape" stroke="#DDDDDD" stroke-linecap="round" stroke-linejoin="round"></path>
            <path d="M275.14,272.16 C275.155,272.443 275.155,272.727 275.14,273.01 C274.985,275.162 274.233,277.227 272.97,278.976 C271.707,280.724 269.981,282.086 267.987,282.908 C265.993,283.731 263.809,283.981 261.681,283.632 C259.552,283.283 257.563,282.348 255.936,280.931 C254.309,279.515 253.109,277.673 252.471,275.613 C251.832,273.553 251.78,271.355 252.32,269.267 C252.861,267.179 253.972,265.282 255.53,263.79 C257.088,262.298 259.03,261.27 261.14,260.82 C261.927,260.642 262.733,260.554 263.54,260.56 C265.065,260.559 266.575,260.858 267.984,261.44 C269.393,262.022 270.673,262.876 271.752,263.954 C272.831,265.031 273.688,266.31 274.272,267.718 C274.857,269.126 275.159,270.636 275.16,272.16 L275.14,272.16 Z" id="Shape" stroke="#DDDDDD" stroke-linecap="round" stroke-linejoin="round"></path>
            <path d="M275.1,272.98 C274.961,274.905 274.344,276.765 273.306,278.391 C272.267,280.018 270.839,281.36 269.152,282.296 C267.464,283.232 265.57,283.733 263.64,283.753 C261.711,283.773 259.807,283.311 258.1,282.41 C260.35,277.86 263.49,271.41 263.49,271.41 L275.1,272.98 Z" id="Shape" stroke="#DDDDDD" stroke-linecap="round" stroke-linejoin="round"></path>
            <path d="M275.14,272.16 C275.155,272.443 275.155,272.727 275.14,273.01 L263.56,271.47 L272.32,264.54 C274.153,266.654 275.155,269.362 275.14,272.16 Z" id="Shape" stroke="#DDDDDD" stroke-linecap="round" stroke-linejoin="round"></path>
            <path d="M272.28,264.54 L263.52,271.47 C263.52,271.47 262.02,265.04 261.12,260.82 C261.907,260.642 262.713,260.554 263.52,260.56 C265.18,260.558 266.821,260.913 268.332,261.599 C269.843,262.286 271.19,263.289 272.28,264.54 Z" id="Shape" stroke="#DDDDDD" fill="#DDDDDD" fill-rule="nonzero" stroke-linecap="round" stroke-linejoin="round"></path>
            <path d="M288.33,267.9 C290.52,267.13 288.5,266.01 289.95,265.39 C292.07,264.49 292.76,251.39 283.34,254.08 C276.2,256.08 281.4,267.73 284.9,266.66 C285.85,266.37 285.82,268.79 288.33,267.9 Z" id="Shape" stroke="#DDDDDD" fill="#F9F9F9" fill-rule="nonzero" stroke-linecap="round" stroke-linejoin="round"></path>
            <path d="M285.76,258.3 C284.83,259.97 285.57,261.14 287.09,261.7 C289.64,262.65 285.85,265.64 285.02,264 C284.11,262.2 289.09,263.4 288.02,267.44" id="Shape" stroke="#DDDDDD" stroke-linecap="round" stroke-linejoin="round"></path>
            <path d="M287.21,270.58 C287.85,272.11 288.64,272.38 289.85,272.03 C291.06,271.68 291.11,270.84 290.79,269.62 L287.21,270.58 Z" id="Shape" stroke="#DDDDDD" fill="#F9F9F9" fill-rule="nonzero" stroke-linecap="round" stroke-linejoin="round"></path>
            <path d="M286.18,269.61 C286.76,268.61 290.18,268 290.66,268.11 C291.14,268.22 291.57,269.61 290.94,269.97 C289.619,270.56 288.21,270.928 286.77,271.06 C286.626,271.018 286.493,270.943 286.381,270.843 C286.269,270.742 286.182,270.617 286.125,270.478 C286.069,270.338 286.044,270.188 286.054,270.038 C286.063,269.887 286.106,269.741 286.18,269.61 Z" id="Shape" stroke="#DDDDDD" fill="#F9F9F9" fill-rule="nonzero" stroke-linecap="round" stroke-linejoin="round"></path>
            <path d="M285.52,267.75 C286.14,266.75 289.82,266.13 290.29,266.25 C290.91,266.4 291.29,267.75 290.6,268.1 C289.182,268.692 287.681,269.06 286.15,269.19 C286.004,269.152 285.868,269.081 285.752,268.983 C285.637,268.885 285.546,268.762 285.485,268.623 C285.425,268.485 285.396,268.334 285.402,268.183 C285.408,268.032 285.449,267.884 285.52,267.75 Z" id="Shape" stroke="#DDDDDD" fill="#F9F9F9" fill-rule="nonzero" stroke-linecap="round" stroke-linejoin="round"></path>
            <path d="M273.79,257.42 L276.83,257.62" id="Shape" stroke="#DDDDDD" stroke-linecap="round" stroke-linejoin="round"></path>
            <path d="M279.77,248.16 L281.1,251.09" id="Shape" stroke="#DDDDDD" stroke-linecap="round" stroke-linejoin="round"></path>
            <path d="M290.16,248.93 L289.09,251.09" id="Shape" stroke="#DDDDDD" stroke-linecap="round" stroke-linejoin="round"></path>
            <path d="M239,293.09 C234.77,300.66 238.12,309.73 243.23,312.2 C248.34,314.67 250.45,298.99 251.06,295.03 C251.67,291.07 251.68,285.08 252.12,282.08 C252.56,279.08 249.74,276.71 247.89,281.29 C246.04,285.87 245.16,288.67 245.16,288.67 L239,293.09 Z" id="Shape" fill="#FEBD9D" fill-rule="nonzero"></path>
            <path d="M251.06,295.03 C251.68,291.03 251.68,285.08 252.12,282.08 C252.56,279.08 249.74,276.71 247.89,281.29 C246.04,285.87 245.16,288.67 245.16,288.67 L239,293.09" id="Shape" stroke="#F4A789" stroke-width="0.75" stroke-linecap="round" stroke-linejoin="round"></path>
            <g id="Clipped" transform="translate(217.000000, 236.000000)">
                <mask id="mask-6" fill="white">
                    <use xlink:href="#path-5"></use>
                </mask>
                <g id="Rectangle-path"></g>
                <g id="Group" mask="url(#mask-6)">
                    <g transform="translate(5.000000, 27.000000)" id="Shape">
                        <path d="M153.58,0.64 L150.18,43.64 L112.94,47.15 C116.13,37.02 118.698,26.704 120.63,16.26 C121.47,11.75 122.23,6.96 122.81,2.07 L136.53,1.44 L153.58,0.64 Z" stroke="none" fill="#FEBD9D" fill-rule="nonzero"></path>
                        <path d="M139.58,5.49 C138.06,11.39 129.73,15.57 120.69,16.24 C121.53,11.73 122.29,6.94 122.87,2.05 L136.59,1.42 C138.74,2.37 140,3.69 139.58,5.49 Z" stroke="none" fill="#F4A789" fill-rule="nonzero"></path>
                        <path d="M211.42,47.13 L211.42,147.18 L203.66,147.18 C203.66,147.18 199.08,129.03 179.36,90.99 C179.36,90.99 178.98,92.68 178.21,95.61 C177.15,99.67 175.34,106.09 172.77,113.72 C168.437,126.843 162.858,139.52 156.11,151.58 C141.882,157.675 126.874,161.761 111.52,163.72 C111.1,163.72 110.67,163.83 110.24,163.87 C94.94,165.76 77.18,165.77 59.16,161.13 C47.97,158.296 37.291,153.731 27.51,147.6 C28.05,146.72 52.38,99.09 59.96,83.77 C60.55,82.58 61.14,81.42 61.74,80.27 C68.86,66.66 77.4,56.08 100.46,47.13 C105.81,45.07 110.51,43.24 114.63,41.64 C129.82,35.75 137.39,32.84 142.03,31.46 C145.31,30.487 148.427,29.577 151.38,28.73 C179.8,20.57 193.9,18.66 205.85,36.89 C207.949,40.166 209.81,43.588 211.42,47.13 Z" stroke="none" fill="#72FE1D" fill-rule="nonzero"></path>
                        <path d="M205.85,36.89 C196.01,36.29 183.63,39 176.63,54.41 C163.7,82.85 138.18,94.76 119.47,76.53 C104.77,62.22 79.72,64.08 61.74,80.27 C68.86,66.66 77.4,56.08 100.46,47.13 C105.81,45.07 110.51,43.24 114.63,41.64 C129.82,35.75 137.39,32.84 142.03,31.46 C145.31,30.487 148.427,29.577 151.38,28.73 C179.8,20.57 193.9,18.66 205.85,36.89 Z" stroke="none" fill="#72FE1D" fill-rule="nonzero"></path>
                        <path d="M211.42,120.14 L211.42,147.14 L203.66,147.14 C203.66,147.14 199.08,128.99 179.36,90.95 C180.49,86.56 181.36,82.33 182.06,78.58 C194.8,84.16 195.89,95.97 194.5,102.64 C193.21,108.85 199.76,124.07 211.42,120.14 Z" stroke="none" fill="#5EA800" fill-rule="nonzero"></path>
                        <path d="M105.33,97.82 C103.33,108.28 94.62,126.62 79.07,152.82 C76.68,156.62 73.967,160.207 70.96,163.54 C66.988,162.942 63.05,162.141 59.16,161.14 L64.08,147.19 C66.87,136.4 72.08,131.59 83.3,129.43 C93.26,127.5 84.92,97.04 105.33,97.82 Z" stroke="none" fill="#5EA800" fill-rule="nonzero"></path>
                        <path d="M55.23,179.64 C55.23,179.64 63.66,171.92 70.96,163.53 C73.967,160.197 76.68,156.61 79.07,152.81 C94.62,126.62 103.32,108.28 105.33,97.81 C105.957,94.57 105.94,92.087 105.28,90.36" stroke="#5EA800" stroke-width="0.75" fill="none" stroke-linecap="round" stroke-linejoin="round"></path>
                        <path d="M184.04,64.89 C184.04,64.89 183.51,70.64 182.04,78.62 C181.36,82.37 180.47,86.62 179.34,90.99" stroke="#5EA800" stroke-width="0.75" fill="none" stroke-linecap="round" stroke-linejoin="round"></path>
                        <path d="M64.07,124.73 C64.44,148.78 36.99,173.03 21.94,143.27 C15.65,130.84 -0.06,72.83 1.04,64.89 C2.04,57.82 22.72,42.08 31.21,45.16 C31.21,45.16 34.76,54.5 39.64,66.42 C45.85,81.59 54.21,100.97 60.09,110.59 C62.659,114.862 64.033,119.746 64.07,124.73 Z" stroke="none" fill="#72FE1D" fill-rule="nonzero"></path>
                        <path d="M53.14,97.37 C49.88,103.82 46.14,111.25 42.48,118.37 C39.99,113.82 39.54,107.12 44.84,100.87 C51.58,92.94 30.48,79.1 39.64,66.4 C43.66,76.24 48.58,87.81 53.14,97.37 Z" stroke="none" fill="#5EA800" fill-rule="nonzero"></path>
                        <path d="M53.27,97.12 C53.27,97.2 53.18,97.28 53.14,97.37 C49.88,103.82 46.14,111.25 42.48,118.37 L39.05,125.1" stroke="#5EA800" stroke-width="0.75" fill="none" stroke-linecap="round" stroke-linejoin="round"></path>
                    </g>
                </g>
            </g>
            <path d="M335.4,243.06 C330.4,261.11 325.95,270.99 356.74,273.01 C356.74,273.01 376.28,251.01 373.62,219.07 C373.62,219.07 356.21,205.07 341.13,232.34 C341.13,232.34 335.6,234.46 334.97,235.21 C334.34,235.96 334.76,240.62 335.4,243.06 Z" id="Shape" fill="#FEBD9D" fill-rule="nonzero"></path>
            <path d="M341.13,232.34 C341.13,232.34 335.6,234.46 334.97,235.21 C334.34,235.96 334.76,240.62 335.4,243.06" id="Shape" stroke="#F4A789" stroke-width="0.75" stroke-linecap="round" stroke-linejoin="round"></path>
            <path d="M345.34,236.21 C346.058,236.21 346.64,235.628 346.64,234.91 C346.64,234.192 346.058,233.61 345.34,233.61 C344.622,233.61 344.04,234.192 344.04,234.91 C344.04,235.628 344.622,236.21 345.34,236.21 Z" id="Shape" fill="#683F1D" fill-rule="nonzero"></path>
            <path d="M346.47,224.39 C349.05,222.6 353.58,233.02 350.3,232.98 C348.98,232.98 343.33,226.57 346.47,224.39 Z" id="Shape" fill="#BF8228" fill-rule="nonzero"></path>
            <path d="M401.36,312.53 C399.84,327.37 392.58,333.28 393.99,338.29 C395.4,343.3 398.87,342.21 398.87,342.21 C398.87,342.21 396.11,350.21 385.52,347.02 C385.52,347.02 376.26,361.16 367.52,351.02 C359.62,361.81 342.97,364.02 342.46,349.22 C342.46,349.22 348.89,350.83 352.17,346.66 C355.45,342.49 356.17,335.54 352.61,331.88 C349.05,328.22 343.88,324.56 343.55,318.45 C343.22,312.34 347.73,301.62 354.28,293.65 C354.28,293.65 328.14,286.28 326.21,308.65 L320.99,310.65 C320.99,310.65 315.42,307.96 315.55,298.97 C315.68,289.98 323.89,283.38 332.83,283.54 C341.77,283.7 363.34,279.82 352.83,252.59 C352.83,252.59 361.41,255.73 363.65,248.86 C365.89,241.99 358.12,238.33 353.65,242.17 C353.65,242.17 349.99,236.52 360.84,224.08 C359.63,220.14 355.44,219.08 357.24,215.08 C358.7,211.86 367.86,211.86 374.74,213.25 C376.217,213.544 377.671,213.945 379.09,214.45 C383.031,215.851 386.465,218.396 388.95,221.76 C390.44,223.75 391.422,226.074 391.81,228.53 C392.798,228.124 393.862,227.933 394.93,227.97 C397.09,228.05 399.73,229.26 400.67,234.31 C402.04,241.62 397.03,245.31 393.67,247 C392.735,247.465 391.757,247.836 390.75,248.11 C391.485,250.399 391.823,252.797 391.75,255.2 C391.707,256.768 391.496,258.327 391.12,259.85 C389.69,265.56 386.59,275.5 387.96,282.41 C388.111,283.247 388.352,284.065 388.68,284.85 C391.49,291.71 402.88,297.69 401.36,312.53 Z" id="Shape" fill="#BF8228" fill-rule="nonzero"></path>
            <path d="M393.63,247.05 C392.695,247.515 391.717,247.886 390.71,248.16 C390.71,248.16 386.02,249.3 384.16,241.1 C382.67,234.53 386.36,230.1 391.81,228.58 C392.798,228.174 393.862,227.983 394.93,228.02 C385.07,236.61 389.86,243.59 393.63,247.05 Z" id="Shape" fill="#BF8228" fill-rule="nonzero"></path>
            <path d="M401.36,312.53 C399.84,327.37 392.58,333.28 393.99,338.29 C395.4,343.3 398.87,342.21 398.87,342.21 C398.87,342.21 396.11,350.21 385.52,347.02 C385.52,347.02 376.26,361.16 367.52,351.02 C359.62,361.81 342.97,364.02 342.46,349.22 C342.46,349.22 348.89,350.83 352.17,346.66 C355.45,342.49 356.17,335.54 352.61,331.88 C349.05,328.22 343.88,324.56 343.55,318.45 C343.22,312.34 347.73,301.62 354.28,293.65 C354.28,293.65 328.14,286.28 326.21,308.65 L320.99,310.65 C320.99,310.65 315.42,307.96 315.55,298.97 C315.68,289.98 323.89,283.38 332.83,283.54 C341.77,283.7 363.34,279.82 352.83,252.59 C352.83,252.59 361.41,255.73 363.65,248.86 C365.89,241.99 358.12,238.33 353.65,242.17 C353.65,242.17 349.99,236.52 360.84,224.08 C359.63,220.14 355.44,219.08 357.24,215.08 C358.7,211.86 367.86,211.86 374.74,213.25 C370.14,216.07 367.06,220.5 369.62,227.43 C375.91,244.43 374.14,252.61 368.69,259.87 C363.24,267.13 357.08,281.87 362.32,293.65 C367.56,305.43 359.86,300.01 362.17,323.32 C364.48,346.63 393.97,332.43 393.05,313.44 C392.22,296.28 381.81,290.51 387.88,282.44 C388.031,283.277 388.272,284.095 388.6,284.88 C391.49,291.71 402.88,297.69 401.36,312.53 Z" id="Shape" fill="#BF8228" fill-rule="nonzero"></path>
            <path d="M353.5,246.28 C356.36,244.5 359.07,244.66 360.64,245.79" id="Shape" stroke="#F4A789" stroke-width="0.75" stroke-linecap="round" stroke-linejoin="round"></path>
            <path d="M353.75,249.07 C357.96,250.88 358.75,245.46 355.31,245.39" id="Shape" stroke="#F4A789" stroke-width="0.75" stroke-linecap="round" stroke-linejoin="round"></path>
            <path d="M375.47,222.03 C380.08,223.47 386.98,230.72 386.98,230.72" id="Shape" stroke="#7F542D" stroke-width="0.75" stroke-linecap="round" stroke-linejoin="round"></path>
            <path d="M391.81,228.58 C386.36,230.09 382.67,234.53 384.16,241.1 C386.02,249.3 390.71,248.16 390.71,248.16" id="Shape" stroke="#7F542D" stroke-width="0.75" stroke-linecap="round" stroke-linejoin="round"></path>
            <path d="M385.81,232.35 C390.03,230.66 395.07,229.94 396.99,235.28 C398.91,240.62 396.1,244.76 391.81,247.81" id="Shape" stroke="#7F542D" stroke-width="0.75" stroke-linecap="round" stroke-linejoin="round"></path>
            <path d="M364.58,235.61 C373.18,238.19 384.07,237.51 384.07,237.51" id="Shape" stroke="#7F542D" stroke-width="0.75" stroke-linecap="round" stroke-linejoin="round"></path>
            <path d="M366.95,250.53 C374.46,252.38 383.95,246.93 385.45,244.77" id="Shape" stroke="#7F542D" stroke-width="0.75" stroke-linecap="round" stroke-linejoin="round"></path>
            <path d="M383.91,239.65 C385.13,236.29 388.58,234.08 391.14,237.4 C393.7,240.72 389.86,244.24 386.75,240.57" id="Shape" stroke="#7F542D" stroke-width="0.75" stroke-linecap="round" stroke-linejoin="round"></path>
            <path d="M354.29,293.7 C361.57,285.11 367.71,278.25 364.59,265.85" id="Shape" stroke="#7F542D" stroke-width="0.75" stroke-linecap="round" stroke-linejoin="round"></path>
            <path d="M367.58,351.07 C371.99,344.33 365.18,334.43 364.14,327.9 C363.1,321.37 362.87,313.18 371.07,304.29" id="Shape" stroke="#7F542D" stroke-width="0.75" stroke-linecap="round" stroke-linejoin="round"></path>
            <path d="M378.65,274.88 C384.77,290.45 385.73,292.96 382.41,304.62 C379.09,316.28 377.09,322.06 382.41,330.38 C388.32,339.6 386.47,342.94 385.51,347.02" id="Shape" stroke="#7F542D" stroke-width="0.75" stroke-linecap="round" stroke-linejoin="round"></path>
            <path d="M351.51,241.73 C351.9,243.85 349.87,246 346.99,246.52 C344.11,247.04 341.46,245.75 341.07,243.62 C340.68,241.49 342.71,239.35 345.59,238.83 C348.47,238.31 351.12,239.6 351.51,241.73 Z" id="Shape" fill="#F4A789" fill-rule="nonzero"></path>
            <polyline id="Shape" stroke="#DDDDDD" stroke-width="2" stroke-linecap="round" stroke-linejoin="round" points="430.18 279.78 430.18 403.98 217.32 403.98"></polyline>
        </g>
    </g>
</svg>