<?xml version="1.0" encoding="utf-8"?>
<svg viewBox="0 0 301 82" xmlns="http://www.w3.org/2000/svg">
  <defs>
    <linearGradient x1="50%" y1="96%" x2="50%" y2="-2.22044605e-14%" id="linearGradient-1">
      <stop stop-color="#7AF4AB" offset="0"/>
      <stop stop-color="#E7FE8F" offset="1"/>
    </linearGradient>
    <filter x="-53.4%" y="-122.3%" width="206.7%" height="393.6%" filterUnits="objectBoundingBox" id="filter-4">
      <feMorphology radius="6" operator="dilate" in="SourceAlpha" result="shadowSpreadOuter1"/>
      <feOffset dx="0" dy="3" in="shadowSpreadOuter1" result="shadowOffsetOuter1"/>
      <feMorphology radius="6" operator="erode" in="SourceAlpha" result="shadowInner"/>
      <feOffset dx="0" dy="3" in="shadowInner" result="shadowInner"/>
      <feComposite in="shadowOffsetOuter1" in2="shadowInner" operator="out" result="shadowOffsetOuter1"/>
      <feGaussianBlur stdDeviation="3.5" in="shadowOffsetOuter1" result="shadowBlurOuter1"/>
      <feColorMatrix values="0 0 0 0 0.295784716   0 0 0 0 0.25429684   0 0 0 0 0.580668132  0 0 0 0.535145635 0" type="matrix" in="shadowBlurOuter1"/>
    </filter>
    <radialGradient cx="0.270516043%" cy="-6.60783651%" r="197.996451%" gradientTransform="translate(0.002705,-0.066078),scale(0.363602,1.000000),translate(-0.002705,0.066078)" id="radialGradient-2">
      <stop stop-color="#A1A1FF" offset="0"/>
      <stop stop-color="#8078BF" offset="1"/>
    </radialGradient>
  </defs>
  <g id="Logo" stroke="none" stroke-width="1" fill="none" fill-rule="evenodd">
    <g>
      <g id="Group-8" transform="matrix(1, 0, 0, 1, 92, 18)" fill="#FFFFFF" fill-rule="nonzero">
        <polygon id="Path" points="9.62808941 38.1075418 22.1530878 38.1075418 22.1530878 45.4195212 0.234340523 45.4195212 0.234340523 5.95715883 9.62808941 5.95715883" style="fill: rgb(0, 0, 0);"/>
        <path d="M21.6900709,5.51062574 C21.6900709,4.05938591 22.202785,2.85934023 23.2282287,1.91045265 C24.2536722,0.96156509 25.6087024,0.487128415 27.2933597,0.487128415 C28.978017,0.487128415 30.3330472,0.96156509 31.3584907,1.91045265 C32.3839345,2.85934023 32.8966485,4.05938591 32.8966485,5.51062574 C32.8966485,6.92465426 32.3839345,8.10609459 31.3584907,9.05498217 C30.3330472,10.0038696 28.978017,10.4783065 27.2933597,10.4783065 C25.6087024,10.4783065 24.2536722,10.0038696 23.2282287,9.05498217 C22.202785,8.10609459 21.6900709,6.92465426 21.6900709,5.51062574 Z" id="Path" style="fill: rgb(0, 0, 0);"/>
        <polygon id="Path" points="31.962767 14.2738377 31.962767 45.4195212 22.5690183 45.4195212 22.5690183 14.2738377" style="fill: rgb(0, 0, 0);"/>
        <path d="M51.8803396,37.2144754 L51.8803396,45.4195212 L47.6504059,45.4195212 C44.0613535,45.4195212 41.2688928,44.5171611 39.2729399,42.7124141 C37.2769873,40.9076673 36.2790259,37.9215071 36.2790259,33.7538441 L36.2790259,22.3114334 L36.2790259,14.2738377 L36.2790259,6.62695848 L45.6727748,6.62695848 L45.6727748,14.2738377 L45.6727748,22.3114334 L45.6727748,33.9212939 C45.6727748,35.1492659 45.9199762,36.0051127 46.4143865,36.4888593 C46.9087967,36.9726057 47.7419571,37.2144754 48.9138928,37.2144754 L51.8803396,37.2144754 Z" id="Path" style="fill: rgb(0, 0, 0);"/>
        <polygon id="Path" points="36.2790259 22.3114334 32.1589607 22.3114334 32.1589607 14.2738377 36.2790259 14.2738377 45.6727748 14.2738377 51.8254054 14.2738377 51.8254054 22.3114334" style="fill: rgb(0, 0, 0);"/>
        <path d="M67.0735708,13.8831212 C70.1132785,13.8831212 72.7867164,14.5157034 75.0939645,15.7808869 C77.4012127,17.0460704 79.1865563,18.8228822 80.4500494,21.1113758 C81.7135424,23.3998692 82.3452794,26.0325276 82.3452794,29.0094299 C82.3452794,29.7908668 82.2537232,30.6467133 82.0706085,31.5769951 L60.8110716,31.5769951 C60.9209406,33.9213056 61.5068995,35.6050906 62.5689662,36.6284007 C63.6310327,37.6517108 64.9860629,38.1633584 66.6340972,38.1633584 C68.0257706,38.1633584 69.1793774,37.8098564 70.094952,37.1028422 C71.0105267,36.395828 71.6147968,35.4841653 71.9077807,34.3678269 L81.8508714,34.3678269 C81.4480188,36.5632923 80.5690803,38.5261578 79.2140297,40.2564821 C77.8589793,41.9868066 76.1377249,43.3449979 74.0502147,44.3310968 C71.9627045,45.3171954 69.6371799,45.8102376 67.0735708,45.8102376 C64.070486,45.8102376 61.4062038,45.1683526 59.0806442,43.8845635 C56.7550847,42.6007746 54.9331185,40.7495413 53.6146909,38.3308082 C52.2962635,35.9120753 51.6370595,33.0840605 51.6370595,29.8466794 C51.6370595,26.5720869 52.2871079,23.7347698 53.5872239,21.3346422 C54.8873397,18.9345149 56.7093061,17.0925842 59.053177,15.8087953 C61.3970482,14.5250062 64.070486,13.8831212 67.0735708,13.8831212 Z M67.0735708,21.4183672 C65.3522905,21.4183672 63.9240154,21.9393174 62.788703,22.9812331 C61.6533905,24.0231488 61.0124977,25.5487882 60.8660057,27.5581972 L72.8416622,27.5581972 C72.8782852,25.511577 72.3381042,23.9766348 71.2211031,22.9533247 C70.104102,21.9300146 68.7216051,21.4183672 67.0735708,21.4183672 Z" id="Combined-Shape"/>
        <path d="M67.0735708,13.8831212 C70.1132785,13.8831212 72.7867164,14.5157034 75.0939645,15.7808869 C77.4012127,17.0460704 79.1865563,18.8228822 80.4500494,21.1113758 C81.5051532,23.0224255 82.1197081,25.1734752 82.2937252,27.564571 C82.3280948,28.0368267 82.3452794,28.5184461 82.3452794,29.0094299 C82.3452794,29.7908668 82.2537232,30.6467133 82.0706085,31.5769951 L60.8110716,31.5769951 C60.9209406,33.9213056 61.5068995,35.6050906 62.5689662,36.6284007 C63.6310327,37.6517108 64.9860629,38.1633584 66.6340972,38.1633584 C68.0257706,38.1633584 69.1793774,37.8098564 70.094952,37.1028422 C71.0105267,36.395828 71.6147968,35.4841653 71.9077807,34.3678269 L81.8508714,34.3678269 C81.4480188,36.5632923 80.5690803,38.5261578 79.2140297,40.2564821 C77.8589793,41.9868066 76.1377249,43.3449979 74.0502147,44.3310968 C71.9627045,45.3171954 69.6371799,45.8102376 67.0735708,45.8102376 C64.070486,45.8102376 61.4062038,45.1683526 59.0806442,43.8845635 C56.7550847,42.6007746 54.9331185,40.7495413 53.6146909,38.3308082 C52.2962635,35.9120753 51.6370595,33.0840605 51.6370595,29.8466794 C51.6370595,26.5720869 52.2871079,23.7347698 53.5872239,21.3346422 C54.8873397,18.9345149 56.7093061,17.0925842 59.053177,15.8087953 C61.3970482,14.5250062 64.070486,13.8831212 67.0735708,13.8831212 Z M67.0735708,21.4183672 C65.3522905,21.4183672 63.9240154,21.9393174 62.788703,22.9812331 C61.6533905,24.0231488 61.0124977,25.5487882 60.8660057,27.5581972 L72.8416622,27.5581972 C72.8782852,25.511577 72.3381042,23.9766348 71.2211031,22.9533247 C70.104102,21.9300146 68.7216051,21.4183672 67.0735708,21.4183672 Z" id="Combined-Shape" style="fill: rgb(0, 0, 0);"/>
        <path d="M102.75726,13.9389378 C106.273066,13.9389378 109.065527,15.1296809 111.134726,17.5112026 C113.203925,19.8927245 114.238509,23.1672677 114.238509,27.3349308 L114.238509,45.4195212 L104.84476,45.4195212 L104.84476,28.4512636 C104.84476,26.3674319 104.304579,24.739463 103.224201,23.5673078 C102.143823,22.3951526 100.706392,21.8090837 98.9118655,21.8090837 C97.0074705,21.8090837 95.4967948,22.4230605 94.3797937,23.6510328 C93.2627929,24.8790049 92.7043007,26.6279086 92.7043007,28.8977967 L92.7043007,45.4195212 L83.3105518,45.4195212 L83.3105518,4.11520981 L92.7043007,4.11520981 L92.7043007,19.9671346 C93.5832522,18.1065707 94.8925043,16.6367474 96.6320963,15.5576203 C98.371688,14.4784933 100.413389,13.9389378 102.75726,13.9389378 Z" id="Path" style="fill: rgb(0, 0, 0);"/>
        <path d="M115.643255,5.51062574 C115.643255,4.05938591 116.155969,2.85934023 117.181412,1.91045265 C118.206856,0.96156509 119.561886,0.487128415 121.246543,0.487128415 C122.931201,0.487128415 124.286231,0.96156509 125.311674,1.91045265 C126.337118,2.85934023 126.849832,4.05938591 126.849832,5.51062574 C126.849832,6.92465426 126.337118,8.10609459 125.311674,9.05498217 C124.286231,10.0038696 122.931201,10.4783065 121.246543,10.4783065 C119.561886,10.4783065 118.206856,10.0038696 117.181412,9.05498217 C116.155969,8.10609459 115.643255,6.92465426 115.643255,5.51062574 Z" id="Path" style="fill: rgb(0, 0, 0);"/>
        <polygon id="Path" points="125.915951 14.2738377 125.915951 45.4195212 116.522202 45.4195212 116.522202 14.2738377" style="fill: rgb(0, 0, 0);"/>
        <path d="M137.868064,20.1345846 C139.039999,18.2368096 140.550675,16.7297753 142.400135,15.6134371 C144.249596,14.4970987 146.254675,13.9389378 148.41543,13.9389378 L148.41543,24.1533825 L145.723656,24.1533825 C143.233292,24.1533825 141.301458,24.6929378 139.928096,25.7720649 C138.554734,26.8511919 137.868064,28.6745172 137.868064,31.2420952 L137.868064,45.4195212 L128.474315,45.4195212 L128.474315,14.2738377 L137.868064,14.2738377 L137.868064,20.1345846 Z" id="Path" style="fill: rgb(0, 0, 0);"/>
        <path d="M162.290242,13.8831212 C165.329949,13.8831212 168.003388,14.5157034 170.310635,15.7808869 C172.617883,17.0460704 174.403227,18.8228822 175.66672,21.1113758 C176.930211,23.3998692 177.561949,26.0325276 177.561949,29.0094299 C177.561949,29.7908668 177.470393,30.6467133 177.287279,31.5769951 L156.027743,31.5769951 C156.137611,33.9213056 156.723571,35.6050906 157.785635,36.6284007 C158.847702,37.6517108 160.202733,38.1633584 161.850766,38.1633584 C163.24244,38.1633584 164.396047,37.8098564 165.311623,37.1028422 C166.227196,36.395828 166.831466,35.4841653 167.124451,34.3678269 L177.067543,34.3678269 C176.664688,36.5632923 175.785751,38.5261578 174.430699,40.2564821 C173.07565,41.9868066 171.354394,43.3449979 169.266886,44.3310968 C167.179374,45.3171954 164.853851,45.8102376 162.290242,45.8102376 C159.287157,45.8102376 156.622874,45.1683526 154.297313,43.8845635 C151.971755,42.6007746 150.149789,40.7495413 148.831362,38.3308082 C147.512934,35.9120753 146.853731,33.0840605 146.853731,29.8466794 C146.853731,26.5720869 147.503779,23.7347698 148.803895,21.3346422 C150.104011,18.9345149 151.925975,17.0925842 154.269848,15.8087953 C156.613718,14.5250062 159.287157,13.8831212 162.290242,13.8831212 Z M162.290242,21.4183672 C160.56896,21.4183672 159.140687,21.9393174 158.005374,22.9812331 C156.870062,24.0231488 156.229169,25.5487882 156.082676,27.5581972 L168.058332,27.5581972 C168.094955,25.511577 167.554773,23.9766348 166.437773,22.9533247 C165.320773,21.9300146 163.938275,21.4183672 162.290242,21.4183672 Z" id="Combined-Shape" style="fill: rgb(0, 0, 0);"/>
        <path d="M189.678866,13.8831212 C193.560902,13.8831212 196.664654,14.8692053 198.990214,16.8414031 C201.315772,18.8136006 202.771513,21.4183511 203.357482,24.6557322 L194.56801,24.6557322 C194.311649,23.3905489 193.734844,22.3951621 192.837583,21.6695421 C191.94032,20.9439222 190.814178,20.5811177 189.459129,20.5811177 C188.397062,20.5811177 187.591369,20.8136846 187.042023,21.2788256 C186.492679,21.7439666 186.218012,22.404457 186.218012,23.2603163 C186.218012,24.2278094 186.721568,24.9534185 187.728702,25.4371651 C188.735834,25.9209117 190.319754,26.4046511 192.480511,26.8883977 C194.824381,27.4465668 196.747059,28.0140303 198.248601,28.590805 C199.750143,29.1675799 201.050239,30.1071505 202.148929,31.4095453 C203.247618,32.71194 203.796955,34.4608438 203.796955,36.6563091 C203.796955,38.4424505 203.320864,40.0239061 202.368667,41.4007233 C201.416469,42.7775405 200.043128,43.8566513 198.248601,44.6380882 C196.454074,45.4195249 194.329973,45.8102376 191.876234,45.8102376 C187.737837,45.8102376 184.423506,44.8799696 181.933142,43.0194058 C179.44278,41.1588419 177.922948,38.4982755 177.373605,35.0376267 L186.437748,35.0376267 C186.584239,36.3772326 187.142731,37.4005273 188.11324,38.1075418 C189.083749,38.814556 190.338069,39.1680577 191.876234,39.1680577 C192.938301,39.1680577 193.743995,38.9168855 194.293338,38.4145332 C194.842682,37.912181 195.117352,37.2516906 195.117352,36.4330425 C195.117352,35.3539155 194.613793,34.5817931 193.606661,34.1166521 C192.599529,33.6515111 190.960674,33.1584691 188.690049,32.6375113 C186.419424,32.1537646 184.551679,31.6328145 183.08676,31.0746454 C181.621843,30.5164763 180.358368,29.6141163 179.296301,28.3675386 C178.234234,27.1209607 177.703209,25.4185705 177.703209,23.2603163 C177.703209,20.4694705 178.746948,18.2089194 180.834459,16.4785948 C182.921968,14.7482705 185.870076,13.8831212 189.678866,13.8831212 Z" id="Path" style="fill: rgb(0, 0, 0);"/>
      </g>
      <g id="Group" transform="matrix(1, 0, 0, 1, 3, 0)">
        <g id="Logo">
          <circle id="Oval-2" fill="#25224A" cx="41" cy="41" r="41"/>
          <g id="Group-7" transform="translate(43.731021, 38.367045) rotate(-45.000000) translate(-43.731021, -38.367045) translate(15.731021, 23.367045)">
            <path d="M15.2307692,14.3419112 L0.846153846,27.8803727" id="Path-2" stroke="url(#linearGradient-1)" stroke-width="12" stroke-linecap="round"/>
            <path d="M22.7142937,0.540753294 L37.7012589,14.4114023 C38.2281853,14.8990802 38.2600026,15.7215795 37.7723247,16.2485059 C37.764737,16.2567043 37.7570439,16.2648045 37.7492474,16.2728045 L24.509257,29.8584883" id="Path-2" stroke="url(#linearGradient-1)" stroke-width="12" stroke-linecap="round"/>
            <g id="Path-4" stroke-linecap="round">
              <polyline points="0.846153846 2.49575736 15.2307692 14.3419112 34.571785 14.758453" transform="matrix(1, 0, 0, 1, 0, 0)" fill="black" fill-opacity="1" filter="url(#filter-4)"/>
              <polyline points="0.846153846 2.49575736 15.2307692 14.3419112 34.571785 14.758453" transform="matrix(1, 0, 0, 1, 0, 0)" stroke="url(#radialGradient-2)" stroke-width="12"/>
            </g>
            <circle id="Oval" fill="url(#linearGradient-1)" cx="51.2414548" cy="15.3699764" r="4.55678122"/>
          </g>
        </g>
      </g>
    </g>
  </g>
</svg>
